<?xml version="1.0" encoding="utf-8"?>
<!-- Generator: Adobe Illustrator 18.0.0, SVG Export Plug-In . SVG Version: 6.00 Build 0)  -->
<!DOCTYPE svg PUBLIC "-//W3C//DTD SVG 1.1//EN" "http://www.w3.org/Graphics/SVG/1.1/DTD/svg11.dtd">
<svg version="1.1" id="Layer_1" xmlns="http://www.w3.org/2000/svg" xmlns:xlink="http://www.w3.org/1999/xlink" x="0px" y="0px"
	 viewBox="0 0 1400 450" enable-background="new 0 0 1400 450" xml:space="preserve">
<g>
	<g>
		
			<image overflow="visible" opacity="0.2" width="1484" height="487" xlink:href="715B6DCB.png"  transform="matrix(1 0 0 1 -37 -11)">
		</image>
		<g>
			<rect x="-26.4" y="-0.8" fill="#AA1D28" width="1452.8" height="456.6"/>
		</g>
	</g>
	<g>
		<defs>
			<rect id="SVGID_1_" x="-26.5" y="-0.5" width="1452.8" height="456.6"/>
		</defs>
		<clipPath id="SVGID_2_">
			<use xlink:href="#SVGID_1_"  overflow="visible"/>
		</clipPath>
		<polygon clip-path="url(#SVGID_2_)" fill="#7A1313" points="1432.5,145.8 1039.4,463.6 1004.3,463.6 1397.4,-0.5 1433.2,-0.5 		
			"/>
		<polygon clip-path="url(#SVGID_2_)" fill="#7A1313" points="1432.5,177.4 1054.1,463.6 1184,463.6 1432.5,197.8 		"/>
		<polygon clip-path="url(#SVGID_2_)" fill="#7A1313" points="1357.8,-6 987,467.2 855.6,467.2 1041,281.8 814,471.3 724.1,471.3 
			1301.1,-10.2 		"/>
		<polygon clip-path="url(#SVGID_2_)" fill="#7A1313" points="-32.8,315.3 360.4,-2.5 395.5,-2.5 2.3,461.6 -33.4,461.6 		"/>
		<polygon clip-path="url(#SVGID_2_)" fill="#7A1313" points="-32.7,283.7 345.7,-2.5 215.8,-2.5 -32.8,263.3 		"/>
		<polygon clip-path="url(#SVGID_2_)" fill="#7A1313" points="242.6,500 816.1,-2.5 686.2,-2.5 242.6,479.6 		"/>
		<polygon clip-path="url(#SVGID_2_)" fill="#7A1313" points="42,467.2 412.8,-6 544.2,-6 358.8,179.4 585.7,-10.2 675.7,-10.2 
			98.7,471.3 		"/>
	</g>
</g>
<g>
	<g opacity="0.7">
		<image overflow="visible" width="451" height="216" xlink:href="715B6DD3.png"  transform="matrix(1 0 0 1 789 24)">
		</image>
	</g>
	<g>
		<g>
			<g>
				<polygon fill="#FBB03B" points="1186.2,51.8 1186.2,60.3 1176.7,60.3 1176.7,51.8 1165.8,51.8 1165.8,60.3 1156.3,60.3 
					1156.3,51.8 1145.4,51.8 1145.4,60.3 1135.9,60.3 1135.9,51.8 1125,51.8 1125,60.3 1115.5,60.3 1115.5,51.8 1104.6,51.8 
					1104.6,60.3 1095.2,60.3 1095.2,51.8 1084.3,51.8 1084.3,60.3 1074.8,60.3 1074.8,51.8 1063.9,51.8 1063.9,60.3 1054.4,60.3 
					1054.4,51.8 1043.5,51.8 1043.5,60.3 1034,60.3 1034,51.8 1023.1,51.8 1023.1,60.3 1013.6,60.3 1013.6,51.8 1002.7,51.8 
					1002.7,60.3 993.3,60.3 993.3,51.8 982.4,51.8 982.4,60.3 972.9,60.3 972.9,51.8 962,51.8 962,60.3 952.5,60.3 952.5,51.8 
					941.6,51.8 941.6,60.3 932.1,60.3 932.1,51.8 921.2,51.8 921.2,60.3 911.7,60.3 911.7,51.8 900.8,51.8 900.8,60.3 891.4,60.3 
					891.4,51.8 880.5,51.8 880.5,60.3 871,60.3 871,51.8 860.1,51.8 860.1,60.3 850.6,60.3 850.6,51.8 839.7,51.8 839.7,60.3 
					830.2,60.3 830.2,51.8 819.1,51.8 819.1,194.7 830.2,194.7 830.2,185.4 839.7,185.4 839.7,194.7 850.6,194.7 850.6,185.4 
					860.1,185.4 860.1,194.7 871,194.7 871,185.4 880.5,185.4 880.5,194.7 891.4,194.7 891.4,185.4 900.8,185.4 900.8,194.7 
					911.7,194.7 911.7,185.4 921.2,185.4 921.2,194.7 932.1,194.7 932.1,185.4 941.6,185.4 941.6,194.7 952.5,194.7 952.5,185.4 
					962,185.4 962,194.7 972.9,194.7 972.9,185.4 982.4,185.4 982.4,194.7 993.3,194.7 993.3,185.4 1002.7,185.4 1002.7,194.7 
					1013.6,194.7 1013.6,185.4 1023.1,185.4 1023.1,194.7 1034,194.7 1034,185.4 1043.5,185.4 1043.5,194.7 1054.4,194.7 
					1054.4,185.4 1063.9,185.4 1063.9,194.7 1074.8,194.7 1074.8,185.4 1084.3,185.4 1084.3,194.7 1095.2,194.7 1095.2,185.4 
					1104.6,185.4 1104.6,194.7 1115.5,194.7 1115.5,185.4 1125,185.4 1125,194.7 1135.9,194.7 1135.9,185.4 1145.4,185.4 
					1145.4,194.7 1156.3,194.7 1156.3,185.4 1165.8,185.4 1165.8,194.7 1176.7,194.7 1176.7,185.4 1186.2,185.4 1186.2,194.7 
					1197.3,194.7 1197.3,51.8 				"/>
			</g>
		</g>
		<g>
			<g>
				<path fill="#827717" d="M1197.8,195.2h-12.2v-9.3h-8.5v9.3h-11.9v-9.3h-8.5v9.3h-11.9v-9.3h-8.5v9.3h-11.9v-9.3h-8.5v9.3h-11.9
					v-9.3h-8.5v9.3h-11.9v-9.3h-8.5v9.3h-11.9v-9.3h-8.5v9.3H1043v-9.3h-8.5v9.3h-11.9v-9.3h-8.5v9.3h-11.9v-9.3h-8.5v9.3h-11.9
					v-9.3h-8.5v9.3h-11.9v-9.3H953v9.3h-11.9v-9.3h-8.5v9.3h-11.9v-9.3h-8.5v9.3h-11.9v-9.3h-8.5v9.3H880v-9.3h-8.5v9.3h-11.9v-9.3
					h-8.5v9.3h-11.9v-9.3h-8.5v9.3h-12.2V51.3h12.2v8.5h8.5v-8.5h11.9v8.5h8.5v-8.5h11.9v8.5h8.5v-8.5h11.9v8.5h8.5v-8.5h11.9v8.5
					h8.5v-8.5h11.9v8.5h8.5v-8.5H953v8.5h8.5v-8.5h11.9v8.5h8.5v-8.5h11.9v8.5h8.5v-8.5h11.9v8.5h8.5v-8.5h11.9v8.5h8.5v-8.5h11.9
					v8.5h8.5v-8.5h11.9v8.5h8.5v-8.5h11.9v8.5h8.5v-8.5h11.9v8.5h8.5v-8.5h11.9v8.5h8.5v-8.5h11.9v8.5h8.5v-8.5h11.9v8.5h8.5v-8.5
					h12.2V195.2z M1186.7,194.2h10.2V52.3h-10.2v8.5h-10.5v-8.5h-9.9v8.5h-10.5v-8.5h-9.9v8.5h-10.5v-8.5h-9.9v8.5H1115v-8.5h-9.9
					v8.5h-10.5v-8.5h-9.9v8.5h-10.5v-8.5h-9.9v8.5h-10.5v-8.5h-9.9v8.5h-10.5v-8.5h-9.9v8.5h-10.5v-8.5h-9.9v8.5h-10.5v-8.5h-9.9
					v8.5h-10.5v-8.5h-9.9v8.5H952v-8.5h-9.9v8.5h-10.5v-8.5h-9.9v8.5h-10.5v-8.5h-9.9v8.5h-10.5v-8.5H881v8.5h-10.5v-8.5h-9.9v8.5
					h-10.5v-8.5h-9.9v8.5h-10.5v-8.5h-10.2v141.9h10.2v-9.3h10.5v9.3h9.9v-9.3h10.5v9.3h9.9v-9.3H881v9.3h9.9v-9.3h10.5v9.3h9.9
					v-9.3h10.5v9.3h9.9v-9.3h10.5v9.3h9.9v-9.3h10.5v9.3h9.9v-9.3h10.5v9.3h9.9v-9.3h10.5v9.3h9.9v-9.3h10.5v9.3h9.9v-9.3h10.5v9.3
					h9.9v-9.3h10.5v9.3h9.9v-9.3h10.5v9.3h9.9v-9.3h10.5v9.3h9.9v-9.3h10.5v9.3h9.9v-9.3h10.5v9.3h9.9v-9.3h10.5v9.3h9.9v-9.3h10.5
					V194.2z"/>
			</g>
		</g>
	</g>
	<g>
		<g>
			<path d="M1187.2,180.1H829.2V66.4h357.9V180.1z M831.2,178.1h353.9V68.4H831.2V178.1z"/>
		</g>
	</g>
	<g>
		<g>
			<path d="M941.8,86.2l-1.9,8.8h0.3c3.2,0,5.4-3.7,5.4-6.6c0-2.1-1.2-4-4.2-4c-6.2,0-10.3,3.5-10.3,9.2c0,1.9,0.5,2.2,0.5,2.6
				c-2.6,0-4.1-1-4.1-3.7c0-5.1,7-9.9,13.3-9.9c6,0,8.6,3,8.6,6.1c0,2.3-1.5,4.9-4.1,6.5c2,0.6,2.6,2,2.6,3.8c0,3.1-1.9,7.2-1.9,9.6
				c0,1.1,0.6,2.2,1.5,2.5c-1.6,0.5-2.8,0.6-3.8,0.6c-2.5,0-3-1.3-3-2.5c0-2.5,2-7.1,2-10c0-1.5-0.6-2.6-2.3-2.6
				c-0.3,0-0.8,0.1-1.3,0.2l-3,14.3H931l5.2-24.2L941.8,86.2z"/>
		</g>
		<g>
			<path d="M967.8,91c-0.7,0-1.3-0.2-1.7-0.8c1-0.6,1.7-2,1.7-3.3c0-1.3-0.7-2.5-2.8-2.5s-3.5,1.2-3.5,3.5c0,5.6,8.5,6.3,8.5,14.6
				c0,6.4-5.2,9.5-10.7,9.5c-4.3,0-8.1-1.9-8.1-6.5c0-4.1,2.9-6.2,5.6-6.2c1.3,0,3.2,0.5,3.3,2.5c-2.1,0-4.4,0.9-4.4,3.6
				c0,1.9,1.2,3.6,3.6,3.6c2.5,0,4.4-1.9,4.4-5.1c0-6.5-7.8-8.8-7.8-14.4c0-4,3.9-6.8,8.8-6.8c1.8,0,6.1,0.4,6.1,4.6
				C970.9,89.4,969.7,91,967.8,91z"/>
		</g>
		<g>
			<path d="M986.4,111.1H981l5-23.7h-3.6l0.5-1.7c2.1,0,5.1-0.2,9.7-3L986.4,111.1z"/>
		</g>
		<g>
			<path d="M1013.7,92.5c0,7.6-4.3,18.9-12.1,18.9c-6.5,0-7.9-3.7-7.9-10c0-10.4,5-18.8,13.2-18.8
				C1011.7,82.6,1013.7,86.1,1013.7,92.5z M999.5,102.5c0,2.8,0.4,5.7,2.2,5.7c4.3,0,6.9-9.3,6.9-18.2c0-3.1-0.3-5.5-2.1-5.5
				c-2.3,0-6.3,5.6-6.9,14.2C999.7,99.8,999.5,101.1,999.5,102.5z"/>
		</g>
		<g>
			<path d="M1035.2,92.5c0,7.6-4.3,18.9-12.1,18.9c-6.5,0-7.9-3.7-7.9-10c0-10.4,5-18.8,13.2-18.8
				C1033.2,82.6,1035.2,86.1,1035.2,92.5z M1021,102.5c0,2.8,0.4,5.7,2.2,5.7c4.3,0,6.9-9.3,6.9-18.2c0-3.1-0.3-5.5-2.1-5.5
				c-2.3,0-6.3,5.6-6.9,14.2C1021.2,99.8,1021,101.1,1021,102.5z"/>
		</g>
		<g>
			<path d="M1052.8,103.9c0,2.6,0.6,4.4,2.2,4.4c3.8,0,7.9-9.6,7.9-17.2c0-4.4-0.9-6.6-4.9-6.6c-5.8,0-10.9,3.7-10.9,9.8
				c0,1.5,0.4,1.7,0.4,2.1c-2.4,0-3.8-0.9-3.8-3.2c0-5.3,7.3-10.4,15.3-10.4c6.6,0,9,4.1,9,9.7c0,7.3-4.1,19-14,19
				c-4,0-6.8-2.1-6.8-7.6c0-6.2,3.5-17.8,10.3-17.8c0.6,0,1.3,0.1,2,0.3C1056,88.3,1052.8,98,1052.8,103.9z"/>
		</g>
		<g>
			<path d="M1086.4,94l-0.6,2.8h-5.5l-3.1,14.3h-5.5l5.5-25.4c-2.9,0.1-4.9,1.8-4.9,7.9c0,1.9,0.5,2.2,0.5,2.6c-2.6,0-4.1-1-4.1-3.7
				c0-5.1,3.6-9.9,13-9.9c1.5,0,3.9,0.5,6.3,0.5c1.2,0,2.4-0.1,3.4-0.5c-0.5,1.6-0.6,3.9-3.6,4.6c-1.7,0-3.6-0.3-5.3-0.7l-1.6,7.6
				H1086.4z"/>
		</g>
		<g>
			<path d="M1103.8,94l-0.6,2.8h-5.5l-3.1,14.3h-5.5l5.5-25.4c-2.9,0.1-4.9,1.8-4.9,7.9c0,1.9,0.5,2.2,0.5,2.6c-2.6,0-4.1-1-4.1-3.7
				c0-5.1,3.6-9.9,13-9.9c1.5,0,3.9,0.5,6.3,0.5c1.2,0,2.4-0.1,3.4-0.5c-0.5,1.6-0.6,3.9-3.6,4.6c-1.7,0-3.6-0.3-5.3-0.7l-1.6,7.6
				H1103.8z"/>
		</g>
	</g>
	<g>
		<g>
			<path d="M927.2,155c0,4.3-2.6,6.5-5.8,6.5c-3.3,0-5.6-2.5-5.6-6.3c0-3.9,2.4-6.5,5.8-6.5C925,148.7,927.2,151.3,927.2,155z
				 M917.5,155.2c0,2.6,1.4,5,4,5c2.5,0,4-2.3,4-5.2c0-2.5-1.3-5-4-5C918.9,150,917.5,152.5,917.5,155.2z"/>
			<path d="M921.4,162c-3.6,0-6.1-2.8-6.1-6.8c0-4.1,2.6-7,6.3-7c3.6,0,6.1,2.7,6.1,6.8C927.7,159.9,924.5,162,921.4,162z
				 M921.6,149.2c-3.1,0-5.3,2.5-5.3,6c0,3.5,2,5.8,5.1,5.8c3.2,0,5.3-2.4,5.3-6C926.7,151.5,924.6,149.2,921.6,149.2z M921.5,160.7
				c-2.9,0-4.5-2.8-4.5-5.5c0-2.8,1.4-5.7,4.5-5.7c2.9,0,4.5,2.8,4.5,5.5C926,158.4,924.1,160.7,921.5,160.7z M921.5,150.5
				c-2.4,0-3.5,2.3-3.5,4.7c0,2.2,1.1,4.5,3.5,4.5c2.4,0,3.5-2.3,3.5-4.7C925,152.9,923.9,150.5,921.5,150.5z"/>
		</g>
		<g>
			<path d="M929.2,161.3v-12.4h1.7l4,6.3c0.9,1.5,1.6,2.8,2.2,4l0,0c-0.1-1.7-0.2-3.2-0.2-5.1v-5.2h1.5v12.4h-1.6L933,155
				c-0.9-1.4-1.7-2.8-2.3-4.1l-0.1,0c0.1,1.6,0.1,3.1,0.1,5.1v5.3H929.2z"/>
			<path d="M939.1,161.8h-2.4l-4.1-6.5c-0.5-0.8-1-1.6-1.4-2.3c0,0.9,0,1.9,0,3v5.8h-2.5v-13.4h2.5l4.1,6.5c0.4,0.7,0.8,1.4,1.2,2
				c0-0.9,0-1.8,0-2.8v-5.7h2.5V161.8z M937.2,160.8h0.8v-11.4h-0.5v4.7c0,1.8,0,3.3,0.2,5.1l0,0.3l-0.8,0.4l-0.3-0.5
				c-0.6-1.3-1.3-2.6-2.2-4l-3.8-6h-1v11.4h0.5V156c0-2.1,0-3.6-0.1-5.1l0-0.4l0.8-0.3l0.2,0.4c0.5,1.1,1.3,2.4,2.3,4.1L937.2,160.8
				z"/>
		</g>
		<g>
			<path d="M945.3,149.1c0.8-0.1,1.8-0.2,3.1-0.2c1.6,0,2.7,0.4,3.5,1c0.7,0.6,1.1,1.5,1.1,2.6c0,1.1-0.3,2-1,2.6
				c-0.8,0.9-2.2,1.4-3.8,1.4c-0.5,0-0.9,0-1.3-0.1v5h-1.6V149.1z M946.9,155.1c0.3,0.1,0.8,0.1,1.3,0.1c1.9,0,3.1-0.9,3.1-2.6
				c0-1.6-1.2-2.4-2.9-2.4c-0.7,0-1.2,0.1-1.5,0.1V155.1z"/>
			<path d="M947.4,161.8h-2.6v-13.2l0.4-0.1c1-0.2,2-0.2,3.2-0.2c1.7,0,3,0.4,3.8,1.2c0.8,0.7,1.3,1.8,1.3,3c0,1.2-0.4,2.2-1.1,3
				c-0.9,1-2.4,1.5-4.1,1.5c-0.3,0-0.5,0-0.8,0V161.8z M945.8,160.8h0.6v-5.1l0.6,0.2c0.3,0.1,0.8,0.1,1.2,0.1
				c1.5,0,2.7-0.4,3.4-1.2c0.5-0.6,0.8-1.3,0.8-2.3c0-0.9-0.3-1.7-0.9-2.2c-0.7-0.6-1.7-0.9-3.2-0.9c-0.9,0-1.8,0.1-2.6,0.2V160.8z
				 M948.2,155.7c-0.6,0-1.1,0-1.5-0.1l-0.4-0.1v-5.6l0.4-0.1c0.3-0.1,0.9-0.1,1.6-0.1c2.1,0,3.4,1.1,3.4,2.9
				C951.8,154.5,950.4,155.7,948.2,155.7z M947.4,154.6c0.2,0,0.5,0,0.8,0c1,0,2.6-0.3,2.6-2.1c0-2.2-2.5-2-3.4-1.9V154.6z"/>
		</g>
		<g>
			<path d="M956.6,148.9v7.3c0,2.8,1.2,4,2.9,4c1.8,0,3-1.2,3-4v-7.3h1.6v7.2c0,3.8-2,5.4-4.7,5.4c-2.5,0-4.5-1.5-4.5-5.3v-7.3
				H956.6z"/>
			<path d="M959.5,162c-1.8,0-5-0.8-5-5.8v-7.8h2.6v7.8c0,1.6,0.4,3.5,2.4,3.5c1.7,0,2.5-1.2,2.5-3.5v-7.8h2.6v7.7
				C964.7,159.9,962.8,162,959.5,162z M955.5,149.4v6.8c0,3.2,1.3,4.8,4,4.8c2.7,0,4.2-1.7,4.2-4.9v-6.7h-0.6v6.8
				c0,3.9-2.2,4.5-3.5,4.5c-2.1,0-3.4-1.7-3.4-4.5v-6.8H955.5z"/>
		</g>
		<g>
			<path d="M967,149.1c0.8-0.2,2-0.3,3.1-0.3c1.7,0,2.8,0.3,3.6,1c0.6,0.6,1,1.4,1,2.4c0,1.6-1,2.7-2.3,3.2v0.1
				c1,0.3,1.5,1.2,1.8,2.5c0.4,1.7,0.7,2.9,1,3.4h-1.7c-0.2-0.3-0.5-1.4-0.8-3c-0.4-1.7-1-2.4-2.5-2.4h-1.5v5.4H967V149.1z
				 M968.6,154.7h1.6c1.7,0,2.8-0.9,2.8-2.4c0-1.6-1.2-2.3-2.9-2.3c-0.8,0-1.3,0.1-1.6,0.1V154.7z"/>
			<path d="M975.9,161.8h-2.8l-0.1-0.2c-0.2-0.4-0.5-1.2-0.9-3.1c-0.4-1.7-0.9-2-2-2l-1,0v5.4h-2.6v-13.1l0.4-0.1
				c0.8-0.2,2-0.3,3.2-0.3c1.8,0,3.1,0.4,3.9,1.1c0.7,0.6,1.1,1.6,1.1,2.7c0,1.4-0.7,2.5-1.8,3.2c0.6,0.5,1,1.3,1.3,2.4
				c0.4,1.5,0.7,2.8,0.9,3.3L975.9,161.8z M973.7,160.8h0.6c-0.2-0.6-0.4-1.5-0.7-2.8c-0.3-1.2-0.8-1.9-1.5-2.1l-0.3-0.1v-0.7
				l0.3-0.2c1.3-0.4,2-1.4,2-2.7c0-0.8-0.3-1.5-0.8-2c-0.7-0.6-1.7-0.9-3.3-0.9c-0.9,0-1.9,0.1-2.6,0.2v11.3h0.6v-5.4h2
				c1.7,0.1,2.6,0.9,3,2.8C973.2,158.8,973.5,160.2,973.7,160.8z M970.2,155.2h-2.1v-5.4l0.4-0.1c0.4-0.1,1-0.2,1.7-0.2h0
				c2.1,0,3.3,1.1,3.3,2.8C973.5,154.1,972.2,155.2,970.2,155.2z M969.1,154.2h1.1c1.4,0,2.3-0.7,2.3-1.9c0-1.2-0.8-1.8-2.4-1.8
				c-0.5,0-0.8,0-1.1,0.1V154.2z"/>
		</g>
		<g>
			<path d="M985.6,160.9c-0.6,0.3-1.8,0.6-3.3,0.6c-3.5,0-6.1-2.2-6.1-6.3c0-3.9,2.6-6.5,6.5-6.5c1.5,0,2.5,0.3,2.9,0.6l-0.4,1.3
				c-0.6-0.3-1.5-0.5-2.5-0.5c-2.9,0-4.8,1.9-4.8,5.1c0,3,1.7,5,4.8,5c1,0,2-0.2,2.6-0.5L985.6,160.9z"/>
			<path d="M982.3,162c-4,0-6.6-2.7-6.6-6.8c0-4.1,2.9-7,7-7c1.8,0,2.8,0.4,3.2,0.6l0.4,0.2l-0.7,2.3L985,151
				c-0.4-0.2-1.1-0.5-2.3-0.5c-2.7,0-4.3,1.7-4.3,4.6c0,2.8,1.6,4.5,4.3,4.5c0.9,0,1.8-0.2,2.4-0.5l0.5-0.3l0.6,2.3l-0.4,0.2
				C985.2,161.7,983.9,162,982.3,162z M982.6,149.2c-3.6,0-6,2.4-6,6c0,3.6,2.2,5.8,5.6,5.8c1.2,0,2.1-0.2,2.7-0.4l-0.1-0.3
				c-0.7,0.2-1.5,0.3-2.3,0.3c-3.2,0-5.3-2.1-5.3-5.5c0-3.5,2-5.6,5.3-5.6c0.8,0,1.5,0.1,2.2,0.3l0.1-0.3
				C984.5,149.4,983.7,149.2,982.6,149.2z"/>
		</g>
		<g>
			<path d="M989.2,148.9v5.2h6v-5.2h1.6v12.4h-1.6v-5.8h-6v5.8h-1.6v-12.4H989.2z"/>
			<path d="M997.3,161.8h-2.6V156h-5v5.8h-2.6v-13.4h2.6v5.2h5v-5.2h2.6V161.8z M995.7,160.8h0.6v-11.4h-0.6v5.2h-7v-5.2h-0.6v11.4
				h0.6V155h7V160.8z"/>
		</g>
		<g>
			<path d="M1001.6,157.4l-1.3,3.9h-1.7l4.2-12.4h1.9l4.2,12.4h-1.7l-1.3-3.9H1001.6z M1005.7,156.2l-1.2-3.6
				c-0.3-0.8-0.5-1.5-0.6-2.3h0c-0.2,0.7-0.4,1.5-0.6,2.2l-1.2,3.6H1005.7z"/>
			<path d="M1009.7,161.8h-2.8l-1.3-3.9h-3.7l-1.3,3.9h-2.7l4.6-13.4h2.6L1009.7,161.8z M1007.7,160.8h0.7l-3.9-11.4h-1.2l-3.9,11.4
				h0.6l1.3-3.9h5.1L1007.7,160.8z M1006.4,156.7h-5.1l1.4-4.2c0.2-0.6,0.4-1.3,0.6-2.2l0.1-0.4h0.8l0.1,0.5
				c0.2,0.7,0.3,1.3,0.6,2.1L1006.4,156.7z M1002.6,155.7h2.3l-1-2.9c-0.1-0.2-0.1-0.4-0.2-0.6c-0.1,0.2-0.1,0.4-0.2,0.6
				L1002.6,155.7z"/>
		</g>
		<g>
			<path d="M1010.6,159.4c0.7,0.4,1.8,0.8,2.9,0.8c1.6,0,2.6-0.9,2.6-2.1c0-1.2-0.7-1.8-2.3-2.5c-2-0.7-3.3-1.8-3.3-3.5
				c0-1.9,1.6-3.4,4-3.4c1.3,0,2.2,0.3,2.7,0.6l-0.4,1.3c-0.4-0.2-1.2-0.6-2.4-0.6c-1.7,0-2.3,1-2.3,1.9c0,1.2,0.8,1.7,2.5,2.4
				c2.1,0.8,3.2,1.8,3.2,3.6c0,1.9-1.4,3.6-4.3,3.6c-1.2,0-2.5-0.3-3.2-0.8L1010.6,159.4z"/>
			<path d="M1013.4,162c-1.3,0-2.7-0.4-3.4-0.9l-0.3-0.2l0.7-2.3l0.6,0.3c0.7,0.5,1.7,0.7,2.6,0.7c1.3,0,2.1-0.6,2.1-1.6
				c0-0.8-0.3-1.3-2-2c-2.4-0.9-3.6-2.2-3.6-4c0-2.2,1.9-3.9,4.5-3.9c1.6,0,2.5,0.4,3,0.7l0.4,0.2l-0.8,2.3l-0.5-0.3
				c-0.4-0.2-1.2-0.5-2.1-0.5c-1.4,0-1.8,0.7-1.8,1.4c0,0.7,0.3,1.2,2.1,1.9c1.7,0.7,3.5,1.7,3.5,4.1
				C1018.2,160,1016.7,162,1013.4,162z M1010.8,160.5c0.6,0.3,1.6,0.5,2.6,0.5c2.8,0,3.8-1.6,3.8-3.1c0-1.5-0.8-2.4-2.8-3.2
				c-1.8-0.7-2.8-1.4-2.8-2.9c0-1.1,0.9-2.4,2.8-2.4c0.8,0,1.5,0.2,2.1,0.4l0.1-0.4c-0.4-0.2-1.1-0.4-2.1-0.4
				c-2.1,0-3.5,1.2-3.5,2.9c0,1.4,0.9,2.3,2.9,3c1.4,0.5,2.7,1.3,2.7,2.9c0,1.6-1.2,2.6-3.1,2.6c-0.9,0-1.8-0.2-2.6-0.6
				L1010.8,160.5z"/>
		</g>
		<g>
			<path d="M1026.3,155.5h-4.8v4.5h5.4v1.3h-7v-12.4h6.7v1.3h-5.1v3.9h4.8V155.5z"/>
			<path d="M1027.4,161.8h-8v-13.4h7.7v2.3h-5.1v2.9h4.8v2.3h-4.8v3.5h5.4V161.8z M1020.4,160.8h6v-0.3h-5.4V155h4.8v-0.3h-4.8v-4.9
				h5.1v-0.3h-5.7V160.8z"/>
		</g>
		<g>
			<path d="M1034.9,157.4l-1.3,3.9h-1.7l4.2-12.4h1.9l4.2,12.4h-1.7l-1.3-3.9H1034.9z M1038.9,156.2l-1.2-3.6
				c-0.3-0.8-0.5-1.5-0.6-2.3h0c-0.2,0.7-0.4,1.5-0.6,2.2l-1.2,3.6H1038.9z"/>
			<path d="M1043,161.8h-2.8l-1.3-3.9h-3.7l-1.3,3.9h-2.7l4.6-13.4h2.6L1043,161.8z M1041,160.8h0.7l-3.9-11.4h-1.2l-3.9,11.4h0.6
				l1.3-3.9h5.1L1041,160.8z M1039.6,156.7h-5.1l1.4-4.2c0.2-0.6,0.4-1.3,0.6-2.2l0.1-0.4h0.8l0.1,0.5c0.2,0.7,0.3,1.3,0.6,2.1
				L1039.6,156.7z M1035.9,155.7h2.3l-1-2.9c-0.1-0.2-0.1-0.4-0.2-0.6c-0.1,0.2-0.1,0.4-0.2,0.6L1035.9,155.7z"/>
		</g>
		<g>
			<path d="M1044.1,149.1c0.7-0.1,1.8-0.3,2.9-0.3c1.6,0,2.6,0.3,3.4,0.9c0.6,0.5,1,1.2,1,2.2c0,1.2-0.8,2.2-2.1,2.7v0
				c1.2,0.3,2.6,1.3,2.6,3.1c0,1.1-0.4,1.9-1,2.5c-0.9,0.8-2.3,1.2-4.3,1.2c-1.1,0-2-0.1-2.5-0.1V149.1z M1045.7,154.2h1.5
				c1.7,0,2.7-0.9,2.7-2.1c0-1.5-1.1-2-2.7-2c-0.7,0-1.2,0.1-1.4,0.1V154.2z M1045.7,160.1c0.3,0.1,0.8,0.1,1.3,0.1
				c1.7,0,3.2-0.6,3.2-2.4c0-1.7-1.5-2.4-3.2-2.4h-1.3V160.1z"/>
			<path d="M1046.6,161.9c-1.3,0-2.1-0.1-2.6-0.2l-0.4-0.1v-13l0.4-0.1c0.8-0.2,1.9-0.3,3-0.3c1.7,0,2.9,0.3,3.7,1
				c0.8,0.6,1.2,1.5,1.2,2.6c0,1.1-0.5,2-1.4,2.7c1,0.6,1.9,1.6,1.9,3.2c0,1.1-0.4,2.1-1.2,2.8
				C1050.3,161.5,1048.8,161.9,1046.6,161.9z M1044.6,160.8c0.5,0,1.1,0.1,2,0.1c1.9,0,3.2-0.3,4-1c0.6-0.6,0.9-1.3,0.9-2.1
				c0-2-1.8-2.5-2.2-2.6l-0.4-0.1v-0.7l0.3-0.2c1.1-0.4,1.8-1.3,1.8-2.3c0-0.8-0.3-1.4-0.8-1.8c-0.7-0.6-1.6-0.8-3.1-0.8
				c-0.8,0-1.7,0.1-2.4,0.2V160.8z M1047.1,160.7c-0.7,0-1.1,0-1.4-0.1l-0.4-0.1v-5.6h1.8c2.3,0,3.7,1.1,3.7,2.9
				C1050.8,159.6,1049.4,160.7,1047.1,160.7z M1046.2,159.7c0.2,0,0.5,0,0.8,0c1.2,0,2.7-0.3,2.7-1.9c0-1.6-1.7-1.9-2.7-1.9h-0.8
				V159.7z M1047.2,154.7h-2v-4.9l0.4-0.1c0.4-0.1,0.9-0.1,1.5-0.1c2.8,0,3.2,1.6,3.2,2.5C1050.4,153.6,1049.1,154.7,1047.2,154.7z
				 M1046.2,153.7h1c1.3,0,2.2-0.6,2.2-1.6c0-0.4,0-1.5-2.2-1.5c-0.4,0-0.7,0-0.9,0V153.7z"/>
		</g>
		<g>
			<path d="M1064.7,155c0,4.3-2.6,6.5-5.8,6.5c-3.3,0-5.6-2.5-5.6-6.3c0-3.9,2.4-6.5,5.8-6.5C1062.5,148.7,1064.7,151.3,1064.7,155z
				 M1055.1,155.2c0,2.6,1.4,5,4,5c2.5,0,4-2.3,4-5.2c0-2.5-1.3-5-4-5C1056.4,150,1055.1,152.5,1055.1,155.2z"/>
			<path d="M1058.9,162c-3.6,0-6.1-2.8-6.1-6.8c0-4.1,2.6-7,6.3-7c3.6,0,6.1,2.7,6.1,6.8C1065.2,159.9,1062.1,162,1058.9,162z
				 M1059.1,149.2c-3.1,0-5.3,2.5-5.3,6c0,3.5,2,5.8,5.1,5.8c3.2,0,5.3-2.4,5.3-6C1064.2,151.5,1062.2,149.2,1059.1,149.2z
				 M1059,160.7c-2.9,0-4.5-2.8-4.5-5.5c0-2.8,1.4-5.7,4.5-5.7c2.9,0,4.5,2.8,4.5,5.5C1063.5,158.4,1061.7,160.7,1059,160.7z
				 M1059.1,150.5c-2.4,0-3.5,2.3-3.5,4.7c0,2.2,1.1,4.5,3.5,4.5c2.4,0,3.5-2.3,3.5-4.7C1062.5,152.9,1061.4,150.5,1059.1,150.5z"/>
		</g>
		<g>
			<path d="M1069.5,161.3l-4-12.4h1.7l1.9,6.1c0.5,1.7,1,3.2,1.3,4.6h0c0.3-1.4,0.9-3,1.4-4.6l2.1-6.1h1.7l-4.4,12.4H1069.5z"/>
			<path d="M1071.6,161.8h-2.5l-4.4-13.4h2.8l2,6.5c0.3,1.1,0.6,2,0.9,2.9c0.3-1,0.6-2,0.9-2.9l2.2-6.5h2.8L1071.6,161.8z
				 M1069.9,160.8h1.1l4.1-11.4h-0.6l-2,5.8c-0.5,1.4-1,3.1-1.4,4.6l-0.1,0.4h-0.8l-0.1-0.4c-0.3-1.4-0.8-2.8-1.3-4.6l-1.8-5.8h-0.7
				L1069.9,160.8z"/>
		</g>
		<g>
			<path d="M1083.5,155.5h-4.8v4.5h5.4v1.3h-7v-12.4h6.7v1.3h-5.1v3.9h4.8V155.5z"/>
			<path d="M1084.5,161.8h-8v-13.4h7.7v2.3h-5.1v2.9h4.8v2.3h-4.8v3.5h5.4V161.8z M1077.6,160.8h6v-0.3h-5.4V155h4.8v-0.3h-4.8v-4.9
				h5.1v-0.3h-5.7V160.8z"/>
		</g>
		<g>
			<path d="M1096.6,150.7h-4.6l-0.5,3.1c0.3,0,0.5-0.1,1-0.1c0.9,0,1.8,0.2,2.6,0.6c0.9,0.5,1.7,1.6,1.7,3.1c0,2.3-1.9,4.1-4.5,4.1
				c-1.3,0-2.4-0.4-3-0.7l0.4-1.2c0.5,0.3,1.5,0.7,2.6,0.7c1.5,0,2.8-1,2.8-2.6c0-1.5-1-2.6-3.4-2.6c-0.7,0-1.2,0.1-1.7,0.1l0.8-5.7
				h5.7V150.7z"/>
			<path d="M1092.4,162c-1.5,0-2.6-0.4-3.3-0.8l-0.3-0.2l0.7-2.2l0.5,0.3c0.5,0.3,1.3,0.6,2.3,0.6c1.2,0,2.3-0.7,2.3-2.1
				c0-1.8-1.6-2.1-2.9-2.1c-0.6,0-1.1,0.1-1.5,0.1l-0.6,0.1l0-0.6l0.8-6.2h6.7v2.4h-4.6l-0.3,2c0.1,0,0.2,0,0.4,0
				c1.1,0,2.1,0.2,2.8,0.7c1.2,0.7,2,2,2,3.5C1097.3,160.1,1095.2,162,1092.4,162z M1090,160.6c0.5,0.2,1.4,0.5,2.4,0.5
				c2.3,0,4-1.5,4-3.6c0-1.1-0.5-2.1-1.5-2.6c-0.6-0.4-1.5-0.6-2.3-0.6c-0.4,0-0.6,0-0.9,0.1l-0.7,0.1l0.1-0.7l0.5-3.5h4.5v-0.4
				h-4.8l-0.6,4.7c0.3,0,0.7-0.1,1.1-0.1c3.5,0,3.9,2.2,3.9,3.1c0,1.8-1.4,3.1-3.3,3.1c-0.9,0-1.7-0.2-2.3-0.5L1090,160.6z"/>
		</g>
		<g>
			<path d="M1106.8,155.2c0,4.1-1.5,6.3-4.2,6.3c-2.3,0-3.9-2.2-4-6.1c0-4,1.7-6.2,4.2-6.2C1105.4,149.2,1106.8,151.4,1106.8,155.2z
				 M1100.3,155.4c0,3.1,1,4.9,2.4,4.9c1.7,0,2.4-1.9,2.4-5c0-2.9-0.8-4.9-2.4-4.9C1101.4,150.4,1100.3,152.1,1100.3,155.4z"/>
			<path d="M1102.7,162c-2.7,0-4.4-2.5-4.5-6.6c0-4.1,1.8-6.7,4.7-6.7c2.8,0,4.5,2.5,4.5,6.6C1107.3,159.5,1105.6,162,1102.7,162z
				 M1102.9,149.7c-2.3,0-3.7,2.2-3.7,5.7c0,3.5,1.3,5.6,3.5,5.6c3.2,0,3.7-3.6,3.7-5.8C1106.3,151.7,1105.1,149.7,1102.9,149.7z
				 M1102.8,160.8c-1.8,0-2.9-2-2.9-5.4c0-4,1.5-5.5,2.9-5.5c1.1,0,2.9,0.7,2.9,5.4C1105.7,160.1,1103.9,160.8,1102.8,160.8z
				 M1102.8,150.9c-1.2,0-1.9,1.8-1.9,4.5c0,2.7,0.7,4.4,1.9,4.4c1.8,0,1.9-3.1,1.9-4.5C1104.7,153.7,1104.5,150.9,1102.8,150.9z"/>
		</g>
		<g>
			<path d="M1116.3,155.2c0,4.1-1.5,6.3-4.2,6.3c-2.3,0-3.9-2.2-4-6.1c0-4,1.7-6.2,4.2-6.2C1114.8,149.2,1116.3,151.4,1116.3,155.2z
				 M1109.8,155.4c0,3.1,1,4.9,2.4,4.9c1.7,0,2.4-1.9,2.4-5c0-2.9-0.8-4.9-2.4-4.9C1110.8,150.4,1109.8,152.1,1109.8,155.4z"/>
			<path d="M1112.1,162c-2.7,0-4.4-2.5-4.5-6.6c0-4.1,1.8-6.7,4.7-6.7c2.8,0,4.5,2.5,4.5,6.6C1116.8,159.5,1115.1,162,1112.1,162z
				 M1112.3,149.7c-2.3,0-3.7,2.2-3.7,5.7c0,3.5,1.3,5.6,3.5,5.6c3.2,0,3.7-3.6,3.7-5.8C1115.8,151.7,1114.5,149.7,1112.3,149.7z
				 M1112.2,160.8c-1.8,0-2.9-2-2.9-5.4c0-4,1.5-5.5,2.9-5.5c1.1,0,2.9,0.7,2.9,5.4C1115.2,160.1,1113.3,160.8,1112.2,160.8z
				 M1112.2,150.9c-1.2,0-1.9,1.8-1.9,4.5c0,2.7,0.7,4.4,1.9,4.4c1.8,0,1.9-3.1,1.9-4.5C1114.2,153.7,1113.9,150.9,1112.2,150.9z"/>
		</g>
	</g>
	<g>
		<g>
			<rect x="849.3" y="126.4" width="317.8" height="2"/>
		</g>
	</g>
	<g>
		<g>
			<path fill="none" d="M1165.1,154.5"/>
		</g>
		<g>
			<path fill="none" d="M1093.5,154.5"/>
		</g>
	</g>
</g>
<g>
	<g opacity="0.7">
		<image overflow="visible" width="451" height="215" xlink:href="715B6DD4.png"  transform="matrix(1 0 0 1 789 231)">
		</image>
	</g>
	<g>
		<g>
			<g>
				<polygon fill="#6AB6E5" points="1186.2,258.4 1186.2,266.9 1176.7,266.9 1176.7,258.4 1165.8,258.4 1165.8,266.9 1156.3,266.9 
					1156.3,258.4 1145.4,258.4 1145.4,266.9 1135.9,266.9 1135.9,258.4 1125,258.4 1125,266.9 1115.5,266.9 1115.5,258.4 
					1104.6,258.4 1104.6,266.9 1095.2,266.9 1095.2,258.4 1084.3,258.4 1084.3,266.9 1074.8,266.9 1074.8,258.4 1063.9,258.4 
					1063.9,266.9 1054.4,266.9 1054.4,258.4 1043.5,258.4 1043.5,266.9 1034,266.9 1034,258.4 1023.1,258.4 1023.1,266.9 
					1013.6,266.9 1013.6,258.4 1002.7,258.4 1002.7,266.9 993.3,266.9 993.3,258.4 982.4,258.4 982.4,266.9 972.9,266.9 
					972.9,258.4 962,258.4 962,266.9 952.5,266.9 952.5,258.4 941.6,258.4 941.6,266.9 932.1,266.9 932.1,258.4 921.2,258.4 
					921.2,266.9 911.7,266.9 911.7,258.4 900.8,258.4 900.8,266.9 891.4,266.9 891.4,258.4 880.5,258.4 880.5,266.9 871,266.9 
					871,258.4 860.1,258.4 860.1,266.9 850.6,266.9 850.6,258.4 839.7,258.4 839.7,266.9 830.2,266.9 830.2,258.4 819.1,258.4 
					819.1,401.3 830.2,401.3 830.2,392 839.7,392 839.7,401.3 850.6,401.3 850.6,392 860.1,392 860.1,401.3 871,401.3 871,392 
					880.5,392 880.5,401.3 891.4,401.3 891.4,392 900.8,392 900.8,401.3 911.7,401.3 911.7,392 921.2,392 921.2,401.3 932.1,401.3 
					932.1,392 941.6,392 941.6,401.3 952.5,401.3 952.5,392 962,392 962,401.3 972.9,401.3 972.9,392 982.4,392 982.4,401.3 
					993.3,401.3 993.3,392 1002.7,392 1002.7,401.3 1013.6,401.3 1013.6,392 1023.1,392 1023.1,401.3 1034,401.3 1034,392 
					1043.5,392 1043.5,401.3 1054.4,401.3 1054.4,392 1063.9,392 1063.9,401.3 1074.8,401.3 1074.8,392 1084.3,392 1084.3,401.3 
					1095.2,401.3 1095.2,392 1104.6,392 1104.6,401.3 1115.5,401.3 1115.5,392 1125,392 1125,401.3 1135.9,401.3 1135.9,392 
					1145.4,392 1145.4,401.3 1156.3,401.3 1156.3,392 1165.8,392 1165.8,401.3 1176.7,401.3 1176.7,392 1186.2,392 1186.2,401.3 
					1197.3,401.3 1197.3,258.4 				"/>
			</g>
		</g>
		<g>
			<g>
				<path fill="#827717" d="M1197.8,401.8h-12.2v-9.3h-8.5v9.3h-11.9v-9.3h-8.5v9.3h-11.9v-9.3h-8.5v9.3h-11.9v-9.3h-8.5v9.3h-11.9
					v-9.3h-8.5v9.3h-11.9v-9.3h-8.5v9.3h-11.9v-9.3h-8.5v9.3H1043v-9.3h-8.5v9.3h-11.9v-9.3h-8.5v9.3h-11.9v-9.3h-8.5v9.3h-11.9
					v-9.3h-8.5v9.3h-11.9v-9.3H953v9.3h-11.9v-9.3h-8.5v9.3h-11.9v-9.3h-8.5v9.3h-11.9v-9.3h-8.5v9.3H880v-9.3h-8.5v9.3h-11.9v-9.3
					h-8.5v9.3h-11.9v-9.3h-8.5v9.3h-12.2V257.9h12.2v8.5h8.5v-8.5h11.9v8.5h8.5v-8.5h11.9v8.5h8.5v-8.5h11.9v8.5h8.5v-8.5h11.9v8.5
					h8.5v-8.5h11.9v8.5h8.5v-8.5H953v8.5h8.5v-8.5h11.9v8.5h8.5v-8.5h11.9v8.5h8.5v-8.5h11.9v8.5h8.5v-8.5h11.9v8.5h8.5v-8.5h11.9
					v8.5h8.5v-8.5h11.9v8.5h8.5v-8.5h11.9v8.5h8.5v-8.5h11.9v8.5h8.5v-8.5h11.9v8.5h8.5v-8.5h11.9v8.5h8.5v-8.5h11.9v8.5h8.5v-8.5
					h12.2V401.8z M1186.7,400.8h10.2V258.9h-10.2v8.5h-10.5v-8.5h-9.9v8.5h-10.5v-8.5h-9.9v8.5h-10.5v-8.5h-9.9v8.5H1115v-8.5h-9.9
					v8.5h-10.5v-8.5h-9.9v8.5h-10.5v-8.5h-9.9v8.5h-10.5v-8.5h-9.9v8.5h-10.5v-8.5h-9.9v8.5h-10.5v-8.5h-9.9v8.5h-10.5v-8.5h-9.9
					v8.5h-10.5v-8.5h-9.9v8.5H952v-8.5h-9.9v8.5h-10.5v-8.5h-9.9v8.5h-10.5v-8.5h-9.9v8.5h-10.5v-8.5H881v8.5h-10.5v-8.5h-9.9v8.5
					h-10.5v-8.5h-9.9v8.5h-10.5v-8.5h-10.2v141.9h10.2v-9.3h10.5v9.3h9.9v-9.3h10.5v9.3h9.9v-9.3H881v9.3h9.9v-9.3h10.5v9.3h9.9
					v-9.3h10.5v9.3h9.9v-9.3h10.5v9.3h9.9v-9.3h10.5v9.3h9.9v-9.3h10.5v9.3h9.9v-9.3h10.5v9.3h9.9v-9.3h10.5v9.3h9.9v-9.3h10.5v9.3
					h9.9v-9.3h10.5v9.3h9.9v-9.3h10.5v9.3h9.9v-9.3h10.5v9.3h9.9v-9.3h10.5v9.3h9.9v-9.3h10.5v9.3h9.9v-9.3h10.5v9.3h9.9v-9.3h10.5
					V400.8z"/>
			</g>
		</g>
	</g>
	<g>
		<g>
			<path d="M1187.2,386.7H829.2V273h357.9V386.7z M831.2,384.7h353.9V275H831.2V384.7z"/>
		</g>
	</g>
	<g>
		<g>
			<path d="M912.6,291.2l-2.4,11.1h0.4c4,0,6.8-4.7,6.8-8.4c0-2.7-1.5-5-5.3-5c-7.8,0-13,4.4-13,11.7c0,2.4,0.6,2.8,0.7,3.3
				c-3.3,0-5.1-1.2-5.1-4.7c0-6.4,8.8-12.5,16.8-12.5c7.6,0,10.9,3.7,10.9,7.7c0,2.9-1.9,6.3-5.2,8.2c2.5,0.7,3.3,2.5,3.3,4.8
				c0,3.9-2.4,9.2-2.4,12.1c0,1.4,0.7,2.7,1.9,3.2c-2,0.6-3.6,0.8-4.8,0.8c-3.1,0-3.7-1.6-3.7-3.2c0-3.2,2.5-9,2.5-12.6
				c0-1.9-0.7-3.3-2.9-3.3c-0.4,0-1,0-1.5,0.2l-3.8,18.1h-6.9l6.5-30.5L912.6,291.2z"/>
		</g>
		<g>
			<path d="M945.4,297.3c-0.8,0-1.5-0.3-2.2-1c1.3-0.8,2.2-2.5,2.2-4.1c0-1.7-1-3.2-3.5-3.2c-2.6,0-4.5,1.5-4.5,4.2
				c0,7.5,10.8,8,10.8,18.7c0,6.8-5,11.1-12.7,11.1c-3.8,0-10.6-0.8-10.6-7.7c0-4.5,3.4-6.9,7.1-6.9c2.2,0,3.5,0.7,3.9,2.4
				c-3.9,0.3-5.6,2-5.6,5.3c0,3.2,2.5,4.6,4.8,4.6c3.8,0,5.3-3.3,5.3-6.9c0-9-10.4-11-10.4-18.1c0-5,5.7-8.9,11.4-8.9
				c2.5,0,8.1,0.4,8.1,5.8C949.4,295.2,947.9,297.3,945.4,297.3z"/>
		</g>
		<g>
			<path d="M982,313.9c0,0.8,0,1.4,0,2.1c0,4.8-1,7.2-5.7,7.2c-5.2,0-7-1.7-11.9-1.7c-1.1,0-2.8,1-3.8,1.3c-0.1-0.5-0.1-1.1-0.1-1.5
				c0-10.5,15.8-15.3,15.8-28c0-2.4-1.5-3.9-2.9-3.9c-3.2,0-3.9,1.5-3.9,3.9c0,1.1,0.5,2.9,1.8,3.3c-1.2,1.1-2.5,1.6-3.7,1.6
				c-1.9,0-3.4-1.5-3.4-4.3c0-3.3,2.6-7.1,9.9-7.1c6.6,0,9.1,3.1,9.1,7.7c0,10.7-13.1,15.4-17.1,21.9c2.1,0,4.8,0.7,8.6,0.9
				C978.3,317.2,979.3,316.5,982,313.9z"/>
		</g>
		<g>
			<path d="M1011.3,299.2c0,9.6-5.4,23.9-15.3,23.9c-8.3,0-9.9-4.7-9.9-12.6c0-13.1,6.3-23.8,16.7-23.8
				C1008.8,286.7,1011.3,291.2,1011.3,299.2z M993.4,311.9c0,3.6,0.5,7.2,2.8,7.2c5.5,0,8.7-11.8,8.7-22.9c0-3.9-0.3-7-2.6-7
				c-2.9,0-7.9,7.1-8.7,17.9C993.6,308.4,993.4,310.1,993.4,311.9z"/>
		</g>
		<g>
			<path d="M1038.5,299.2c0,9.6-5.4,23.9-15.3,23.9c-8.3,0-9.9-4.7-9.9-12.6c0-13.1,6.3-23.8,16.7-23.8
				C1035.9,286.7,1038.5,291.2,1038.5,299.2z M1020.6,311.9c0,3.6,0.5,7.2,2.8,7.2c5.5,0,8.7-11.8,8.7-22.9c0-3.9-0.3-7-2.6-7
				c-2.9,0-7.9,7.1-8.7,17.9C1020.8,308.4,1020.6,310.1,1020.6,311.9z"/>
		</g>
		<g>
			<path d="M1060.6,311.3c0,4.1,1.2,7.8,3.8,7.8c4.1,0,8.8-11.4,8.8-20.4c0-5.3-1-9.8-7-9.8c-7.8,0-13,4.4-13,11.7
				c0,2.4,0.6,2.8,0.7,3.3c-3.3,0-5.1-1.2-5.1-4.7c0-6.4,8.8-12.5,16.8-12.5c9.5,0,13.2,4.7,13.2,13c0,9.4-5.8,23.4-14.4,23.4
				c-6.1,0-9.8-2.9-9.8-10.8c0-9,3.2-21.5,10.3-21.5c0.7,0,1.4,0.1,2.3,0.4C1063.1,296.4,1060.6,303.5,1060.6,311.3z"/>
		</g>
		<g>
			<path d="M1102.9,302.6l-1,3.6h-7.2l-3.6,16.6h-6.9l6.9-32.1c-3.7,0.2-6.2,2.3-6.2,9.9c0,2.4,0.6,2.8,0.7,3.3
				c-3.3,0-5.1-1.2-5.1-4.7c0-6.4,4.5-12.5,16.4-12.5c1.9,0,4.9,0.6,8,0.6c1.5,0,3-0.1,4.3-0.6c-0.7,2-0.8,4.9-4.6,5.8
				c-2.2,0-4.5-0.4-6.7-0.9l-2.4,11H1102.9z"/>
		</g>
		<g>
			<path d="M1126.6,302.6l-1,3.6h-7.2l-3.6,16.6h-6.9l6.9-32.1c-3.7,0.2-6.2,2.3-6.2,9.9c0,2.4,0.6,2.8,0.7,3.3
				c-3.3,0-5.1-1.2-5.1-4.7c0-6.4,4.5-12.5,16.4-12.5c1.9,0,4.9,0.6,8,0.6c1.5,0,3-0.1,4.3-0.6c-0.7,2-0.8,4.9-4.6,5.8
				c-2.2,0-4.5-0.4-6.7-0.9l-2.4,11H1126.6z"/>
		</g>
	</g>
	<g>
		<g>
			<path d="M919.2,362.4c0,4.3-2.6,6.5-5.8,6.5c-3.3,0-5.6-2.5-5.6-6.3c0-3.9,2.4-6.5,5.8-6.5C917,356.1,919.2,358.7,919.2,362.4z
				 M909.5,362.6c0,2.7,1.4,5,4,5c2.5,0,4-2.3,4-5.2c0-2.5-1.3-5-4-5C910.9,357.4,909.5,359.9,909.5,362.6z"/>
			<path d="M913.4,369.4c-3.6,0-6.1-2.8-6.1-6.8c0-4.1,2.6-7,6.3-7c3.6,0,6.1,2.7,6.1,6.8C919.7,367.3,916.5,369.4,913.4,369.4z
				 M913.6,356.6c-3.1,0-5.3,2.5-5.3,6c0,3.5,2,5.8,5.1,5.8c3.2,0,5.3-2.4,5.3-6C918.7,359,916.6,356.6,913.6,356.6z M913.5,368.1
				c-2.9,0-4.5-2.8-4.5-5.5c0-2.8,1.4-5.7,4.5-5.7c2.9,0,4.5,2.8,4.5,5.5C918,365.8,916.1,368.1,913.5,368.1z M913.5,357.9
				c-2.4,0-3.5,2.3-3.5,4.7c0,2.2,1.1,4.5,3.5,4.5c2.4,0,3.5-2.3,3.5-4.7C917,360.3,915.9,357.9,913.5,357.9z"/>
		</g>
		<g>
			<path d="M921.2,368.7v-12.4h1.7l4,6.3c0.9,1.5,1.6,2.8,2.2,4l0,0c-0.1-1.7-0.2-3.2-0.2-5.1v-5.2h1.5v12.4h-1.6l-3.9-6.3
				c-0.9-1.4-1.7-2.8-2.3-4.1l-0.1,0c0.1,1.6,0.1,3.1,0.1,5.1v5.3H921.2z"/>
			<path d="M931.1,369.2h-2.4l-4.1-6.5c-0.5-0.8-1-1.6-1.4-2.3c0,0.9,0,1.9,0,3v5.8h-2.5v-13.4h2.5l4.1,6.5c0.4,0.7,0.8,1.4,1.2,2
				c0-0.9,0-1.8,0-2.8v-5.7h2.5V369.2z M929.2,368.2h0.8v-11.4h-0.5v4.7c0,1.8,0,3.3,0.2,5.1l0,0.3l-0.8,0.4l-0.3-0.5
				c-0.6-1.3-1.3-2.6-2.2-4l-3.8-6h-1v11.4h0.5v-4.8c0-2.1,0-3.6-0.1-5.1l0-0.4l0.8-0.3l0.2,0.4c0.5,1.1,1.3,2.4,2.3,4.1
				L929.2,368.2z"/>
		</g>
		<g>
			<path d="M937.3,356.5c0.8-0.1,1.8-0.2,3.1-0.2c1.6,0,2.7,0.4,3.5,1c0.7,0.6,1.1,1.5,1.1,2.6c0,1.1-0.3,2-1,2.7
				c-0.8,0.9-2.2,1.4-3.8,1.4c-0.5,0-0.9,0-1.3-0.1v5h-1.6V356.5z M938.9,362.5c0.3,0.1,0.8,0.1,1.3,0.1c1.9,0,3.1-0.9,3.1-2.6
				c0-1.6-1.2-2.4-2.9-2.4c-0.7,0-1.2,0.1-1.5,0.1V362.5z"/>
			<path d="M939.4,369.2h-2.6v-13.2l0.4-0.1c1-0.2,2-0.2,3.2-0.2c1.7,0,3,0.4,3.8,1.2c0.8,0.7,1.3,1.8,1.3,3c0,1.2-0.4,2.2-1.1,3
				c-1,1.1-2.9,1.7-4.9,1.5V369.2z M937.8,368.2h0.6v-5.1l0.6,0.2c0.3,0.1,0.8,0.1,1.2,0.1c1.5,0,2.7-0.4,3.4-1.2
				c0.5-0.6,0.8-1.3,0.8-2.3c0-0.9-0.3-1.7-0.9-2.2c-0.7-0.6-1.7-0.9-3.2-0.9c-0.9,0-1.8,0.1-2.6,0.2V368.2z M940.2,363.1
				c-0.6,0-1.1,0-1.5-0.1l-0.4-0.1v-5.6l0.4-0.1c0.3-0.1,0.9-0.1,1.6-0.1c2.1,0,3.4,1.1,3.4,2.9
				C943.8,361.9,942.4,363.1,940.2,363.1z M939.4,362c0.2,0,0.5,0,0.8,0c1,0,2.6-0.3,2.6-2.1c0-2.2-2.5-2-3.4-1.9V362z"/>
		</g>
		<g>
			<path d="M948.6,356.3v7.3c0,2.8,1.2,4,2.9,4c1.8,0,3-1.2,3-4v-7.3h1.6v7.2c0,3.8-2,5.4-4.7,5.4c-2.5,0-4.5-1.5-4.5-5.3v-7.3
				H948.6z"/>
			<path d="M951.5,369.4c-1.8,0-5-0.8-5-5.8v-7.8h2.6v7.8c0,1.6,0.4,3.5,2.4,3.5c1.7,0,2.5-1.2,2.5-3.5v-7.8h2.6v7.7
				C956.7,367.3,954.8,369.4,951.5,369.4z M947.5,356.8v6.8c0,3.2,1.3,4.8,4,4.8c2.7,0,4.2-1.7,4.2-4.9v-6.7h-0.6v6.8
				c0,3.9-2.2,4.5-3.5,4.5c-2.1,0-3.4-1.7-3.4-4.5v-6.8H947.5z"/>
		</g>
		<g>
			<path d="M959,356.5c0.8-0.2,2-0.3,3.1-0.3c1.7,0,2.8,0.3,3.6,1c0.6,0.6,1,1.4,1,2.4c0,1.6-1,2.7-2.3,3.2v0.1
				c1,0.3,1.5,1.2,1.8,2.5c0.4,1.7,0.7,2.9,1,3.4h-1.7c-0.2-0.3-0.5-1.4-0.8-3c-0.4-1.7-1-2.4-2.5-2.4h-1.5v5.4H959V356.5z
				 M960.6,362.1h1.6c1.7,0,2.8-0.9,2.8-2.4c0-1.6-1.2-2.3-2.9-2.3c-0.8,0-1.3,0.1-1.6,0.1V362.1z"/>
			<path d="M967.9,369.2h-2.8l-0.1-0.2c-0.2-0.4-0.5-1.2-0.9-3.1c-0.4-1.7-0.9-2-2-2h-1v5.4h-2.6v-13.1l0.4-0.1
				c0.8-0.2,2-0.3,3.2-0.3c1.8,0,3.1,0.4,3.9,1.1c0.7,0.6,1.1,1.6,1.1,2.7c0,1.4-0.7,2.5-1.8,3.2c0.6,0.5,1,1.3,1.3,2.4
				c0.4,1.5,0.7,2.8,0.9,3.3L967.9,369.2z M965.7,368.2h0.6c-0.2-0.6-0.4-1.5-0.7-2.8c-0.3-1.2-0.8-1.9-1.5-2.1l-0.3-0.1v-0.7
				l0.3-0.2c0.6-0.2,2-0.9,2-2.7c0-0.8-0.3-1.5-0.8-2c-0.7-0.6-1.7-0.9-3.3-0.9c-0.9,0-1.9,0.1-2.6,0.2v11.3h0.6v-5.4h2
				c1.7,0.1,2.6,0.9,3,2.8C965.2,366.2,965.5,367.6,965.7,368.2z M962.2,362.6h-2.1v-5.4l0.4-0.1c0.4-0.1,1-0.2,1.7-0.2h0
				c2.1,0,3.3,1,3.3,2.8C965.5,361.5,964.2,362.6,962.2,362.6z M961.1,361.6h1.1c1.4,0,2.3-0.7,2.3-1.9c0-1.2-0.8-1.8-2.4-1.8
				c-0.5,0-0.8,0-1.1,0.1V361.6z"/>
		</g>
		<g>
			<path d="M977.6,368.3c-0.6,0.3-1.8,0.6-3.3,0.6c-3.5,0-6.1-2.2-6.1-6.3c0-3.9,2.6-6.5,6.5-6.5c1.5,0,2.5,0.3,2.9,0.6l-0.4,1.3
				c-0.6-0.3-1.5-0.5-2.5-0.5c-2.9,0-4.8,1.9-4.8,5.1c0,3,1.7,5,4.8,5c1,0,2-0.2,2.6-0.5L977.6,368.3z"/>
			<path d="M974.3,369.4c-4,0-6.6-2.7-6.6-6.8c0-4.1,2.9-7,7-7c1.8,0,2.8,0.4,3.2,0.6l0.4,0.2l-0.7,2.3l-0.5-0.3
				c-0.4-0.2-1.1-0.5-2.3-0.5c-2.7,0-4.3,1.7-4.3,4.6c0,2.8,1.6,4.5,4.3,4.5c0.9,0,1.8-0.2,2.4-0.5l0.5-0.3l0.6,2.3l-0.4,0.2
				C977.2,369.1,975.9,369.4,974.3,369.4z M974.6,356.6c-3.6,0-6,2.4-6,6c0,3.6,2.2,5.8,5.6,5.8c1.2,0,2.1-0.2,2.7-0.4l-0.1-0.3
				c-0.7,0.2-1.5,0.3-2.3,0.3c-3.2,0-5.3-2.1-5.3-5.5c0-3.5,2-5.6,5.3-5.6c0.8,0,1.5,0.1,2.2,0.3l0.1-0.3
				C976.5,356.8,975.7,356.6,974.6,356.6z"/>
		</g>
		<g>
			<path d="M981.2,356.3v5.2h6v-5.2h1.6v12.4h-1.6v-5.8h-6v5.8h-1.6v-12.4H981.2z"/>
			<path d="M989.3,369.2h-2.6v-5.8h-5v5.8h-2.6v-13.4h2.6v5.2h5v-5.2h2.6V369.2z M987.7,368.2h0.6v-11.4h-0.6v5.2h-7v-5.2h-0.6v11.4
				h0.6v-5.8h7V368.2z"/>
		</g>
		<g>
			<path d="M993.6,364.8l-1.3,3.9h-1.7l4.2-12.4h1.9l4.2,12.4h-1.7l-1.3-3.9H993.6z M997.7,363.6l-1.2-3.6c-0.3-0.8-0.5-1.5-0.6-2.3
				h0c-0.2,0.7-0.4,1.5-0.6,2.2l-1.2,3.6H997.7z"/>
			<path d="M1001.7,369.2H999l-1.3-3.9h-3.7l-1.3,3.9h-2.7l4.6-13.4h2.6L1001.7,369.2z M999.7,368.2h0.7l-3.9-11.4h-1.2l-3.9,11.4
				h0.6l1.3-3.9h5.1L999.7,368.2z M998.4,364.1h-5.1l1.4-4.2c0.2-0.6,0.4-1.3,0.6-2.2l0.1-0.4h0.8l0.1,0.5c0.2,0.7,0.3,1.3,0.6,2.1
				L998.4,364.1z M994.6,363.1h2.3l-1-2.9c-0.1-0.2-0.1-0.4-0.2-0.6c-0.1,0.2-0.1,0.4-0.2,0.6L994.6,363.1z"/>
		</g>
		<g>
			<path d="M1002.6,366.8c0.7,0.4,1.8,0.8,2.9,0.8c1.6,0,2.6-0.9,2.6-2.1c0-1.2-0.7-1.8-2.3-2.5c-2-0.7-3.3-1.8-3.3-3.5
				c0-1.9,1.6-3.4,4-3.4c1.3,0,2.2,0.3,2.7,0.6l-0.4,1.3c-0.4-0.2-1.2-0.6-2.4-0.6c-1.7,0-2.3,1-2.3,1.9c0,1.2,0.8,1.7,2.5,2.4
				c2.1,0.8,3.2,1.8,3.2,3.6c0,1.9-1.4,3.6-4.3,3.6c-1.2,0-2.5-0.3-3.2-0.8L1002.6,366.8z"/>
			<path d="M1005.4,369.4c-1.3,0-2.7-0.4-3.4-0.9l-0.3-0.2l0.7-2.3l0.6,0.3c0.7,0.5,1.7,0.7,2.6,0.7c1.3,0,2.1-0.6,2.1-1.6
				c0-0.8-0.3-1.3-2-2c-2.4-0.9-3.6-2.2-3.6-4c0-2.2,1.9-3.9,4.5-3.9c1.6,0,2.5,0.4,3,0.7l0.4,0.2l-0.8,2.3l-0.5-0.3
				c-0.4-0.2-1.2-0.5-2.1-0.5c-1.4,0-1.8,0.7-1.8,1.4c0,0.7,0.3,1.2,2.1,1.9c1.7,0.7,3.5,1.7,3.5,4.1
				C1010.2,367.4,1008.7,369.4,1005.4,369.4z M1002.8,367.9c0.6,0.3,1.6,0.5,2.6,0.5c2.8,0,3.8-1.6,3.8-3.1c0-1.5-0.8-2.4-2.8-3.2
				c-1.8-0.7-2.8-1.4-2.8-2.9c0-1.1,0.9-2.4,2.8-2.4c0.8,0,1.5,0.2,2.1,0.4l0.1-0.4c-0.4-0.2-1.1-0.4-2.1-0.4
				c-2.1,0-3.5,1.2-3.5,2.9c0,1.4,0.9,2.3,2.9,3c1.4,0.5,2.7,1.3,2.7,2.9c0,1.6-1.2,2.6-3.1,2.6c-0.9,0-1.8-0.2-2.6-0.6
				L1002.8,367.9z"/>
		</g>
		<g>
			<path d="M1018.3,362.9h-4.8v4.5h5.4v1.3h-7v-12.4h6.7v1.3h-5.1v3.9h4.8V362.9z"/>
			<path d="M1019.4,369.2h-8v-13.4h7.7v2.3h-5.1v2.9h4.8v2.3h-4.8v3.5h5.4V369.2z M1012.4,368.2h6v-0.3h-5.4v-5.5h4.8v-0.3h-4.8
				v-4.9h5.1v-0.3h-5.7V368.2z"/>
		</g>
		<g>
			<path d="M1026.9,364.8l-1.3,3.9h-1.7l4.2-12.4h1.9l4.2,12.4h-1.7l-1.3-3.9H1026.9z M1030.9,363.6l-1.2-3.6
				c-0.3-0.8-0.5-1.5-0.6-2.3h0c-0.2,0.7-0.4,1.5-0.6,2.2l-1.2,3.6H1030.9z"/>
			<path d="M1035,369.2h-2.8l-1.3-3.9h-3.7l-1.3,3.9h-2.7l4.6-13.4h2.6L1035,369.2z M1033,368.2h0.7l-3.9-11.4h-1.2l-3.9,11.4h0.6
				l1.3-3.9h5.1L1033,368.2z M1031.6,364.1h-5.1l1.4-4.2c0.2-0.6,0.4-1.3,0.6-2.2l0.1-0.4h0.8l0.1,0.5c0.2,0.7,0.3,1.3,0.6,2.1
				L1031.6,364.1z M1027.9,363.1h2.3l-1-2.9c-0.1-0.2-0.1-0.4-0.2-0.6c-0.1,0.2-0.1,0.4-0.2,0.6L1027.9,363.1z"/>
		</g>
		<g>
			<path d="M1036.1,356.5c0.7-0.1,1.8-0.3,2.9-0.3c1.6,0,2.6,0.3,3.4,0.9c0.6,0.5,1,1.2,1,2.2c0,1.2-0.8,2.2-2.1,2.7v0
				c1.2,0.3,2.6,1.3,2.6,3.1c0,1.1-0.4,1.9-1,2.5c-0.9,0.8-2.3,1.2-4.3,1.2c-1.1,0-2-0.1-2.5-0.1V356.5z M1037.7,361.6h1.5
				c1.7,0,2.7-0.9,2.7-2.1c0-1.5-1.1-2-2.7-2c-0.7,0-1.2,0.1-1.4,0.1V361.6z M1037.7,367.5c0.3,0.1,0.8,0.1,1.3,0.1
				c1.7,0,3.2-0.6,3.2-2.4c0-1.7-1.5-2.4-3.2-2.4h-1.3V367.5z"/>
			<path d="M1038.6,369.3c-1.3,0-2.1-0.1-2.6-0.2l-0.4-0.1v-13l0.4-0.1c0.8-0.2,1.9-0.3,3-0.3c1.7,0,2.9,0.3,3.7,1
				c0.8,0.6,1.2,1.5,1.2,2.6c0,1.1-0.5,2-1.4,2.7c1,0.6,1.9,1.6,1.9,3.2c0,1.1-0.4,2.1-1.2,2.8
				C1042.3,368.9,1040.8,369.3,1038.6,369.3z M1036.6,368.3c0.5,0,1.1,0.1,2,0.1c1.9,0,3.2-0.3,4-1c0.6-0.6,0.9-1.3,0.9-2.1
				c0-2-1.8-2.5-2.2-2.6l-0.4-0.1v-0.7l0.3-0.2c1.1-0.4,1.8-1.3,1.8-2.3c0-0.8-0.3-1.4-0.8-1.8c-0.7-0.6-1.6-0.8-3.1-0.8
				c-0.8,0-1.7,0.1-2.4,0.2V368.3z M1039.1,368.1c-0.7,0-1.1,0-1.4-0.1l-0.4-0.1v-5.6h1.8c2.3,0,3.7,1.1,3.7,2.9
				C1042.8,367,1041.4,368.1,1039.1,368.1z M1038.2,367.1c0.2,0,0.5,0,0.8,0c1.2,0,2.7-0.3,2.7-1.9c0-1.6-1.7-1.9-2.7-1.9h-0.8
				V367.1z M1039.2,362.1h-2v-4.9l0.4-0.1c0.4-0.1,0.9-0.1,1.5-0.1c2.8,0,3.2,1.6,3.2,2.5C1042.4,361,1041.1,362.1,1039.2,362.1z
				 M1038.2,361.1h1c1.3,0,2.2-0.6,2.2-1.6c0-0.4,0-1.5-2.2-1.5c-0.4,0-0.7,0-0.9,0V361.1z"/>
		</g>
		<g>
			<path d="M1056.7,362.4c0,4.3-2.6,6.5-5.8,6.5c-3.3,0-5.6-2.5-5.6-6.3c0-3.9,2.4-6.5,5.8-6.5
				C1054.5,356.1,1056.7,358.7,1056.7,362.4z M1047.1,362.6c0,2.7,1.4,5,4,5c2.5,0,4-2.3,4-5.2c0-2.5-1.3-5-4-5
				C1048.4,357.4,1047.1,359.9,1047.1,362.6z"/>
			<path d="M1050.9,369.4c-3.6,0-6.1-2.8-6.1-6.8c0-4.1,2.6-7,6.3-7c3.6,0,6.1,2.7,6.1,6.8C1057.2,367.3,1054.1,369.4,1050.9,369.4z
				 M1051.1,356.6c-3.1,0-5.3,2.5-5.3,6c0,3.5,2,5.8,5.1,5.8c3.2,0,5.3-2.4,5.3-6C1056.2,359,1054.2,356.6,1051.1,356.6z
				 M1051,368.1c-2.9,0-4.5-2.8-4.5-5.5c0-2.8,1.4-5.7,4.5-5.7c2.9,0,4.5,2.8,4.5,5.5C1055.5,365.8,1053.7,368.1,1051,368.1z
				 M1051.1,357.9c-2.4,0-3.5,2.3-3.5,4.7c0,2.2,1.1,4.5,3.5,4.5c2.4,0,3.5-2.3,3.5-4.7C1054.5,360.3,1053.4,357.9,1051.1,357.9z"/>
		</g>
		<g>
			<path d="M1061.5,368.7l-4-12.4h1.7l1.9,6.1c0.5,1.7,1,3.2,1.3,4.6h0c0.3-1.4,0.9-3,1.4-4.6l2.1-6.1h1.7l-4.4,12.4H1061.5z"/>
			<path d="M1063.6,369.2h-2.5l-4.4-13.4h2.8l2,6.5c0.3,1.1,0.6,2,0.9,2.9c0.3-1,0.6-2,0.9-2.9l2.2-6.5h2.8L1063.6,369.2z
				 M1061.9,368.2h1.1l4.1-11.4h-0.6l-2,5.8c-0.5,1.4-1,3.1-1.4,4.6l-0.1,0.4h-0.8l-0.1-0.4c-0.3-1.4-0.8-2.8-1.3-4.6l-1.8-5.8h-0.7
				L1061.9,368.2z"/>
		</g>
		<g>
			<path d="M1075.5,362.9h-4.8v4.5h5.4v1.3h-7v-12.4h6.7v1.3h-5.1v3.9h4.8V362.9z"/>
			<path d="M1076.5,369.2h-8v-13.4h7.7v2.3h-5.1v2.9h4.8v2.3h-4.8v3.5h5.4V369.2z M1069.6,368.2h6v-0.3h-5.4v-5.5h4.8v-0.3h-4.8
				v-4.9h5.1v-0.3h-5.7V368.2z"/>
		</g>
		<g>
			<path d="M1085,358.3L1085,358.3l-2.1,1.1l-0.3-1.2l2.6-1.4h1.4v12h-1.6V358.3z"/>
			<path d="M1087,369.2h-2.6v-10.1l-1.9,1l-0.6-2.2l3.1-1.6h2V369.2z M1085.5,368.2h0.6v-11h-0.8l-2.2,1.2l0.1,0.2l1.6-0.9h0.6
				l0,0.5V368.2z"/>
		</g>
		<g>
			<path d="M1098.8,362.6c0,4.1-1.5,6.3-4.2,6.3c-2.3,0-3.9-2.2-4-6.1c0-4,1.7-6.2,4.2-6.2C1097.4,356.6,1098.8,358.8,1098.8,362.6z
				 M1092.3,362.8c0,3.1,1,4.9,2.4,4.9c1.7,0,2.4-1.9,2.4-5c0-2.9-0.8-4.9-2.4-4.9C1093.4,357.8,1092.3,359.6,1092.3,362.8z"/>
			<path d="M1094.7,369.4c-2.7,0-4.4-2.5-4.5-6.6c0-4.1,1.8-6.7,4.7-6.7c2.8,0,4.5,2.5,4.5,6.6
				C1099.3,367,1097.6,369.4,1094.7,369.4z M1094.9,357.1c-2.3,0-3.7,2.2-3.7,5.7c0,3.5,1.3,5.6,3.5,5.6c3.2,0,3.7-3.6,3.7-5.8
				C1098.3,359.1,1097.1,357.1,1094.9,357.1z M1094.8,368.2c-1.8,0-2.9-2-2.9-5.4c0-4,1.5-5.5,2.9-5.5c1.1,0,2.9,0.7,2.9,5.4
				C1097.7,367.5,1095.9,368.2,1094.8,368.2z M1094.8,358.3c-1.2,0-1.9,1.8-1.9,4.5c0,2.7,0.7,4.4,1.9,4.4c1.8,0,1.9-3.1,1.9-4.5
				C1096.7,361.1,1096.5,358.3,1094.8,358.3z"/>
		</g>
		<g>
			<path d="M1108.3,362.6c0,4.1-1.5,6.3-4.2,6.3c-2.3,0-3.9-2.2-4-6.1c0-4,1.7-6.2,4.2-6.2C1106.8,356.6,1108.3,358.8,1108.3,362.6z
				 M1101.8,362.8c0,3.1,1,4.9,2.4,4.9c1.7,0,2.4-1.9,2.4-5c0-2.9-0.8-4.9-2.4-4.9C1102.8,357.8,1101.8,359.6,1101.8,362.8z"/>
			<path d="M1104.1,369.4c-2.7,0-4.4-2.5-4.5-6.6c0-4.1,1.8-6.7,4.7-6.7c2.8,0,4.5,2.5,4.5,6.6
				C1108.8,367,1107.1,369.4,1104.1,369.4z M1104.3,357.1c-2.3,0-3.7,2.2-3.7,5.7c0,3.5,1.3,5.6,3.5,5.6c3.2,0,3.7-3.6,3.7-5.8
				C1107.8,359.1,1106.5,357.1,1104.3,357.1z M1104.2,368.2c-1.8,0-2.9-2-2.9-5.4c0-4,1.5-5.5,2.9-5.5c1.1,0,2.9,0.7,2.9,5.4
				C1107.2,367.5,1105.3,368.2,1104.2,368.2z M1104.2,358.3c-1.2,0-1.9,1.8-1.9,4.5c0,2.7,0.7,4.4,1.9,4.4c1.8,0,1.9-3.1,1.9-4.5
				C1106.2,361.1,1105.9,358.3,1104.2,358.3z"/>
		</g>
		<g>
			<path d="M1117.7,362.6c0,4.1-1.5,6.3-4.2,6.3c-2.3,0-3.9-2.2-4-6.1c0-4,1.7-6.2,4.2-6.2C1116.3,356.6,1117.7,358.8,1117.7,362.6z
				 M1111.2,362.8c0,3.1,1,4.9,2.4,4.9c1.7,0,2.4-1.9,2.4-5c0-2.9-0.8-4.9-2.4-4.9C1112.2,357.8,1111.2,359.6,1111.2,362.8z"/>
			<path d="M1113.6,369.4c-2.7,0-4.4-2.5-4.5-6.6c0-4.1,1.8-6.7,4.7-6.7c2.8,0,4.5,2.5,4.5,6.6
				C1118.2,367,1116.5,369.4,1113.6,369.4z M1113.8,357.1c-2.3,0-3.7,2.2-3.7,5.7c0,3.5,1.3,5.6,3.5,5.6c3.2,0,3.7-3.6,3.7-5.8
				C1117.2,359.1,1116,357.1,1113.8,357.1z M1113.6,368.2c-1.8,0-2.9-2-2.9-5.4c0-4,1.5-5.5,2.9-5.5c1.1,0,2.9,0.7,2.9,5.4
				C1116.6,367.5,1114.7,368.2,1113.6,368.2z M1113.7,358.3c-1.2,0-1.9,1.8-1.9,4.5c0,2.7,0.7,4.4,1.9,4.4c1.8,0,1.9-3.1,1.9-4.5
				C1115.6,361.1,1115.3,358.3,1113.7,358.3z"/>
		</g>
	</g>
	<g>
		<g>
			<rect x="849.3" y="333" width="317.8" height="2"/>
		</g>
	</g>
	<g>
		<g>
			<path fill="none" d="M922.9,361.1"/>
		</g>
		<g>
			<path fill="none" d="M851.3,361.1"/>
		</g>
		<g>
			<path fill="none" d="M1165.1,361.1"/>
		</g>
	</g>
</g>
</svg>
