<?xml version="1.0" encoding="utf-8"?>
<!-- Generator: Adobe Illustrator 18.0.0, SVG Export Plug-In . SVG Version: 6.00 Build 0)  -->
<!DOCTYPE svg PUBLIC "-//W3C//DTD SVG 1.1//EN" "http://www.w3.org/Graphics/SVG/1.1/DTD/svg11.dtd">
<svg version="1.1" id="Layer_1" xmlns="http://www.w3.org/2000/svg" xmlns:xlink="http://www.w3.org/1999/xlink" x="0px" y="0px"
	 viewBox="0 0 1400 450" enable-background="new 0 0 1400 450" xml:space="preserve">
<g>
	<g>
		
			<image overflow="visible" opacity="0.2" width="1484" height="488" xlink:href="D06C40C5.png"  transform="matrix(1 0 0 1 -36.686 -11.075)">
		</image>
		<g>
			<rect x="-26.4" y="-0.8" fill="#353565" width="1452.8" height="456.6"/>
		</g>
	</g>
	<g>
		<defs>
			<rect id="SVGID_1_" x="-26.5" y="-0.5" width="1452.8" height="456.6"/>
		</defs>
		<clipPath id="SVGID_2_">
			<use xlink:href="#SVGID_1_"  overflow="visible"/>
		</clipPath>
		<polygon clip-path="url(#SVGID_2_)" fill="#47477C" points="1432.5,145.8 1039.4,463.6 1004.3,463.6 1397.4,-0.5 1433.2,-0.5 		
			"/>
		<polygon clip-path="url(#SVGID_2_)" fill="#47477C" points="1432.5,177.4 1054.1,463.6 1184,463.6 1432.5,197.8 		"/>
		<polygon clip-path="url(#SVGID_2_)" fill="#47477C" points="1357.8,-6 987,467.2 855.6,467.2 1041,281.8 814,471.3 724.1,471.3 
			1301.1,-10.2 		"/>
		<polygon clip-path="url(#SVGID_2_)" fill="#47477C" points="-32.8,315.3 360.4,-2.5 395.5,-2.5 2.3,461.6 -33.4,461.6 		"/>
		<polygon clip-path="url(#SVGID_2_)" fill="#47477C" points="-32.7,283.7 345.7,-2.5 215.8,-2.5 -32.8,263.3 		"/>
		<polygon clip-path="url(#SVGID_2_)" fill="#47477C" points="242.6,500 816.1,-2.5 686.2,-2.5 242.6,479.6 		"/>
		<polygon clip-path="url(#SVGID_2_)" fill="#47477C" points="42,467.2 412.8,-6 544.2,-6 358.8,179.4 585.7,-10.2 675.7,-10.2 
			98.7,471.3 		"/>
	</g>
	<g>
		<g>
			<polygon fill="#00CEBF" points="1349.5,356.9 670.1,356.9 710.3,289.1 670.1,207.8 1349.5,207.8 1309.4,289.1 			"/>
		</g>
		<g>
			<path fill="#FFFFFF" d="M917.4,182.8c6.7-1.1,30.8,0.9,30.8-2.7c0-3.7-3.6-23-2.9-29.7c0.7-11.4,2.4-28.3,1.1-28.7
				c-7-2.2-19.9-9.1-21.3-8.2c-5.8,3.9-7.7,20-12.7,16.7c1.3-6,4.7-22.2,9.4-25.5c4.6-2.8,3.9,0.1,11.5,2c3.4,0.9,13.6,5.6,15.9,5.4
				c0-28.5,28.5-26.3,19.9,0.4v1.8c8.2,2.7,6.3,3.2,19,5c6.3,0.9,5.6-18.4,13-24.5c2.9,4.1-2.7,24.2-6.7,33.6
				c-7.6-0.8-26.2-1-27.1-1c-2.4,0,3.6,21.7,3.6,26.3c0,3.2,11.3,2.1,20.8,6.8c6.8,3.3-1.8,26.9-3.2,40.3
				c6.7,1.3,18.6,5.2,21.3,11.3c-5.4,3.4-14.8,2-21.5,1.3c-12.1-1.3-10.1-2.7-10.1-15.5c0-6,7.7-27.3,6.7-29.3
				c-1.2-2.3-18.1-2.7-22.6-2.7c-1.8,8.2-2.7,16.8-6.8,24c-8.1,0.7-20.4,2.3-29,2.3c-0.9,0-7.7,20.8-12.2,19
				C911,210,912,183.7,917.4,182.8z"/>
		</g>
		<g>
			<path fill="#FFFFFF" d="M790.9,182.8c6.7-1.1,30.8,0.9,30.8-2.7c0-3.7-3.6-23-2.9-29.7c0.7-11.4,2.4-28.3,1.1-28.7
				c-7-2.2-19.9-9.1-21.3-8.2c-5.8,3.9-7.7,20-12.7,16.7c1.3-6,4.7-22.2,9.4-25.5c4.6-2.8,3.9,0.1,11.5,2c3.4,0.9,13.6,5.6,15.9,5.4
				c0-28.5,28.5-26.3,19.9,0.4v1.8c8.2,2.7,6.3,3.2,19,5c6.3,0.9,5.6-18.4,13-24.5c2.9,4.1-2.7,24.2-6.7,33.6
				c-7.6-0.8-26.2-1-27.1-1c-2.4,0,3.6,21.7,3.6,26.3c0,3.2,11.3,2.1,20.8,6.8c6.8,3.3-1.8,26.9-3.2,40.3
				c6.7,1.3,18.6,5.2,21.3,11.3c-5.4,3.4-14.8,2-21.5,1.3c-12.1-1.3-10.1-2.7-10.1-15.5c0-6,7.7-27.3,6.7-29.3
				c-1.2-2.3-18.1-2.7-22.6-2.7c-1.8,8.2-2.7,16.8-6.8,24c-8.1,0.7-20.4,2.3-29,2.3c-0.9,0-7.7,20.8-12.2,19
				C784.5,210,785.4,183.7,790.9,182.8z"/>
		</g>
		<g>
			<path fill="#FFFFFF" d="M1177.2,182.8c6.7-1.1,30.8,0.9,30.8-2.7c0-3.7-3.6-23-2.9-29.7c0.7-11.4,2.4-28.3,1.1-28.7
				c-7-2.2-19.9-9.1-21.3-8.2c-5.8,3.9-7.7,20-12.7,16.7c1.3-6,4.7-22.2,9.4-25.5c4.6-2.8,3.9,0.1,11.5,2c3.4,0.9,13.6,5.6,15.8,5.4
				c0-28.5,28.5-26.3,19.9,0.4v1.8c8.2,2.7,6.3,3.2,19,5c6.3,0.9,5.6-18.4,13-24.5c2.9,4.1-2.7,24.2-6.7,33.6
				c-7.6-0.8-26.2-1-27.1-1c-2.4,0,3.6,21.7,3.6,26.3c0,3.2,11.3,2.1,20.8,6.8c6.8,3.3-1.8,26.9-3.2,40.3
				c6.7,1.3,18.6,5.2,21.3,11.3c-5.4,3.4-14.8,2-21.5,1.3c-12.1-1.3-10.1-2.7-10.1-15.5c0-6,7.7-27.3,6.7-29.3
				c-1.2-2.3-18.1-2.7-22.6-2.7c-1.8,8.2-2.7,16.8-6.8,24c-8.1,0.7-20.4,2.3-29,2.3c-0.9,0-7.7,20.8-12.2,19
				C1170.8,210,1171.7,183.7,1177.2,182.8z"/>
		</g>
		<g>
			<path fill="#FFFFFF" d="M1050,182.8c6.7-1.1,30.8,0.9,30.8-2.7c0-3.7-3.6-23-2.9-29.7c0.7-11.4,2.4-28.3,1.1-28.7
				c-7-2.2-19.9-9.1-21.3-8.2c-5.8,3.9-7.7,20-12.7,16.7c1.3-6,4.7-22.2,9.4-25.5c4.6-2.8,3.9,0.1,11.5,2c3.4,0.9,13.6,5.6,15.9,5.4
				c0-28.5,28.5-26.3,19.9,0.4v1.8c8.2,2.7,6.3,3.2,19,5c6.3,0.9,5.6-18.4,13-24.5c2.9,4.1-2.7,24.2-6.7,33.6
				c-7.6-0.8-26.2-1-27.1-1c-2.4,0,3.6,21.7,3.6,26.3c0,3.2,11.3,2.1,20.8,6.8c6.8,3.3-1.8,26.9-3.2,40.3
				c6.7,1.3,18.6,5.2,21.3,11.3c-5.4,3.4-14.8,2-21.5,1.3c-12.1-1.3-10.1-2.7-10.1-15.5c0-6,7.7-27.3,6.7-29.3
				c-1.2-2.3-18.1-2.7-22.6-2.7c-1.8,8.2-2.7,16.8-6.8,24c-8.1,0.7-20.4,2.3-29,2.3c-0.9,0-7.7,20.8-12.2,19
				C1043.7,210,1044.6,183.7,1050,182.8z"/>
		</g>
		<g>
			<path fill="#FFFFFF" d="M673.5,147.2c19.2-8.9,37.5-0.3,55.4,7.2c17.6,7.4,35.1,12.1,54,7.1c6.5-1.7,5.1-10.2-1.4-8.5
				c-39.8,10.5-69.4-29-109.3-10.4C665.5,145.9,666.8,150.3,673.5,147.2L673.5,147.2z"/>
		</g>
	</g>
	<g>
		<g>
			<path fill="#FFFFFF" d="M278.3,173.4c-16.3,6-16.2-44.2-16.3-53.5c0-5.7-9.2-7.3-10.2-1.4c-1.4,8.4-1.4,17-2.2,25.5
				c-0.8,8.4-1.6,23.4-9.4,28.8c-13.4,9.2-14.7-45.2-15.7-52c-1.1-6.6-11.1-3.8-10,2.8c2.6,16.4-2.5,62.5,24.6,60.3
				c9.6-0.8,14.8-8,17.7-17.5c4,12.8,11.3,21.8,24.3,17C287.3,181.1,284.6,171,278.3,173.4z"/>
			<path fill="#FFFFFF" d="M337.3,175.3c-2-14.2-0.6-74.8-29.4-63.1c-5.6,2.3-8.7,7.2-10.5,12.8c-2-4.6-4.5-8.8-7.8-12.2
				c-4.6-4.9-11.9,2.5-7.3,7.3c6.1,6.4,7.5,16.6,9.2,24.9c2.2,11.1,3.2,22.4,4.5,33.7c0.8,6.5,10.5,6.9,10.4,0c-0.1-8-1.2-16-1.4-24
				c-0.3-9.4-1.4-24,5.1-31.7c7.9-9.4,12.8,16.1,13.4,19.6c2,11.7,2.1,23.6,3.8,35.4C328.2,184.6,338.2,181.8,337.3,175.3z"/>
			<path fill="#FFFFFF" d="M396.2,175.3c-2-14.2-0.6-74.8-29.4-63.1c-5.6,2.3-8.7,7.2-10.5,12.8c-2-4.6-4.5-8.8-7.8-12.2
				c-4.6-4.9-11.9,2.5-7.3,7.3c6.1,6.4,7.5,16.6,9.2,24.9c2.2,11.1,3.2,22.4,4.5,33.7c0.8,6.5,10.5,6.9,10.4,0c-0.1-8-1.2-16-1.4-24
				c-0.3-9.4-1.4-24,5.1-31.7c7.9-9.4,12.8,16.1,13.4,19.6c2,11.7,2.1,23.6,3.8,35.4C387.1,184.6,397.1,181.8,396.2,175.3z"/>
			<path fill="#FFFFFF" d="M488.9,175.3c-2-14.2-0.6-74.8-29.4-63.1c-5.6,2.3-8.7,7.2-10.5,12.8c-2-4.6-4.5-8.8-7.8-12.2
				c-4.6-4.9-11.9,2.5-7.3,7.3c6.1,6.4,7.5,16.6,9.2,24.9c2.2,11.1,3.2,22.4,4.5,33.7c0.8,6.5,10.5,6.9,10.4,0c-0.1-8-1.2-16-1.4-24
				c-0.3-9.4-1.4-24,5.1-31.7c7.9-9.4,12.8,16.1,13.4,19.6c2,11.7,2.1,23.6,3.8,35.4C479.8,184.6,489.8,181.8,488.9,175.3z"/>
			<g>
				<path fill="#FFFFFF" d="M404.7,121.8c9,15.5,7,37.3,9,54.7c0.8,6.6,11.1,6.6,10.4,0c-2.2-19.3-0.4-42.5-10.4-59.9
					C410.3,110.8,401.3,116,404.7,121.8L404.7,121.8z"/>
			</g>
			<g>
				<path fill="#FFFFFF" d="M404.5,99.4c2.5-2.3,5.1-4.6,7.6-6.9c2.1-1.9,1.9-5.4,0-7.3c-2.1-2.1-5.2-1.9-7.3,0
					c-2.5,2.3-5.1,4.6-7.6,6.9c-2.1,1.9-1.9,5.4,0,7.3C399.3,101.4,402.4,101.3,404.5,99.4L404.5,99.4z"/>
			</g>
			<path fill="#FFFFFF" d="M548.7,154.1c-0.7-11.6-2.2-23.6-7.3-34.2c-6.2-12.9-19.5-11.8-27.8-1.8c-9.1,11-14.1,27.6-11.9,41.8
				c1,6.7,4.1,13.1,9.7,17.1c8.1,5.7,18.7,3,27.4-1.2c-0.9,12.4-3.4,24.7-7.9,36.3c-8.9,23-26.7,41.7-45.5,57.2
				c-20.4,16.8-42.4,28.7-68,35.3c-49.4,12.8-108.9,7.7-148.7-26.5c-26.6-22.9-45.6-53.8-64.3-83.1c-12.1-19-24.3-42.3-42.1-57.6
				c15-6.3,30.1-17,25.9-35.3c-6.1-26.4-29.5-24-50.9-19c-6.5,1.5-3.8,11.5,2.8,10c13.9-3.2,31.7-8.5,37.5,9
				c5.6,17-14.9,24.6-27.3,28.7c-4.3,1.4-5.1,7-1.2,9.5c13,8.5,22.1,22.9,30.6,35.5c11.7,17.4,22.5,35.3,34.2,52.7
				c23.6,35,51,68.1,91.9,82.7c47,16.7,103.6,12.3,148.4-8.9c40.3-19.1,78.6-56.6,90.9-100.2C549.5,186.5,549.7,170.2,548.7,154.1z
				 M515.2,166.5c-3.4-3.7-3.7-9.7-3.6-14.4c0.2-10.1,4.4-21.7,11.5-29c8.9-9.2,12.4,10.8,13.5,16.4c1.5,8,2.4,16.1,2.5,24.3
				C532.3,168,521.6,173.3,515.2,166.5z"/>
			<g>
				<path fill="#FFFFFF" d="M135,90.4c2.2,33.7,1.7,67.8,8.5,101c1.3,6.6,11.3,3.8,10-2.8c-6.6-32.2-6-65.5-8.1-98.2
					C145,83.8,134.6,83.8,135,90.4L135,90.4z"/>
			</g>
		</g>
		<path fill="#FFFFFF" d="M270.5,70.5c-1.8-0.3-3.6,0.7-3.6,2.8c0.1,7.4,1.4,14.7,1.5,22.1c0,0.5,0.1,0.9,0.3,1.2
			c0.3,1,1.2,1.9,2.6,2c7.9,0.5,14.4-4.1,14.7-12.3C286.2,77.6,278.2,71.7,270.5,70.5z M274,92.8c-0.3-5.3-0.9-10.5-1.2-15.8
			c3.8,1.4,7,4.2,7.4,8.6C280.6,90,277.6,92.2,274,92.8z"/>
		<path fill="#FFFFFF" d="M315,79.9c-2.2-5-7.2-7.2-12.2-6.7c-1.2-0.8-3.1-0.8-4.2,0.7c-0.1,0.1-0.2,0.3-0.3,0.5
			c-1,0.6-1.4,1.6-1.4,2.6c-2.2,4.6-3,10.4-1.1,15c2.7,6.4,10.6,6.9,15.9,3.4C316.9,91.9,317.3,85.2,315,79.9z M308.8,90.5
			c-3.2,2.9-7.4,1.3-8.2-2.5c-0.6-2.9,0.3-6.2,1.6-8.9c2.8-0.7,5.5-0.1,7.3,2.7C311.3,84.5,311.2,88.2,308.8,90.5z"/>
		<path fill="#FFFFFF" d="M338,74.4c0,2.5,0,5.1,0,7.6c-1.9-3.6-4-7-7.3-9.6c-1.8-1.5-4.9-0.7-4.9,2c0.1,5.9,0.7,11.7,0.8,17.5
			c0,3.7,5.8,3.7,5.7,0c0-3.1-0.2-6.2-0.4-9.2c2.3,3.7,4,7.9,6.5,11.5c1.6,2.2,5.3,1.6,5.3-1.4c0-6.1,0-12.2,0-18.3
			C343.8,70.7,338,70.7,338,74.4z"/>
		<path fill="#FFFFFF" d="M372.5,69.9c-4.1,0-8.2,0.1-12.2-0.7c-3.6-0.7-5.1,4.9-1.5,5.5c1.3,0.2,2.7,0.4,4,0.5c0,5.5,0,11,0,16.5
			c0,3.7,5.7,3.7,5.7,0c0-5.4,0-10.8,0-16.2c1.3,0,2.7,0,4,0C376.2,75.7,376.2,69.9,372.5,69.9z"/>
		<g>
			<path fill="#FFFFFF" d="M450.3,67.1c-6.5,1.6-9.2,6.5-6.7,12.7c1,2.6,2.5,5.1,3.7,7.6c0.3,0.7,0.4,2.3,0.7,1.6
				c0-0.1-2.1,0.1-2.9,0.1c-3.7-0.1-3.7,5.6,0,5.7c6.5,0.2,10.2-3.5,7.4-9.8c-1.1-2.5-2.5-4.8-3.5-7.3c-1.2-3.2-0.3-4.3,3-5.2
				C455.3,71.7,453.8,66.2,450.3,67.1L450.3,67.1z"/>
		</g>
		<path fill="#FFFFFF" d="M478.9,72c-2.5,0-5,0-7.5-0.1c-0.4-0.1-0.8-0.1-1.2-0.1c-1.4-0.1-2.8-0.2-4.2-0.4c-3.6-0.6-5.2,5-1.5,5.5
			c1.3,0.2,2.6,0.3,3.9,0.5c0.5,5.4,0.5,10.8,0.5,16.2c0,3.7,5.7,3.7,5.7,0c0-5.3,0-10.6-0.5-15.9c1.6,0,3.2,0.1,4.9,0.1
			C482.6,77.7,482.6,72,478.9,72z"/>
		<path fill="#FFFFFF" d="M505.3,78.1c-1.8-5.2-7.2-7.1-12.3-6.5c-1.5,0.2-2.5,1.2-2.8,2.4c-3.4,3.7-5.8,9.6-2,13.7
			c3.4,3.7,10.1,4.9,14.1,1.6C505.6,86.7,506.6,81.9,505.3,78.1z M498.9,84c-0.6,0.7-1.1,1-1.5,1c-1.2,0.1-2.6-0.4-3.8-0.9
			c-2.7-1.3-0.2-4.6,1.6-6.4c1.8,0.1,3.3,0.6,4.1,2.2C500,81,499.6,83.2,498.9,84z"/>
		<path fill="#FFFFFF" d="M534.1,79c-1.3-7.8-9.7-9.8-16.3-7.5c-1.1,0.4-2.3,1.5-2.1,2.8c0.8,6.6,1.6,13.3,3.2,19.8
			c0.9,3.6,6.4,2.1,5.5-1.5c-0.2-0.8-0.4-1.7-0.5-2.5C529.8,89.6,535.3,85.7,534.1,79z M522.9,84.3c-0.4-2.6-0.8-5.3-1.1-8
			c2.8-0.4,5.7,0.1,6.7,3.1C529.6,83.2,525.8,84.3,522.9,84.3z"/>
		<g>
			<path fill="#FFFFFF" d="M352.3,64c1-0.8,2.1-1.6,3.1-2.4c1.2-0.9,1.9-2.4,1-3.9c-0.7-1.2-2.7-2-3.9-1c-1,0.8-2.1,1.6-3.1,2.4
				c-1.2,0.9-1.9,2.4-1,3.9C349.1,64.2,351.1,64.9,352.3,64L352.3,64z"/>
		</g>
		<g>
			<path fill="#FFFFFF" d="M240.5,92.2c6.7,0,6.7-10.4,0-10.4C233.8,81.9,233.8,92.2,240.5,92.2L240.5,92.2z"/>
		</g>
	</g>
	<g>
		<g>
			<path fill="#00CEBF" d="M415.3,226l-1.4,2.8c-5.7,9.9,0,25.5,14.2,18.4C446.4,238.7,429.5,216.1,415.3,226z"/>
		</g>
		<g>
			<path fill="#00CEBF" d="M556.2,261.7c-56-54.9-129.3,3.9-129.3,3.9c-23.5,21.6-42.9,59.5-41.1,87.2c4.7,56,100.4,36.2,134.2,29.2
				c25.7-5.8,51.4-10.5,59.5-38.5C587.7,315.4,578.4,280.3,556.2,261.7z"/>
		</g>
		<g>
			<path fill="#00CEBF" d="M602.1,271.6l-1.4,2.8c-5.7,9.9,0,25.5,14.2,18.4C633.2,284.4,616.2,261.7,602.1,271.6z"/>
		</g>
	</g>
	<g>
		<g>
			<path fill="#00CEBF" d="M329.1,336.4l-1.4,2.8c-5.5,9.7,0,24.9,13.8,18C359.5,348.9,342.9,326.8,329.1,336.4z"/>
		</g>
		<g>
			<path fill="#00CEBF" d="M296,351l6.3-10c38-62.3-28.9-128.3-83.5-126.4c-32,0.9-58.9,9.4-75.2,38.8
				c-15.9,27.6-27.2,69.2-18.8,100.8C149.6,448.1,260.6,410.1,296,351z"/>
		</g>
		<g>
			<path fill="#00CEBF" d="M322.1,227.1l-1.4,4.8c-6.2,16.6,2.8,38.1,16.6,46.4c16.6,9.7,40.1,0,42.9-18
				C383,232.7,347.7,196,322.1,227.1z"/>
		</g>
		<g>
			<path fill="#00CEBF" d="M72,263.8l-1.6,3.3c-6.5,11.4,0,29.4,16.3,21.2C107.9,278.5,88.3,252.4,72,263.8z"/>
		</g>
		<g>
			<path fill="#00CEBF" d="M105,297.4l-2.4,2.9c-9.4,9.5-9.9,27-2.9,37c8.4,11.8,27.6,12.4,35,0.9C145.1,320,132.2,283.9,105,297.4z
				"/>
		</g>
		<g>
			<path fill="#00CEBF" d="M102.3,231.1l-1.2,2.4c-4.7,8.3,0,21.4,11.9,15.4C128.5,241.7,114.2,222.7,102.3,231.1z"/>
		</g>
	</g>
</g>
<g>
	<path fill="#EFEFEF" d="M753,287.4c0,7.7,0.8,11.7,5.5,11.7c1.7,0,2.4-0.3,3.7-0.6v-5.3h-3.1v-8.2h13.3v23.8h-8.2l-1.1-2.2h-0.3
		c-1.7,1.5-3.4,2.9-7.4,2.9c-10.3,0-14.5-8.3-14.5-21.9c0-13.7,4-22.6,16.7-22.6c4.9,0,9,0.8,12.4,2.2l-1.9,11.3
		c-3.7-1.1-6.7-2-9.4-2C753.8,276.6,753,281.1,753,287.4z"/>
	<path fill="#EFEFEF" d="M802.9,290.6l5.8,18.3h-12.8l-4.3-15.5h-1.6v15.5h-11.7v-43.1h16.1c9.2,0,13.4,4,13.4,13.7
		C807.7,284.8,806.1,287.8,802.9,290.6z M791.7,276.3h-1.9v9.7h1.8c2.4,0,3.3-1,3.3-5C795,277.6,794,276.3,791.7,276.3z"/>
	<path fill="#EFEFEF" d="M831.9,308.9l-1.3-6.8h-8.2l-1.3,6.8h-11l7.9-43.1h17.6l7.9,43.1H831.9z M826.8,278.5h-0.5l-2.4,15.4h5.3
		L826.8,278.5z"/>
	<path fill="#EFEFEF" d="M864.1,308.9h-17v-43.1h16.7c8.8,0,13,3.5,13,11c0,4.4-1.7,7-4.8,9v0.4c3.4,1.3,5.5,4.3,5.5,10.2
		C877.4,304.2,873.7,308.9,864.1,308.9z M861.3,275.4h-2.2v8.9h2.3c2.1,0,2.8-1.1,2.8-4.4C864.2,276.5,863.4,275.4,861.3,275.4z
		 M861.3,291h-2.2v10.2h2.2c2.8,0,3.5-0.9,3.5-4.8C864.8,292.5,864.1,291,861.3,291z"/>
	<path fill="#EFEFEF" d="M913,276.3v32.6h-11.9v-32.6h-8.5l0.7-10.5h28.5l-0.7,10.5H913z"/>
	<path fill="#EFEFEF" d="M944.5,308.9v-16.3h-8.1v16.3h-11.9v-43.1h11.9v16.9h8.1v-16.9h11.8v43.1H944.5z"/>
	<path fill="#EFEFEF" d="M962.1,308.9v-43.1h24l-0.7,10.6H974v6.5h9.9v9.2H974v7.1h12.1l-0.7,9.7H962.1z"/>
	<path fill="#EFEFEF" d="M1021.7,308.9h-17v-43.1h16.7c8.8,0,13,3.5,13,11c0,4.4-1.7,7-4.8,9v0.4c3.4,1.3,5.5,4.3,5.5,10.2
		C1035.1,304.2,1031.4,308.9,1021.7,308.9z M1019,275.4h-2.2v8.9h2.3c2.1,0,2.8-1.1,2.8-4.4C1021.9,276.5,1021.1,275.4,1019,275.4z
		 M1019,291h-2.2v10.2h2.2c2.8,0,3.5-0.9,3.5-4.8C1022.5,292.5,1021.7,291,1019,291z"/>
	<path fill="#EFEFEF" d="M1039.1,308.9v-43.1h24l-0.7,10.6H1051v6.5h9.9v9.2h-9.9v7.1h12.1l-0.7,9.7H1039.1z"/>
	<path fill="#EFEFEF" d="M1091.6,266.3l-1.4,11.1c-3.9-0.9-7.1-1.6-9.4-1.6c-2,0-3.3,0.8-3.3,2.6c0,3.9,15.1,4.2,15.1,17.3
		c0,8.7-4.7,13.8-13.7,13.8c-5.1,0-8.7-0.8-12.5-2l0.8-10.3c4.8,1.4,7.7,2.2,10.6,2.2c1.8,0,2.6-0.8,2.6-2.6c0-5-15.2-4.4-15.2-18
		c0-8.1,5-13.7,13.5-13.7C1083,265.1,1087.9,265.6,1091.6,266.3z"/>
	<path fill="#EFEFEF" d="M1113.8,276.3v32.6h-11.9v-32.6h-8.5l0.7-10.5h28.5l-0.7,10.5H1113.8z"/>
	<path fill="#EFEFEF" d="M1154.1,308.9h-14.3v-43.1h14.6c13.4,0,17.5,8.2,17.5,20.6C1171.9,299,1167.8,308.9,1154.1,308.9z
		 M1153.7,276.3h-2.1v22.6h2.3c5.3,0,5.8-4.1,5.8-11.3C1159.7,280.1,1158.9,276.3,1153.7,276.3z"/>
	<path fill="#EFEFEF" d="M1176.3,308.9v-43.1h24l-0.7,10.6h-11.5v6.5h9.9v9.2h-9.9v7.1h12.1l-0.7,9.7H1176.3z"/>
	<path fill="#EFEFEF" d="M1223.7,308.9l-1.3-6.8h-8.2l-1.3,6.8h-11l7.9-43.1h17.6l7.9,43.1H1223.7z M1218.6,278.5h-0.5l-2.4,15.4
		h5.3L1218.6,278.5z"/>
	<path fill="#EFEFEF" d="M1238.9,308.9v-43.1h11.9v33.4h10.8l-0.7,9.6H1238.9z"/>
	<path fill="#EFEFEF" d="M1288.4,266.3l-1.4,11.1c-3.9-0.9-7.1-1.6-9.4-1.6c-2,0-3.3,0.8-3.3,2.6c0,3.9,15.1,4.2,15.1,17.3
		c0,8.7-4.7,13.8-13.7,13.8c-5.1,0-8.7-0.8-12.5-2l0.8-10.3c4.8,1.4,7.7,2.2,10.6,2.2c1.8,0,2.6-0.8,2.6-2.6c0-5-15.2-4.4-15.2-18
		c0-8.1,5-13.7,13.5-13.7C1279.9,265.1,1284.8,265.6,1288.4,266.3z"/>
</g>
</svg>
