<?xml version="1.0" encoding="utf-8"?>
<!-- Generator: Adobe Illustrator 18.0.0, SVG Export Plug-In . SVG Version: 6.00 Build 0)  -->
<!DOCTYPE svg PUBLIC "-//W3C//DTD SVG 1.1//EN" "http://www.w3.org/Graphics/SVG/1.1/DTD/svg11.dtd">
<svg version="1.1" xmlns="http://www.w3.org/2000/svg" xmlns:xlink="http://www.w3.org/1999/xlink" x="0px" y="0px"
	 viewBox="0 0 200 70" enable-background="new 0 0 200 70" xml:space="preserve">
<g id="Layer_1">
	<g>
		<g opacity="0.52">
			<path fill="#90A4AE" d="M22.2,51.3c0.6,4.7,5.8,6,9.3,3.6c3.8-2.7,4.3-5.5,3.8-9.5c-0.4-3.2-1.7-8.1-2.6-11.3
				c-1-3.6-0.8-8.3-0.9-11.4c-0.2-3.7-2.3-9.9-6.5-10.3c-4.7-0.4-7.4,3.9-8.4,8.7c-1.5,7.1,2.9,12.7,4.1,19.3c0.9,4.7-0.8,4.9,1,9.5
				"/>
		</g>
		<g>
			<g>
				<path fill="#F4F4F4" d="M13.9,22.9c0.3-5.6-0.4-11,6.3-13.2c4.7-1.8,8.3,3.9,8.8,7.8c0.6,6,0.8,12.2,1.9,18.2
					c0.8,4.7,4.7,14.7-0.9,17.5c-2.6,1.2-5.6,2-7.7,0.2c-2.2-2-4.3-7-3.8-9.8c0.8-4.4-2.4-10.7-4-18.2"/>
			</g>
			<g>
				<path fill="#239956" d="M15.8,18.3c1.4,1,3.6,2.8,4.3,4.4c-1.3,0.2-3,1.2-1.9,2.4c1.3,1,2.4-1.2,2.8,1.2
					c-3.2,0.9-2.8,3.4,0.2,2.3c1.5,2.8-1.4,1.5-1.6,2.5c-0.6,1.9,1.6,2.1,2.9,1.8c0.2,0.5,0.3,0.8,0.3,1.3c-1.7,0.9-1.6,3.8-4.1,5.1
					c-1.2-2.7-3.5-8.5-3.8-11.9c-0.1-3.1-0.2-5.7,0.8-8.9"/>
			</g>
			<g>
				<path fill="#239956" d="M24.3,21.7c0.1-1.8,1.9-4.1,3.3-5.2c3.5,7.5,1,11.3,2.6,16.3c1.7,5.9,3.7,12.3,2.2,17.5
					c-0.6,0.1-1.5-0.9-2-1.1c0.8-4,1-6.2-1.1-9.5c-1.6-2.1-3.2-5.2-3.1-7.8c2.8-1.2-0.1-2.5-0.3-2.6c-0.4-0.2-0.8-1.1-0.3-1.6
					c1.1-0.8,0.8-1.9-0.7-2c0.1-0.4-0.7-1.6-0.3-1.7c1.3-0.2,1.3-1.6,0.1-2.1"/>
			</g>
			<g>
				<path fill="#239956" d="M19.2,42c1-0.8,1.7-1.7,2.8-2.2c-0.3,1.6-1.6,3.9,0.4,9.8c0,0.1-1.1,1.2-2,1.4c-0.7-1.6-1.4-3.8-1.2-8.9
					"/>
			</g>
			<g>
				<path fill="#FFFFFF" d="M16.5,18.5c3.3,1.7,14.8,0.5,9.2-5.3c-3.7-3.8-8.7,0.8-9.5,4.8"/>
			</g>
		</g>
		<g>
			<g>
				<path fill="#2D2D2D" d="M20.5,33.4c1.2-0.3,2.3-0.5,3.5-0.7c1.2-0.2,2.6-0.3,3.7-0.7c1.5-0.6,0.3-3-0.9-3.2
					c-1.7-0.2-3.8,0.6-5.4,1c-0.6,0.2-1.6,0.4-1.9,1.1c-0.3,0.6-0.1,1.5,0.3,2.1c0.4,0.6,1.5,0,1.1-0.6c-0.8-1.2,1.3-1.5,2.1-1.7
					c1.2-0.3,2.4-0.6,3.5-0.7c0.4,0,1,0.8,0.5,0.9c-0.7,0.1-1.4,0.3-2.1,0.4c-1.6,0.3-3.1,0.5-4.7,0.9
					C19.4,32.4,19.8,33.6,20.5,33.4L20.5,33.4z"/>
			</g>
		</g>
		<g>
			<g>
				<path fill="#2D2D2D" d="M19.6,29.4c1.1-0.3,2.3-0.5,3.5-0.7c1.1-0.2,2.5-0.3,3.5-0.9c1.1-0.6,0.8-2.9-0.6-2.9
					c-1.7,0-3.5,0.6-5.2,1c-0.7,0.2-1.7,0.3-2.2,0.9c-0.7,0.7-0.3,1.8,0.1,2.4c0.4,0.7,1.5,0.1,1.1-0.6c-0.6-1-0.1-1.1,0.8-1.3
					c0.6-0.2,1.2-0.3,1.8-0.5c1.1-0.3,2.1-0.5,3.2-0.7c0.6-0.1,0.5,0.6-0.1,0.8c-0.7,0.2-1.4,0.4-2.1,0.5c-1.4,0.3-2.8,0.5-4.2,0.8
					C18.6,28.4,18.9,29.6,19.6,29.4L19.6,29.4z"/>
			</g>
		</g>
		<g>
			<g>
				<path fill="#2D2D2D" d="M18.6,25.7c1.3-0.3,2.6-0.5,3.9-0.8c0.7-0.1,1.3-0.2,2-0.4c0.5-0.1,1.2-0.1,1.6-0.5c1-1-0.2-2.8-1.4-2.9
					c-1.6-0.1-3.5,0.6-5.1,1c-0.6,0.2-1.4,0.2-1.8,0.8c-0.6,0.8-0.6,1.6-0.1,2.4c0.4,0.7,1.5,0.1,1.1-0.6c-0.8-1.3,1.5-1.5,2.3-1.7
					c1.1-0.3,2.1-0.5,3.2-0.7c0.5-0.1,0.8,0.1,1,0.6c0,0-1.5,0.3-1.8,0.4c-1.7,0.3-3.5,0.6-5.2,1C17.5,24.6,17.9,25.8,18.6,25.7
					L18.6,25.7z"/>
			</g>
		</g>
		<g>
			<g>
				<path fill="#FFFFFF" d="M21.5,35.1c-0.2,1.6-1.5,3-2.5,4c-1.7,1.8-3.1,3.1-3.3,5.7c-0.1,1.5,0.1,3,0.2,4.5
					c0,0.8-0.2,1.5-0.1,2.3c2.4,0.3,1.5-4,1.6-5.5c0.1-2.3,0.6-3.1,2-4.8c1.1-1.2,2.8-3.1,3.5-4.7c0.2-0.6,0.5-1.5,0.2-2.1
					c-0.2-0.7-1.8-0.8-1.7,0.4"/>
			</g>
			<g>
				<g>
					<path fill="#2D2D2D" d="M20.9,35c-0.4,2.9-3.6,4.6-5,7.1c-0.7,1.3-0.8,2.7-0.8,4.1c0,0.9,0.1,1.8,0.2,2.7
						c0.1,0.9-0.1,1.9-0.1,2.8c0,0.3,0.3,0.6,0.6,0.6c2,0.1,2.3-2,2.3-3.5c0-0.9-0.1-1.7-0.1-2.6c0.1-1.7,0.5-2.8,1.6-4
						c1.7-2.1,4.3-4.3,4.2-7.2C23.8,33,20.8,33,20.9,35c0,0.7,1.2,0.7,1.2-0.1c0.1-0.3,0.2-0.3,0.5-0.2c0.2,0.1,0.2,0.3,0.1,0.6
						c0,0.6-0.3,1.2-0.5,1.7c-0.5,1-1.2,1.8-1.9,2.6c-1.1,1.3-2.4,2.5-3,4.1c-0.5,1.3-0.4,2.7-0.3,4c0.1,0.9,0.4,3.4-1.1,3.3
						c0.2,0.2,0.4,0.4,0.6,0.6c0-0.7,0.1-1.3,0.1-2c0.1-0.9-0.1-1.8-0.2-2.6c-0.1-1.8-0.1-3.4,0.9-4.9c1.5-2.4,4.4-3.9,4.8-6.9
						C22.2,34.5,21,34.2,20.9,35L20.9,35z"/>
				</g>
			</g>
		</g>
		<g>
			<g>
				<path fill="#2D2D2D" d="M23.3,33.6c0.1,0.2,0-0.1,0-0.1c0-0.1-0.1-0.3-0.1-0.4c-0.1-0.2-0.1-0.5-0.2-0.7
					c-0.1-0.3-0.6-0.4-0.8-0.2c-0.3,0.2-0.4,0.5-0.2,0.8c-0.1-0.2,0,0.1,0,0.1c0,0.1,0.1,0.3,0.1,0.4c0.1,0.2,0.1,0.5,0.2,0.7
					c0.1,0.3,0.6,0.4,0.8,0.2C23.4,34.2,23.4,33.9,23.3,33.6L23.3,33.6z"/>
			</g>
		</g>
		<g>
			<g>
				<path fill="#2D2D2D" d="M22,29.9c0-0.4,0-0.8-0.2-1.2c-0.1-0.3-0.4-0.5-0.8-0.4c-0.3,0.1-0.5,0.4-0.4,0.8
					c0.1,0.3,0.1,0.5,0.1,0.8c0,0.3,0.3,0.6,0.6,0.6C21.7,30.5,21.9,30.2,22,29.9L22,29.9z"/>
			</g>
		</g>
		<g>
			<g>
				<path fill="#2D2D2D" d="M21.5,26c0-0.4-0.1-0.7-0.2-1.1c-0.1-0.3-0.4-0.5-0.8-0.4c-0.3,0.1-0.5,0.4-0.4,0.8
					c0,0.1,0.1,0.2,0.1,0.4c0,0.1,0,0.2,0,0.2c0,0.1,0,0.1,0,0c0,0,0,0.1,0,0.1c0,0.3,0.2,0.6,0.6,0.6C21.2,26.6,21.5,26.3,21.5,26
					L21.5,26z"/>
			</g>
		</g>
		<g>
			<g>
				<path fill="#2D2D2D" d="M20.5,22.2c-0.7-2-2.4-2.9-3.9-4.3c-0.6-0.6-1.4,0.3-0.9,0.9c1.2,1.2,3,2,3.6,3.8
					C19.6,23.2,20.8,22.9,20.5,22.2L20.5,22.2z"/>
			</g>
		</g>
		<g>
			<g>
				<path fill="#2D2D2D" d="M22.4,36.7c0,1.4-0.8,2.8-1.2,4.1c-0.7,2.1-0.5,4.2,0,6.2c0.8,3.4,3.3,7.3,7.2,5.5
					c3.1-1.4,3.4-5.8,3.1-8.7c-0.2-1.5-0.6-3.1-1.5-4.4c-0.7-1.1-1.5-2-2.1-3.1c-0.8-1.4-1-3-1.2-4.5c-0.1-0.8-1.3-0.8-1.2,0
					c0.3,2,0.5,3.8,1.6,5.5c0.9,1.5,2.1,2.8,2.7,4.5c0.9,2.7,1.1,6.5-0.9,8.8c-1.3,1.5-3.2,1.5-4.6,0.2c-1.4-1.3-1.9-3.4-2.2-5.2
					c-0.3-1.8-0.1-3.4,0.5-5.1c0.4-1.2,1-2.5,1.1-3.8C23.6,35.9,22.4,35.9,22.4,36.7L22.4,36.7z"/>
			</g>
		</g>
		<g>
			<g>
				<path fill="#2D2D2D" d="M26.1,28.7c-0.1-0.3-0.2-0.6-0.3-1c0-0.3-0.5-0.5-0.8-0.4c-0.4,0.1-0.5,0.4-0.4,0.8c0,0.3,0.1,0.7,0.3,1
					c0.1,0.3,0.4,0.5,0.8,0.4C26,29.4,26.2,29,26.1,28.7L26.1,28.7z"/>
			</g>
		</g>
		<g>
			<g>
				<path fill="#2D2D2D" d="M25.3,25.3c0-0.3-0.1-0.6-0.1-0.9c0-0.3-0.2-0.6-0.6-0.6c-0.3,0-0.7,0.3-0.6,0.6c0,0.3,0.1,0.6,0.1,0.9
					c0,0.3,0.2,0.6,0.6,0.6C25,25.9,25.4,25.6,25.3,25.3L25.3,25.3z"/>
			</g>
		</g>
		<g>
			<g>
				<path fill="#2D2D2D" d="M24.9,21.7c0.7-1.8,2.2-3.2,3.1-4.9c0.4-0.7-0.7-1.3-1.1-0.6c-1,1.8-2.5,3.2-3.3,5.1
					C23.4,22.1,24.6,22.4,24.9,21.7L24.9,21.7z"/>
			</g>
		</g>
		<g>
			<g>
				<path fill="#2D2D2D" d="M17.4,19.8c3.3,0.4,6.6-0.2,9.6-1.5c0.7-0.3,0.1-1.4-0.6-1.1c-2.7,1.2-5.8,1.8-8.7,1.4
					C16.9,18.5,16.6,19.7,17.4,19.8L17.4,19.8z"/>
			</g>
		</g>
		<g>
			<g>
				<path fill="#2D2D2D" d="M19.1,39.4c-0.2-1.6-0.8-3-1.4-4.5c-0.7-1.7-1.3-3.3-1.7-5.1c-0.8-3.5-0.6-6.8,0.1-10.2
					c0.7-3,2.6-7.1,6.2-7c3,0.1,4.9,4,5.7,6.4c1.1,3.2,1,6.5,1.1,9.9c0.1,3.6,1,7,2,10.4c1.1,4,2.4,9.8-0.9,13.3
					c-2.2,2.3-6.4,1.9-8.4-0.3c-1.2-1.3-1.6-3-1.8-4.7c-0.3-1.9-0.5-3.8-0.4-5.6c0-0.8-1.2-0.8-1.2,0c-0.2,4.8,0.3,11.9,6.1,13.2
					c2,0.5,4.5,0.1,6.1-1.2c1.5-1.3,2.3-3.1,2.6-5c1-5.5-1.4-10.6-2.5-15.8c-0.7-3.5-0.2-7.1-0.7-10.7c-0.4-2.8-1.2-5.5-2.8-7.8
					c-1.5-2.2-4.1-3.9-6.8-3c-3.1,1-4.7,4.4-5.4,7.3c-0.8,3.2-1.2,6.6-0.5,9.9c0.4,1.9,0.9,3.8,1.7,5.7c0.7,1.7,1.5,3.4,1.8,5.2
					C18.1,40.5,19.3,40.2,19.1,39.4L19.1,39.4z"/>
			</g>
		</g>
		<g>
			<g>
				<path fill="#2D2D2D" d="M22,41.7c2.5,0,4.8-0.7,7-2c0.7-0.4,0.1-1.5-0.6-1.1c-2,1.2-4,1.9-6.4,1.9C21.2,40.4,21.2,41.7,22,41.7
					L22,41.7z"/>
			</g>
		</g>
		<g>
			<g>
				<path fill="#2D2D2D" d="M15.7,28.9c-1.5-5.4-2.4-13.9,2.8-17.7c2.7-1.9,5.8-1,7.9,1.3c2,2.3,2.4,5.9,2.5,8.8
					c0,0.8,1.3,0.8,1.2,0c-0.2-3.3-0.7-7-2.9-9.6c-2.1-2.6-5.5-3.4-8.5-2c-3,1.4-4.4,4.7-5,7.8c-0.7,3.9-0.3,8,0.8,11.8
					C14.7,30,15.9,29.7,15.7,28.9L15.7,28.9z"/>
			</g>
		</g>
		<g>
			<g>
				<path fill="#2D2D2D" d="M21.1,51.5c0.5-0.4,1.1-0.8,1.6-1.1c0.3-0.2,0.4-0.5,0.2-0.8c-0.2-0.3-0.6-0.4-0.8-0.2
					c-0.6,0.5-1.3,0.9-1.9,1.3c-0.3,0.2-0.2,0.6,0,0.9C20.5,51.7,20.9,51.7,21.1,51.5L21.1,51.5z"/>
			</g>
		</g>
		<g>
			<g>
				<path fill="#2D2D2D" d="M30.4,49.7c0.4,0.5,1,0.7,1.6,1c0.7,0.4,1.3-0.6,0.6-1.1c-0.4-0.3-1-0.4-1.3-0.8
					C30.7,48.3,29.8,49.2,30.4,49.7L30.4,49.7z"/>
			</g>
		</g>
	</g>
	<g>
		<g opacity="0.47">
			<path fill="#90A4AE" d="M37.1,61c0.6,1.7,2.9,3.8,4.8,3.9c1.7,0,2.7,0.2,5.1-1.2c0.6-0.3,2-2.8,2-2.9c0.1-0.4,0.9,2.2,1.9,1.3
				c0.6-0.5,0.2-6.2,0.2-7.1c-0.1-2.4-1.2-3.5-0.2-6c0.8-1.9,1.8-4.1,2.5-6c1.5-4.2,3.3-8.8,2.7-13.6c-0.3-2.1-1.6-8-5.3-8.6
				c-6.5-1-8.7,10.3-9.5,14.3c-1.4,6.6-1.1,13.1-2.9,19.5c-0.5,1.9-1.6,3.7-1.6,5.7"/>
		</g>
		<g>
			<g>
				<path fill="#F4F4F4" d="M54.3,31.4c-0.1-5.6,0.6-11-6-13.3c-4.7-1.9-8.4,3.8-9,7.6c-0.7,6-1,12.2-2.2,18.1
					c-0.9,4.6-5,14.6,0.5,17.5c2.6,1.2,5.6,2.1,7.6,0.4c2.3-2,4.4-6.9,4-9.7c-0.7-4.4,2.6-10.6,4.4-18.1"/>
			</g>
			<g>
				<path fill="#239956" d="M52.5,26.7c-1.5,0.9-3.7,2.7-4.4,4.3c1.3,0.2,3,1.3,1.9,2.4c-1.3,1-2.3-1.2-2.9,1.2
					c3.2,1,2.7,3.4-0.3,2.3c-1.6,2.7,1.4,1.5,1.6,2.5c0.5,1.9-1.6,2.1-2.9,1.7c-0.2,0.5-0.3,0.8-0.4,1.3c1.7,0.9,1.6,3.8,4,5.2
					c1.3-2.7,3.7-8.4,4-11.8c0.1-3.1,0.3-5.7-0.6-8.9"/>
			</g>
			<g>
				<path fill="#239956" d="M43.9,30c-0.1-1.8-1.8-4.1-3.2-5.3C37,32.1,39.4,36,37.7,41c-1.9,5.8-4,12.3-2.6,17.5
					c0.6,0.1,1.5-0.8,2.1-1.1c-0.7-4.1-0.9-6.2,1.3-9.5c1.6-2.1,3.3-5.1,3.3-7.7c-2.8-1.2,0.2-2.5,0.3-2.6c0.4-0.2,0.8-1.1,0.3-1.6
					c-1-0.9-0.8-2,0.7-2c-0.1-0.4,0.7-1.6,0.3-1.7c-1.3-0.2-1.2-1.6-0.1-2.1"/>
			</g>
			<g>
				<path fill="#239956" d="M48.6,50.4c-1-0.8-1.6-1.8-2.7-2.3c0.3,1.6,1.5,4-0.6,9.8c0,0.1,1.1,1.2,2,1.5c0.7-1.5,1.5-3.7,1.4-8.9"
					/>
			</g>
			<g>
				<path fill="#FFFFFF" d="M51.8,27c-3.3,1.6-14.8,0.1-9.1-5.5c3.8-3.7,8.7,0.9,9.4,5"/>
			</g>
		</g>
		<g>
			<g>
				<path fill="#2D2D2D" d="M47.8,40.6c-1.4-0.4-2.8-0.6-4.3-0.9c-0.7-0.1-1.4-0.3-2.1-0.4c-0.4-0.1-0.6-0.1-0.4-0.5
					c0.2-0.3,0.3-0.5,0.6-0.4c1.2,0.1,2.4,0.4,3.5,0.8c0.6,0.2,1.1,0.3,1.7,0.5c0.1,0,0.6,0.2,0.6,0.2c0.1,0.3-0.1,0.8-0.2,1
					c-0.5,0.6,0.6,1.3,1.1,0.6c0.4-0.6,0.4-1.3,0.4-1.9c-0.1-0.7-1.2-0.9-1.7-1.1c-1.7-0.6-3.7-1.3-5.6-1.2c-1.1,0-2.6,2.5-1.3,3.1
					c1,0.5,2.3,0.6,3.4,0.8c1.3,0.3,2.6,0.5,3.9,0.8C48.2,42,48.6,40.8,47.8,40.6L47.8,40.6z"/>
			</g>
		</g>
		<g>
			<g>
				<path fill="#2D2D2D" d="M48.8,36.7c-1.4-0.4-2.8-0.6-4.2-0.9c-0.7-0.2-1.4-0.3-2.1-0.6c-0.6-0.2-0.7-0.8,0-0.7
					c1.1,0.2,2.2,0.4,3.2,0.7c0.6,0.2,1.2,0.3,1.8,0.5c0.8,0.3,1.3,0.4,0.7,1.4c-0.4,0.7,0.6,1.3,1.1,0.6c0.5-0.7,0.7-1.5,0.3-2.3
					c-0.4-0.6-1.7-0.8-2.3-1c-1.6-0.5-3.4-1.1-5.1-1.1c-1.4,0-1.7,2.3-0.6,2.9c0.9,0.5,2.2,0.7,3.2,0.9c1.3,0.3,2.6,0.5,3.8,0.8
					C49.2,38,49.5,36.8,48.8,36.7L48.8,36.7z"/>
			</g>
		</g>
		<g>
			<g>
				<path fill="#2D2D2D" d="M49.9,32.9c-1.6-0.4-3.2-0.7-4.7-1c-0.8-0.2-1.5-0.3-2.3-0.5c0.2,0,0.5-0.7,0.9-0.7
					c1,0.1,2.1,0.4,3.1,0.7c0.8,0.2,3.4,0.4,2.5,1.8c-0.4,0.7,0.6,1.3,1.1,0.6c0.5-0.7,0.4-1.5,0-2.3c-0.3-0.7-1-0.7-1.7-0.9
					c-1.7-0.5-3.4-1-5.2-1.2c-1.1-0.1-2.6,1.8-1.7,2.7c0.7,0.7,2.3,0.7,3.3,0.9c1.4,0.3,2.9,0.6,4.3,0.9
					C50.3,34.2,50.6,33.1,49.9,32.9L49.9,32.9z"/>
			</g>
		</g>
		<g>
			<g>
				<path fill="#FFFFFF" d="M46.5,43.5c0.1,1.6,1.4,3.1,2.4,4.1c1.6,1.9,3,3.2,3.1,5.7c0.1,1.5-0.2,3-0.3,4.5c0,0.8,0.1,1.6,0.1,2.3
					c-2.4,0.2-1.4-4-1.5-5.6c0-2.3-0.5-3.1-1.9-4.8c-1.1-1.3-2.7-3.2-3.4-4.7c-0.2-0.6-0.4-1.5-0.2-2.1c0.2-0.7,1.9-0.7,1.7,0.4"/>
			</g>
			<g>
				<g>
					<path fill="#2D2D2D" d="M45.9,43.5c0.4,2.8,2.7,4.5,4.3,6.6c1,1.4,1.3,2.9,1.2,4.6c0,0.9-0.2,1.8-0.3,2.7c-0.1,0.9,0,1.9,0,2.8
						c0.2-0.2,0.4-0.4,0.6-0.6c-1.4,0-1-2.3-1-3.3c0.1-1.4,0.2-2.7-0.2-4.1c-0.4-1.5-1.7-2.7-2.7-3.9c-0.7-0.8-1.4-1.7-1.9-2.7
						c-0.3-0.5-0.5-0.9-0.6-1.5c-0.1-0.4-0.1-0.8,0.1-1.1c0.2-0.1,0.4,0,0.4,0.3c0,0.8,1.2,0.8,1.2,0c0.1-1.9-2.5-1.9-3-0.2
						c-0.6,2.6,2.3,5.4,3.8,7.1c0.9,1.1,1.6,2.2,1.7,3.6c0.1,1.1-0.1,2.1-0.1,3.2c-0.1,1.6,0.2,3.8,2.2,3.7c0.3,0,0.6-0.3,0.6-0.6
						c0-0.8-0.1-1.6-0.1-2.3c0-0.9,0.2-1.8,0.3-2.7c0.1-1.4,0.1-2.9-0.5-4.2c-0.5-1.2-1.4-2.2-2.3-3.2c-1.1-1.2-2.5-2.5-2.7-4.2
						C47,42.7,45.8,42.7,45.9,43.5L45.9,43.5z"/>
				</g>
			</g>
		</g>
		<g>
			<g>
				<path fill="#2D2D2D" d="M45.7,42.5c0.1-0.2,0.2-0.5,0.2-0.7c0-0.1,0.1-0.3,0.1-0.4c0-0.1,0.1-0.4,0.1-0.2
					c0.1-0.3,0.1-0.7-0.2-0.8c-0.3-0.2-0.7-0.1-0.8,0.2c-0.1,0.2-0.2,0.5-0.2,0.7c0,0.1-0.1,0.3-0.1,0.4c0,0.1-0.1,0.4-0.1,0.2
					c-0.1,0.3-0.1,0.7,0.2,0.8C45.2,42.9,45.6,42.8,45.7,42.5L45.7,42.5z"/>
			</g>
		</g>
		<g>
			<g>
				<path fill="#2D2D2D" d="M47.3,38.2c0-0.3,0-0.5,0.1-0.8c0.1-0.3-0.1-0.7-0.4-0.8c-0.3-0.1-0.6,0.1-0.8,0.4
					c-0.1,0.4-0.2,0.8-0.2,1.2c0,0.3,0.3,0.6,0.6,0.6C47,38.8,47.3,38.5,47.3,38.2L47.3,38.2z"/>
			</g>
		</g>
		<g>
			<g>
				<path fill="#2D2D2D" d="M47.9,34.5c0-0.3,0.1-0.6,0.2-0.9c0.1-0.3-0.1-0.7-0.4-0.8c-0.3-0.1-0.6,0.1-0.8,0.4
					c-0.1,0.3-0.2,0.6-0.2,0.9c0,0.3,0.1,0.7,0.4,0.8C47.4,35,47.8,34.8,47.9,34.5L47.9,34.5z"/>
			</g>
		</g>
		<g>
			<g>
				<path fill="#2D2D2D" d="M48.9,30.9c0.6-1.7,2.4-2.5,3.6-3.7c0.6-0.5-0.3-1.4-0.9-0.9c-1.5,1.4-3.2,2.2-4,4.2
					C47.4,31.3,48.6,31.6,48.9,30.9L48.9,30.9z"/>
			</g>
		</g>
		<g>
			<g>
				<path fill="#2D2D2D" d="M44.3,45c0,1.2,0.5,2.4,0.9,3.6c0.6,1.7,0.8,3.2,0.5,5c-0.3,1.8-0.8,3.6-1.9,5.1
					c-1.3,1.7-3.3,1.8-4.8,0.3c-2.1-2.1-1.7-5.9-1-8.5c0.5-1.7,1.5-2.9,2.5-4.3c1.4-1.8,1.8-3.8,2.1-6c0.1-0.8-1.1-1.1-1.2-0.3
					c-0.2,1.3-0.4,2.7-0.9,3.9c-0.5,1.1-1.4,2.1-2.1,3.1c-1.1,1.5-1.7,3.1-2,4.9c-0.5,3.1-0.2,6.9,2.6,8.8c3.7,2.5,6.6-1.8,7.5-4.9
					c0.6-2,0.9-4.2,0.3-6.3c-0.4-1.4-1.3-2.9-1.3-4.4C45.5,44.2,44.3,44.2,44.3,45L44.3,45z"/>
			</g>
		</g>
		<g>
			<g>
				<path fill="#2D2D2D" d="M43.1,37.3c0.1-0.3,0.2-0.6,0.3-1c0.1-0.3-0.1-0.7-0.4-0.8c-0.3-0.1-0.7,0.1-0.8,0.4
					c-0.1,0.3-0.2,0.7-0.3,1c-0.1,0.3,0.1,0.7,0.4,0.8C42.7,37.8,43,37.6,43.1,37.3L43.1,37.3z"/>
			</g>
		</g>
		<g>
			<g>
				<path fill="#2D2D2D" d="M44.1,33.7c0-0.3,0.1-0.6,0.1-0.9c0-0.3-0.1-0.7-0.4-0.8c-0.3-0.1-0.7,0.1-0.8,0.4
					c0,0.3-0.1,0.6-0.1,0.9c0,0.3,0.1,0.7,0.4,0.8C43.6,34.2,44,34,44.1,33.7L44.1,33.7z"/>
			</g>
		</g>
		<g>
			<g>
				<path fill="#2D2D2D" d="M44.5,29.7c-0.8-1.9-2.2-3.4-3.2-5.2c-0.4-0.7-1.4-0.1-1.1,0.6c0.9,1.7,2.3,3.1,3,4.9
					C43.6,30.7,44.8,30.4,44.5,29.7L44.5,29.7z"/>
			</g>
		</g>
		<g>
			<g>
				<path fill="#2D2D2D" d="M50.8,27c-3,0.3-6.1-0.3-8.8-1.6c-0.7-0.3-1.3,0.7-0.6,1.1c2.9,1.3,6.2,2.1,9.4,1.7
					C51.6,28.2,51.6,26.9,50.8,27L50.8,27z"/>
			</g>
		</g>
		<g>
			<g>
				<path fill="#2D2D2D" d="M49.9,48.2c0.3-1.6,1-3.1,1.6-4.6c0.7-1.6,1.2-3.2,1.7-4.8c0.9-3.2,0.8-6.2,0.3-9.4
					c-0.4-2.9-1.4-5.7-3.5-7.8c-2-2-4.7-2.2-7-0.6c-4.9,3.4-5.2,10.5-5.4,15.8c-0.1,3.8-1.2,7.3-2.3,10.9c-0.7,2.3-1.2,4.6-1.2,7
					c-0.1,4.5,2,8.9,7,9c7.1,0.3,8.2-7.8,8.1-13.2c0-0.8-1.2-0.8-1.2,0c0.1,2.9-0.2,6.3-1.5,8.9c-1.3,2.7-4.4,3.6-7.2,2.8
					c-4.4-1.2-4.4-7.3-3.7-10.9c0.6-3.3,1.9-6.4,2.6-9.6c0.8-3.5,0.4-7.1,0.9-10.6c0.4-2.9,1.4-5.8,3.4-8c1-1.1,2.3-1.9,3.8-1.9
					c1.9,0,3.4,1.8,4.3,3.3c1,1.6,1.4,3.5,1.6,5.4c0.3,2,0.5,4.1,0.2,6.1c-0.3,2.2-1,4.4-1.8,6.4c-0.8,1.9-1.7,3.7-2.1,5.7
					C48.6,48.6,49.8,48.9,49.9,48.2L49.9,48.2z"/>
			</g>
		</g>
		<g>
			<g>
				<path fill="#2D2D2D" d="M45.8,48.8c-2.3-0.1-4.4-0.7-6.3-2c-0.7-0.4-1.3,0.6-0.6,1.1c2.1,1.4,4.4,2.1,6.9,2.2
					C46.6,50,46.6,48.8,45.8,48.8L45.8,48.8z"/>
			</g>
		</g>
		<g>
			<g>
				<path fill="#2D2D2D" d="M53.6,37.7c1.8-6.1,2.8-16-3.8-19.6c-2.9-1.6-6.1-0.6-8.3,1.6c-2.5,2.5-3.1,6.5-3.3,9.9
					c-0.1,0.8,1.2,0.8,1.2,0c0.2-3,0.7-6.4,2.7-8.7c2.1-2.5,5.2-2.9,7.9-1.1c2.6,1.8,3.4,5.1,3.6,8.1c0.3,3.3-0.3,6.6-1.2,9.7
					C52.2,38.1,53.4,38.5,53.6,37.7L53.6,37.7z"/>
			</g>
		</g>
		<g>
			<g>
				<path fill="#2D2D2D" d="M47.4,59c-0.6-0.5-1.2-0.9-1.8-1.4c-0.3-0.2-0.7,0-0.8,0.2c-0.2,0.3,0,0.6,0.2,0.8
					c0.5,0.4,1.1,0.8,1.6,1.2c0.3,0.2,0.6,0.3,0.9,0C47.6,59.6,47.6,59.2,47.4,59L47.4,59z"/>
			</g>
		</g>
		<g>
			<g>
				<path fill="#2D2D2D" d="M36.4,57c-0.4,0.4-0.9,0.5-1.3,0.8c-0.7,0.4-0.1,1.5,0.6,1.1c0.5-0.3,1.1-0.5,1.6-1
					C37.8,57.3,37,56.4,36.4,57L36.4,57z"/>
			</g>
		</g>
	</g>
</g>
<g id="Layer_2">
	
		<text transform="matrix(1 0 0 1 61.7493 47.6186)" fill="#0097A7" stroke="#455A64" stroke-miterlimit="10" font-family="'Aller-Bold'" font-size="28.6776">SHOEHILL</text>
</g>
</svg>
