<?xml version="1.0" encoding="utf-8"?>
<!-- Generator: Adobe Illustrator 18.0.0, SVG Export Plug-In . SVG Version: 6.00 Build 0)  -->
<!DOCTYPE svg PUBLIC "-//W3C//DTD SVG 1.1//EN" "http://www.w3.org/Graphics/SVG/1.1/DTD/svg11.dtd">
<svg version="1.1" xmlns="http://www.w3.org/2000/svg" xmlns:xlink="http://www.w3.org/1999/xlink" x="0px" y="0px"
	 viewBox="0 0 450 95" enable-background="new 0 0 450 95" xml:space="preserve">
<g id="Layer_1">
	<rect x="-850.1" y="-141" fill="none" width="1658.6" height="450"/>
	<g id="Layer_1_1_">
	</g>
</g>
<g id="Layer_2_1_">
	<g>
		<defs>
			<rect id="SVGID_1_" y="-0.6" width="450" height="96.2"/>
		</defs>
		<clipPath id="SVGID_2_">
			<use xlink:href="#SVGID_1_"  overflow="visible"/>
		</clipPath>
		<g clip-path="url(#SVGID_2_)">
			<path fill="#FCF29B" d="M320.1,41l-15.3,3.2l-7.7,1.6l-3.9,0.8l-1.9,0.5c-0.2,0-0.2,0-0.2,0s0,0-0.2,0h-0.2
				c9.5-1,20-2.1,29.8-3.1l125.5-13l133.7-14v-31.6L442.7,14.7L320.1,41z"/>
			<path fill="#009AD8" d="M320.8,44.2c-9.8,1-20.3,2.1-29.8,3.1c-0.2,0-0.2,0.2-0.3,0.2c0.6,0,1.6,0.2,2.9,0.2h27.5h126.3H580V17
				L446.3,31L320.8,44.2z"/>
			<path fill="#FCF29B" d="M317.5,35l-14,6.4l-6.9,3.2l-3.5,1.6l-1.8,0.8c-0.3,0.2-0.5,0.3-0.8,0.3l0,0c0.2,0,0.3-0.2,0.3-0.2h0.2
				c0.2,0-0.2,0,0,0c-0.2,0,0,0-0.2,0c0.2,0,0.2,0,0.2,0s0,0,0.2,0l1.8-0.6l3.7-1.3l7.4-2.4l14.8-4.8l118.1-39l142.7-47.2V-85
				L429.3-16.2L317.5,35z"/>
			<path fill="#009AD8" d="M319.2,37.9l-14.8,4.8l-7.4,2.4l-3.7,1.3l-1.8,0.6h-0.2c0,0,0,0-0.2,0c0.2,0-0.2,0,0.2,0c-0.2,0,0,0,0,0
				s0,0,0.2,0c0,0,0,0,0.2,0l1.9-0.5l3.9-0.8l7.7-1.6l15.3-3.2l122.8-26.3L580-14.6v-33.7L437.2-1.1L319.2,37.9z"/>
			<path fill="#FCF29B" d="M313.4,29.7l-22.9,17.7l0,0h0.2c8.1-4.8,16.8-10.1,25.1-15.1l103.9-62.5l160.5-96.7v-49.3L407.8-43.3
				L313.4,29.7z"/>
			<path fill="#009AD8" d="M315.6,32.3c-8.4,5-17.1,10.3-25.1,15.1c0,0,0,0,0.2,0c0.2-0.2,0.5-0.2,0.8-0.3l1.8-0.8l3.5-1.6l6.9-3.2
				l14-6.4l111.6-51.2l150.6-69v-41.7L419.5-30.2L315.6,32.3z"/>
			<path fill="#FCF29B" d="M307.6,25.3c-5.6,7.2-11.6,14.7-17.2,21.6c0,0,0,0.2,0,0.3l20.3-20L394.4-55L547-205h-56.7l-111,139.7
				L307.6,25.3z"/>
			<path fill="#009AD8" d="M310.6,27.3l-20.3,19.8l0,0c0.2-0.2,0.3-0.2,0.3-0.3l0,0l0,0l0,0l0,0l0,0c0,0-0.2,0.2-0.3,0.3l0,0
				l22.9-17.7l94.6-73L580-176.5v-28.7h-33L394.4-55L310.6,27.3z"/>
			<path fill="#FCF29B" d="M290.5,46.6L290.5,46.6L290.5,46.6z"/>
			<path fill="#FCF29B" d="M301.1,22.3l-5.6,12.9l-2.7,6.4l-1.4,3.2l-0.6,1.6v0.2c0,0,0,0,0,0.2l0,0l0,0c0-0.2,0.2-0.2,0.2-0.3
				l1-1.4l1.8-3.1l3.7-6.1l7.4-12.2l58.8-97.3l79.3-131.1h-42.4L345.9-80.7L301.1,22.3z"/>
			<path fill="#009AD8" d="M304.3,23.6l-7.4,12.2l-3.7,6.1l-1.8,3.1l-1,1.4c0,0-0.2,0.2-0.2,0.3c0,0,0,0.2,0,0.3
				c5.6-6.9,11.4-14.5,17.2-21.6L379.4-65l111-139.7h-48L363.1-73.6L304.3,23.6z"/>
			<path fill="#FCF29B" d="M294,20.8c-1.3,8.9-2.6,18.2-3.7,26.4l0,0l0,0c0-0.2,0-0.2,0-0.3c0-0.2,0-0.2,0-0.3l0,0l0,0l0,0l0,0l0,0
				l0,0l0,0l0,0l0,0c0,0,0,0,0-0.2l0.5-1.6l1-3.4l1.9-6.6l3.7-13.4l30.3-107l33.7-119.4h-36.2L309-88.4L294,20.8z"/>
			<path fill="#009AD8" d="M297.6,21.3l-3.7,13.4l-1.9,6.6l-1,3.4l-0.5,1.6v0.2l0,0l0,0l0,0l0,0l0,0l0,0l0,0l0,0l0,0v-0.2
				c0,0,0,0,0-0.2l0.6-1.6l1.4-3.2l2.7-6.4l5.6-12.9l44.9-102.6L400-205h-38.7L327.7-85.5L297.6,21.3z"/>
			<path fill="#009AD8" d="M290.5,46.6L290.5,46.6L290.5,46.6z"/>
			<path fill="#FCF29B" d="M286.1,20.8c1.1,8.5,2.4,17.7,3.5,25.9c0,0.2,0.2,0.2,0.2,0.3c0-0.6,0.2-1.4,0.2-2.6v-24v-110V-205h-35
				l16.1,116.5L286.1,20.8z"/>
			<path fill="#009AD8" d="M290,20.5v24c0,1.3,0,2.1,0.2,2.7l0,0l0,0c1.1-8.4,2.4-17.7,3.7-26.4L309-88.4l16.1-116.5h-35v115.5V20.5
				H290z"/>
			<path fill="#FCF29B" d="M279,22.3l5.6,12.9l2.7,6.4l1.4,3.2l0.6,1.6v0.2c0,0,0,0,0-0.2l-0.5-1.6l-1-3.4l-1.9-6.6l-3.7-13.4
				l-30-107l-33.7-119.4h-38.7l54.1,124.2L279,22.3z"/>
			<path fill="#009AD8" d="M282.6,21.3l3.7,13.4l1.9,6.6l1,3.4l0.5,1.6v0.2l0,0l0,0v0.2c-1.1-8.2-2.4-17.4-3.5-25.9L271-88.6
				L254.9-205h-36.1l33.7,119.5L282.6,21.3z"/>
			<path fill="#009AD8" d="M289.7,46.6L289.7,46.6L289.7,46.6z"/>
			<path fill="#009AD8" d="M289.7,46.6L289.7,46.6L289.7,46.6L289.7,46.6z"/>
			<path fill="#FCF29B" d="M272.6,25.3c5.8,7.2,11.8,14.8,17.4,21.9c0,0,0,0,0-0.2c-0.2-0.2-0.3-0.5-0.3-0.6l-1-1.4l-1.8-3.1
				l-3.7-6.1l-7.4-12.2L217-73.7l-79.3-131.1h-48l111,139.7L272.6,25.3z"/>
			<path fill="#009AD8" d="M275.8,23.6l7.4,12.2l3.7,6.1l1.8,3.1l1,1.4c0.2,0.2,0.3,0.5,0.3,0.6l0,0c0-0.2-0.2-0.2-0.2-0.3v-0.2l0,0
				l0,0l0,0l0,0c0,0,0,0,0-0.2l-0.6-1.6l-1.4-3.2l-2.7-6.4l-5.6-12.9L234.2-80.7l-54.1-124.2h-42.4L217-73.7L275.8,23.6z"/>
			<path fill="#009AD8" d="M289.7,46.6L289.7,46.6L289.7,46.6L289.7,46.6z"/>
			<path fill="#FCF29B" d="M266.8,29.7l22.9,17.6l0,0c-0.2-0.2-0.3-0.3-0.3-0.3l0,0l0,0l0,0l0,0l0,0c0,0,0.2,0.2,0.5,0.3l0,0
				l-20.3-20L185.8-55L33.2-205h-33v28.7L172.4-43.3L266.8,29.7z"/>
			<path fill="#009AD8" d="M269.5,27.3l20.3,20l0,0v-0.2c-5.6-7.1-11.6-14.7-17.4-21.9l-71.7-90.4l-111-139.7H33l152.6,150
				L269.5,27.3z"/>
			<path fill="#FCF29B" d="M262.6,35l14,6.4l6.9,3.2l3.5,1.6l1.8,0.8c0.2,0,0.2,0.2,0.3,0.2c0,0,0.2,0,0.3,0
				c-8.1-4.8-16.6-10-24.8-15L160.6-30.2L0.2-126.9v41.7l150.6,69L262.6,35z"/>
			<path fill="#009AD8" d="M264.5,32.3c8.2,5,16.9,10.1,24.8,15c0,0,0.2,0,0.3,0l-22.9-17.6l-94.4-73L0.2-176.2v49.3l160.5,96.7
				L264.5,32.3z"/>
			<path fill="#FCF29B" d="M260,41l15.3,3.2l7.7,1.6l3.9,0.8l1.9,0.5c0.2,0,0.2,0,0.2,0s0,0-0.2,0l-1.8-0.6l-3.7-1.3l-7.4-2.4
				l-14.8-4.8l-118.3-39L0.2-48.3v33.7l137.1,29.3L260,41z"/>
			<path fill="#009AD8" d="M261,37.9l14.8,4.8l7.4,2.4l3.7,1.3l1.8,0.6c0.2,0,0.2,0,0.2,0c0.2,0,0,0,0.2,0l0,0
				c-0.2,0-0.2-0.2-0.3-0.2l-1.8-0.8l-3.5-1.6l-6.9-3.2l-14-6.4L150.8-16.2L0.2-85.2v36.9L142.9-1.1L261,37.9z"/>
			<path fill="#FCF29B" d="M259.1,47.6h27.5c0.2,0,0.6,0,0.8,0h1.9h0.3c0,0,0,0,0.2,0c0,0,0-0.2-0.2-0.2l0,0
				c-9.7-1-20.3-2.1-30.4-3.2l-125.5-13L0,17.1v30.4h132.6H259.1z"/>
			<path fill="#FCF29B" d="M290.3,47.6h0.3h1.9h0.8c-1.3,0-2.1,0-2.9-0.2l0,0C290.6,47.4,290.5,47.4,290.3,47.6
				C290.5,47.4,290.5,47.4,290.3,47.6C290.3,47.4,290.3,47.4,290.3,47.6L290.3,47.6z"/>
			<path fill="#009AD8" d="M259.4,44.2c10.1,1.1,20.8,2.3,30.4,3.2l0,0l0,0c-0.2,0-0.2,0-0.3,0s-0.2,0-0.3,0l0,0c-0.2,0,0.2,0-0.2,0
				h-0.2l-1.9-0.5l-3.9-0.8l-7.7-1.6L260,41.3L137.3,14.7L0.2-14.6V17l133.7,14L259.4,44.2z"/>
			<path fill="#FCF29B" d="M260,54l15.3-3.2l7.7-1.6l3.9-0.8l1.9-0.5h0.2l0,0l0,0l0,0h0.2c-9.5,1-20,2.1-29.8,3.1L133.9,64L0.2,78
				v31.6l137.1-29.3L260,54z"/>
			<path fill="#FCF29B" d="M289,47.9L289,47.9L289,47.9L289,47.9z"/>
			<path fill="#009AD8" d="M259.4,51c9.8-1,20.3-2.1,29.8-3.1c0.2,0,0.2-0.2,0.3-0.2c-0.6,0-1.6-0.2-2.9-0.2h-27.5H132.8H0.2V78
				l133.7-14L259.4,51z"/>
			<path fill="#FCF29B" d="M262.6,60l14-6.4l6.9-3.2l3.5-1.6l1.8-0.8c0.2-0.2,0.5-0.3,0.8-0.3l0,0c-0.2,0-0.3,0.2-0.3,0.2h-0.2l0,0
				l0,0l0,0l0,0h0.2l0,0l0,0c-0.2,0-0.2,0-0.2,0s0,0-0.2,0l-1.8,0.6l-4,1.4l-7.4,2.4L261,57.1l-118.1,39L0.2,143.3v36.9l150.6-69
				L262.6,60z"/>
			<path fill="#009AD8" d="M261,57.1l14.8-4.8l7.4-2.4l3.7-1.3l1.8-0.6h0.2c0,0,0,0,0.2,0l0,0c0,0,0,0-0.2,0l0,0l0,0c0,0,0,0-0.2,0
				l-1.9,0.5l-3.9,0.8l-7.7,1.6L259.9,54L137.3,80.3L0.2,109.6v33.7l142.7-47.2L261,57.1z"/>
			<path fill="#009AD8" d="M289,47.9L289,47.9L289,47.9z"/>
			<path fill="#009AD8" d="M289,47.9L289,47.9L289,47.9L289,47.9z"/>
			<path fill="#009AD8" d="M288.9,47.9C289,47.9,289,47.9,288.9,47.9C289,47.9,289,47.9,288.9,47.9C289,47.9,288.9,47.9,288.9,47.9z
				"/>
			<path fill="#FCF29B" d="M266.8,65.5l22.9-17.7h-0.2c-8.1,4.8-16.8,10.1-25.1,15.1l-103.8,62.5L0.2,222.1v49.3l172.2-132.9
				L266.8,65.5z"/>
			<path fill="#FCF29B" d="M290.2,47.3L290.2,47.3L290.2,47.3l0.3-0.2c0.2-0.2,0.2-0.2,0.2-0.2l0,0l0,0
				C290.6,47.1,290.5,47.1,290.2,47.3C290.3,47.3,290.3,47.3,290.2,47.3C290.3,47.3,290.3,47.3,290.2,47.3
				C290.3,47.3,290.3,47.3,290.2,47.3z"/>
			<path fill="#FCF29B" d="M289.8,47.6L289.8,47.6L289.8,47.6L289.8,47.6L289.8,47.6z"/>
			<path fill="#009AD8" d="M264.5,62.7c8.4-5,17.1-10.3,25.1-15.1c0,0,0,0-0.2,0c-0.2,0.2-0.5,0.2-0.8,0.3l-1.8,0.8l-3.5,1.6
				l-6.9,3.2l-14,6.4l-111.6,51.2l-150.6,69v41.7l160.5-96.7L264.5,62.7z"/>
			<path fill="#009AD8" d="M290.3,47.3L290.3,47.3C290.2,47.3,290.2,47.3,290.3,47.3L290.3,47.3z"/>
			<path fill="#009AD8" d="M289.8,47.6L289.8,47.6C289.8,47.6,289.8,47.4,289.8,47.6L289.8,47.6L289.8,47.6z"/>
			<path fill="#FCF29B" d="M272.6,69.8c5.6-7.2,11.6-14.7,17.2-21.6c0,0,0-0.2,0-0.3l-20.3,19.8L185.8,150L33.2,300h56.7l111-139.7
				L272.6,69.8z"/>
			<path fill="#FCF29B" d="M290.5,47.3l-0.3,0.3l0,0l0,0C290.3,47.4,290.3,47.4,290.5,47.3l0.2-0.2l0,0
				C290.6,46.9,290.6,47.1,290.5,47.3z"/>
			<path fill="#009AD8" d="M185.8,150l83.8-82.3l20.3-19.8v-0.2l0,0l0,0L267,65.5l-94.6,73L0.2,271.4V300h33L185.8,150z"/>
			<path fill="#009AD8" d="M290.6,46.9C290.6,46.9,290.8,46.9,290.6,46.9L290.6,46.9z"/>
			<path fill="#009AD8" d="M290.2,47.4C290.3,47.4,290.3,47.4,290.2,47.4l0.3-0.2c0.2-0.2,0.2-0.2,0.2-0.2l0,0l0,0l0,0l0,0
				c0,0,0,0-0.2,0.2L290.2,47.4z"/>
			<path fill="#009AD8" d="M290.6,46.9L290.6,46.9C290.8,46.9,290.8,46.9,290.6,46.9z"/>
			<path fill="#FCF29B" d="M279,72.9l5.6-12.9l2.7-6.4l1.4-3.2l0.6-1.6v-0.2c0,0,0,0,0-0.2l0,0c0,0.2-0.2,0.2-0.2,0.3l-1,1.4
				l-1.8,3.1l-3.7,6.1l-7.4,12.2l-58.8,97.3L137.4,300h42.7l54.1-124.4L279,72.9z"/>
			<path fill="#009AD8" d="M275.8,71.4l7.4-12.2l3.7-6.1l1.8-3.1l1-1.4c0,0,0.2-0.2,0.2-0.3c0,0,0-0.2,0-0.3
				c-5.6,6.9-11.4,14.5-17.2,21.6L200.7,160l-111,139.7h48L217,168.6L275.8,71.4z"/>
			<path fill="#009AD8" d="M290.3,47.4L290.3,47.4L290.3,47.4L290.3,47.4L290.3,47.4L290.3,47.4z"/>
			<path fill="#FCF29B" d="M286.1,74.3c1.3-8.9,2.6-18.2,3.7-26.6l0,0v0.2c0,0.2,0,0.2,0,0.3c0,0.2,0,0.2,0,0.3l0,0l0,0l0,0l0,0l0,0
				l0,0l0,0l0,0l0,0l0,0c0,0,0,0,0,0.2l-0.5,1.6l-1,3.4l-1.9,6.6l-3.7,13.4l-30.1,106.8L218.8,300H255l16.1-116.5L286.1,74.3z"/>
			<path fill="#FCF29B" d="M289.8,47.6L289.8,47.6L289.8,47.6L289.8,47.6L289.8,47.6z"/>
			<path fill="#009AD8" d="M282.6,73.7l3.7-13.4l1.9-6.6l1-3.4l0.5-1.6v-0.2l0,0l0,0l0,0l0,0v0.2c0,0,0,0,0,0.2l-0.6,1.6l-1.4,3.2
				l-2.7,6.4L279.2,73L234.4,176L180.1,300h38.7l33.7-119.4L282.6,73.7z"/>
			<path fill="#009AD8" d="M289.7,48.5C289.7,48.5,289.7,48.4,289.7,48.5L289.7,48.5z"/>
			<path fill="#009AD8" d="M289.7,48.5C289.7,48.5,289.7,48.4,289.7,48.5L289.7,48.5z"/>
			<path fill="#009AD8" d="M289.7,48.5L289.7,48.5L289.7,48.5L289.7,48.5z"/>
			<path fill="#FCF29B" d="M294,74.3c-1.1-8.5-2.4-17.7-3.5-25.9c0-0.2-0.2-0.2-0.2-0.3c0,0,0-0.2-0.2-0.2v0.3v1.6
				c0,0.3,0,0.6,0,0.8v24v110v115.5h35L309,183.6L294,74.3z"/>
			<path fill="#FCF29B" d="M290,47.1v0.3c0,0,0.2,0,0.2,0.2v-0.2l0,0l0,0c-0.2-0.6-0.2-1.6-0.2-2.7v0.8V47.1z"/>
			<path fill="#009AD8" d="M290,74.5v-24c0-0.2,0-0.5,0-0.8v-1.8v-0.3c0,0,0,0,0-0.2h-0.2c-1.1,8.4-2.4,17.7-3.7,26.6L271,183.2
				l-16.1,116.5h35V184.2V74.5H290z"/>
			<path fill="#009AD8" d="M290,47.4v-0.3v-1.8v-0.8c0,1.1,0,1.9-0.2,2.6l0,0c0,0,0,0,0,0.2v0.2C290,47.3,290,47.4,290,47.4z"/>
			<path fill="#009AD8" d="M289.8,47.6L289.8,47.6L289.8,47.6z"/>
			<path fill="#FCF29B" d="M301.1,72.9L295.5,60l-2.7-6.4l-1.4-3.2l-0.6-1.6v-0.2c0,0,0,0,0,0.2l0.5,1.6l1,3.4l1.9,6.6l3.7,13.4
				l30.1,106.8l33.7,119.4h38.7l-54.1-124.4L301.1,72.9z"/>
			<path fill="#009AD8" d="M297.6,73.7l-3.7-13.4l-1.9-6.6l-1-3.4l-0.5-1.6v-0.2c0-0.2,0,0,0,0v-0.2c1.1,8.2,2.4,17.4,3.5,25.9
				l15,109.2L325.1,300h36.2l-33.7-119.4L297.6,73.7z"/>
			<path fill="#009AD8" d="M290.3,47.4L290.3,47.4C290.2,47.3,290.2,47.3,290.3,47.4L290.3,47.4L290.3,47.4L290.3,47.4z"/>
			<path fill="#FCF29B" d="M307.6,69.8c-5.8-7.4-11.9-15-17.6-22.1l0,0c0,0,0,0,0,0.2c0,0,0,0.2,0.2,0.2c0.2,0.2,0.3,0.5,0.5,0.6
				l1,1.4l1.8,3.1l3.7,6.1l7.4,12.2l58.8,97.3L442.6,300h48l-111-139.7L307.6,69.8z"/>
			<path fill="#FCF29B" d="M289.8,47.6L289.8,47.6L289.8,47.6L289.8,47.6L289.8,47.6c0,0,0-0.2-0.2-0.2
				C289.8,47.4,289.8,47.4,289.8,47.6C289.8,47.4,289.8,47.6,289.8,47.6z"/>
			<path fill="#009AD8" d="M304.3,71.4l-7.4-12.2l-3.7-6.1l-1.8-3.1l-1-1.4c-0.2-0.2-0.3-0.5-0.5-0.6c0.2,0.2,0.2,0.3,0.2,0.3v0.2
				c0,0,0-0.2,0,0c0,0,0,0,0,0.2l0.6,1.6l1.4,3.2l2.7,6.4l5.6,12.9l44.8,102.9L399.5,300h42.4l-79.3-131.1L304.3,71.4z"/>
			<path fill="#FCF29B" d="M313.4,65.5l-22.9-17.6c0,0-0.2,0-0.3,0l20.5,19.8l83.8,82.3L547,300h33v-28.7L407.8,138.4L313.4,65.5z"
				/>
			<path fill="#FCF29B" d="M290,47.6h0.2l-0.5-0.3c-0.2-0.2-0.2-0.2-0.2-0.2l0,0l0,0c0,0,0,0,0.2,0.2L290,47.6z"/>
			<path fill="#FCF29B" d="M289.3,46.9L289.3,46.9C289.5,46.9,289.3,46.9,289.3,46.9z"/>
			<path fill="#FCF29B" d="M289.3,46.9L289.3,46.9L289.3,46.9C289.3,46.9,289.5,46.9,289.3,46.9z"/>
			<path fill="#009AD8" d="M310.6,67.7l-20.5-20H290c5.6,7.1,11.8,14.8,17.6,22.1l71.9,90.5l111,139.7h56.7L394.4,150L310.6,67.7z"
				/>
			<path fill="#009AD8" d="M289.8,47.6L289.8,47.6l-0.3-0.3c-0.2-0.2-0.2-0.2-0.2-0.2l0,0l0,0c0,0,0.2,0.2,0.3,0.3l0,0l0,0
				C289.8,47.4,289.8,47.4,289.8,47.6z"/>
			<path fill="#FCF29B" d="M317.5,60l-14-6.4l-6.9-3.2l-3.5-1.6l-1.8-0.8c-0.2,0-0.2-0.2-0.3-0.2c0,0-0.2,0-0.3,0
				c8.1,4.8,16.6,10,24.8,15l103.9,62.5l160.5,96.7v-41.7l-150.6-69L317.5,60z"/>
			<path fill="#FCF29B" d="M290.3,47.6L290.3,47.6L290.3,47.6C290.3,47.4,290.3,47.4,290.3,47.6C290.3,47.4,290.3,47.4,290.3,47.6
				C290.3,47.4,290.3,47.4,290.3,47.6c-0.2-0.2-0.2-0.2-0.2-0.2s-0.2,0-0.2-0.2l0,0l0,0C290,47.4,290.2,47.4,290.3,47.6z"/>
			<path fill="#009AD8" d="M315.6,62.7c-8.2-5-16.8-10.1-24.8-15c-0.2,0-0.2,0-0.3,0l22.9,17.6l94.4,73.1L580,271.4v-49.3
				l-160.5-96.7L315.6,62.7z"/>
			<path fill="#009AD8" d="M289.7,47.1l0.5,0.3h0.2c-0.2-0.2-0.3-0.2-0.5-0.3c-0.2-0.2-0.3-0.2-0.5-0.3l0,0
				C289.5,46.9,289.5,47.1,289.7,47.1z"/>
			<path fill="#009AD8" d="M289.3,46.9L289.3,46.9L289.3,46.9L289.3,46.9z"/>
			<path fill="#FCF29B" d="M320.1,54l-15.3-3.2l-7.7-1.6l-3.9-0.8l-1.9-0.5c-0.2,0-0.2,0-0.2,0s0,0,0.2,0l1.8,0.6l3.7,1.3l7.4,2.4
				l14.8,4.8l118.1,39L580,143.3v-33.7L442.9,80.3L320.1,54z"/>
			<path fill="#009AD8" d="M319.2,57.1l-14.8-4.8l-7.4-2.4l-3.7-1.3l-1.8-0.6c-0.2,0-0.2,0-0.2,0s0,0-0.2,0l0,0l0,0
				c0.2,0,0.2,0.2,0.3,0.2l1.8,0.8l3.5,1.6l6.9,3.2l14,6.4l111.8,51.2l150.6,69v-37.1L437.4,96.1L319.2,57.1z"/>
			<path fill="#FCF29B" d="M321.1,47.6h-27.5h-0.8h-1.9h-0.3l0,0h-0.2h-0.2H290l0,0l0,0l0,0l0,0l0,0h-0.3h-1.9c-0.3,0-0.8,0-0.8,0
				c1.3,0,2.1,0,2.9,0.2l0,0c0,0,0,0,0.2,0h0.2l0,0c9.7,1,20.8,2.1,30.9,3.2l125.5,13l133.7,14V47.6H447.7H321.1z"/>
			<path fill="#009AD8" d="M320.8,51c-10.3-1.1-21.3-2.3-30.9-3.2l0,0l0,0h0.2l0,0h0.2c0.2,0,0.2,0,0.3,0c0.2,0,0.2,0,0.3,0
				c0.2,0,0.2,0,0.3,0l0,0l0,0c0,0,0,0,0.2,0c0,0,0,0,0.2,0l1.9,0.5l3.9,0.8l7.7,1.6l15.3,3.2L443,80.1l137.1,29.3V78L446.4,64
				L320.8,51z"/>
		</g>
		<g clip-path="url(#SVGID_2_)">
			<g>
				<g id="Layer_2">
					<defs>
						<rect id="SVGID_3_" x="246.7" y="-14.6" width="326.4" height="114.2"/>
					</defs>
					<clipPath id="SVGID_4_">
						<use xlink:href="#SVGID_3_"  overflow="visible"/>
					</clipPath>
					<g clip-path="url(#SVGID_4_)">
						<g opacity="0.3">
							<g>
							</g>
						</g>
						<g opacity="0.3">
						</g>
						<g display="none">
							<g display="inline">
								<defs>
									<rect id="SVGID_5_" x="196.1" y="-14.6" width="421" height="114.2"/>
								</defs>
								<clipPath id="SVGID_6_">
									<use xlink:href="#SVGID_5_"  overflow="visible"/>
								</clipPath>
								<g clip-path="url(#SVGID_6_)">
									<path fill="#FCF29B" d="M520.7,33.6l-15.5,3.3l-7.8,1.6l-3.9,0.8l-2,0.5c-0.2,0-0.2,0-0.2,0s0,0-0.2,0H491
										c9.6-1,20.2-2.1,30.2-3.1l127.1-13.2L783.8,9.2v-32L644.9,7L520.7,33.6z"/>
									<path fill="#009AD8" d="M521.4,36.8c-10,1-20.6,2.1-30.2,3.1c-0.2,0-0.2,0.2-0.3,0.2c0.7,0,1.6,0.2,2.9,0.2h27.9h127.9
										h134.3v-31L648.5,23.4L521.4,36.8z"/>
									<path fill="#FCF29B" d="M518.1,27.5L503.9,34l-7,3.3l-3.6,1.6l-1.8,0.8c-0.3,0.2-0.5,0.3-0.8,0.3l0,0
										c0.2,0,0.3-0.2,0.3-0.2h0.2c0.2,0-0.2,0,0,0c-0.2,0,0,0-0.2,0c0.2,0,0.2,0,0.2,0s0,0,0.2,0l1.8-0.7l3.8-1.3l7.5-2.4l15-4.9
										L639-8.9l144.6-47.8v-37.4L631.3-24.4L518.1,27.5z"/>
									<path fill="#009AD8" d="M519.7,30.5l-15,4.9l-7.5,2.4l-3.8,1.3l-1.8,0.7h-0.2c0,0,0,0-0.2,0c0.2,0-0.2,0,0.2,0
										c-0.2,0,0,0,0,0s0,0,0.2,0c0,0,0,0,0.2,0l2-0.5l3.9-0.8l7.8-1.6l15.5-3.3L645.4,7l138.5-29.7v-34.1L639.3-9L519.7,30.5z"/>
									<path fill="#FCF29B" d="M513.9,22.1l-23.2,17.9l0,0h0.2c8.2-4.9,17-10.3,25.5-15.3l105.3-63.3l162.5-97.9v-49.9L609.5-51.8
										L513.9,22.1z"/>
									<path fill="#009AD8" d="M516.1,24.7c-8.5,5.1-17.3,10.4-25.5,15.3c0,0,0,0,0.2,0c0.2-0.2,0.5-0.2,0.8-0.3l1.8-0.8l3.6-1.6
										l7-3.3l14.2-6.5l113.1-51.9l152.6-69.8v-42.3L621.4-38.6L516.1,24.7z"/>
									<path fill="#FCF29B" d="M508,17.7c-5.7,7.3-11.7,14.8-17.5,21.9c0,0,0,0.2,0,0.3l20.6-20.2l84.9-83.4l154.5-151.9H693
										L580.6-74.1L508,17.7z"/>
									<path fill="#009AD8" d="M511.1,19.7l-20.6,20.1l0,0c0.2-0.2,0.3-0.2,0.3-0.3l0,0l0,0l0,0l0,0l0,0c0,0-0.2,0.2-0.3,0.3l0,0
										l23.2-17.9l95.8-73.9l174.4-134.6v-29h-33.5L595.9-63.7L511.1,19.7z"/>
									<path fill="#FCF29B" d="M490.7,39.3L490.7,39.3L490.7,39.3z"/>
									<path fill="#FCF29B" d="M501.5,14.6l-5.7,13.1l-2.8,6.5l-1.5,3.3l-0.7,1.6v0.2c0,0,0,0,0,0.2l0,0l0,0
										c0-0.2,0.2-0.2,0.2-0.3l1-1.5l1.8-3.1l3.8-6.2l7.5-12.4l59.6-98.6l80.3-132.8H602L546.8-89.6L501.5,14.6z"/>
									<path fill="#009AD8" d="M504.7,15.9l-7.5,12.4l-3.8,6.2l-1.8,3.1l-1,1.5c0,0-0.2,0.2-0.2,0.3c0,0,0,0.2,0,0.3
										c5.7-7,11.6-14.7,17.5-21.9l72.8-91.7l112.4-141.5h-48.6L564.3-82.5L504.7,15.9z"/>
									<path fill="#FCF29B" d="M494.3,13.2c-1.3,9-2.6,18.4-3.8,26.8l0,0l0,0c0-0.2,0-0.2,0-0.3c0-0.2,0-0.2,0-0.3l0,0l0,0l0,0
										l0,0l0,0l0,0l0,0l0,0l0,0c0,0,0,0,0-0.2l0.5-1.6l1-3.4l2-6.7l3.8-13.5l30.7-108.4l34.1-120.9h-36.7l-16.3,118L494.3,13.2z"
										/>
									<path fill="#009AD8" d="M497.9,13.6l-3.8,13.5l-2,6.7l-1,3.4l-0.5,1.6v0.2l0,0l0,0l0,0l0,0l0,0l0,0l0,0l0,0l0,0v-0.2
										c0,0,0,0,0-0.2l0.7-1.6l1.5-3.3l2.8-6.5l5.7-13.1l45.5-103.9l54.8-126h-39.2L528.4-94.5L497.9,13.6z"/>
									<path fill="#009AD8" d="M490.7,39.3L490.7,39.3L490.7,39.3z"/>
									<path fill="#FCF29B" d="M486.3,13.2c1.1,8.6,2.4,17.9,3.6,26.3c0,0.2,0.2,0.2,0.2,0.3c0-0.7,0.2-1.5,0.2-2.6V12.8V-98.6
										v-117h-35.4l16.3,118L486.3,13.2z"/>
									<path fill="#009AD8" d="M490.2,12.8v24.3c0,1.3,0,2.1,0.2,2.8l0,0l0,0c1.1-8.5,2.4-17.9,3.8-26.8l15.3-110.6l16.3-118
										h-35.4v117V12.8H490.2z"/>
									<path fill="#FCF29B" d="M479.1,14.6l5.7,13.1l2.8,6.5l1.5,3.3l0.7,1.6v0.2c0,0,0,0,0-0.2l-0.5-1.6l-1-3.4l-2-6.7l-3.8-13.5
										L452.2-94.5l-34.1-120.9h-39.2l54.8,125.8L479.1,14.6z"/>
									<path fill="#009AD8" d="M482.7,13.6l3.8,13.5l2,6.7l1,3.4l0.5,1.6v0.2l0,0l0,0v0.2c-1.1-8.3-2.4-17.6-3.6-26.3L470.9-97.6
										l-16.3-118h-36.6l34.1,121.1L482.7,13.6z"/>
									<path fill="#009AD8" d="M489.9,39.3L489.9,39.3L489.9,39.3z"/>
									<path fill="#009AD8" d="M489.9,39.3L489.9,39.3L489.9,39.3L489.9,39.3z"/>
									<path fill="#FCF29B" d="M472.6,17.7c5.9,7.3,11.9,15,17.6,22.2c0,0,0,0,0-0.2c-0.2-0.2-0.3-0.5-0.3-0.7l-1-1.5l-1.8-3.1
										l-3.8-6.2l-7.5-12.4l-59.6-98.6L336-215.5h-48.6L399.8-74L472.6,17.7z"/>
									<path fill="#009AD8" d="M475.8,15.9l7.5,12.4l3.8,6.2l1.8,3.1l1,1.5c0.2,0.2,0.3,0.5,0.3,0.7l0,0c0-0.2-0.2-0.2-0.2-0.3
										v-0.2l0,0l0,0l0,0l0,0c0,0,0,0,0-0.2l-0.7-1.6l-1.5-3.3l-2.8-6.5l-5.7-13.1L433.7-89.6l-54.8-125.8H336l80.3,132.8
										L475.8,15.9z"/>
									<path fill="#009AD8" d="M489.9,39.3L489.9,39.3L489.9,39.3L489.9,39.3z"/>
									<path fill="#FCF29B" d="M466.7,22.1l23.2,17.8l0,0c-0.2-0.2-0.3-0.3-0.3-0.3l0,0l0,0l0,0l0,0l0,0c0,0,0.2,0.2,0.5,0.3l0,0
										l-20.6-20.2l-84.9-83.4L230.1-215.6h-33.5v29L371.1-51.8L466.7,22.1z"/>
									<path fill="#009AD8" d="M469.5,19.7L490,39.9l0,0v-0.2c-5.7-7.2-11.7-14.8-17.6-22.2L399.8-74L287.4-215.5h-57.4
										L384.5-63.5L469.5,19.7z"/>
									<path fill="#FCF29B" d="M462.5,27.5l14.2,6.5l7,3.3l3.6,1.6l1.8,0.8c0.2,0,0.2,0.2,0.3,0.2c0,0,0.2,0,0.3,0
										c-8.2-4.9-16.8-10.1-25.1-15.2L359.2-38.6l-162.5-97.9v42.3l152.6,69.8L462.5,27.5z"/>
									<path fill="#009AD8" d="M464.4,24.7c8.3,5.1,17.1,10.3,25.1,15.2c0,0,0.2,0,0.3,0l-23.2-17.8l-95.6-73.9L196.6-186.4v49.9
										l162.5,97.9L464.4,24.7z"/>
									<path fill="#FCF29B" d="M459.8,33.6l15.5,3.3l7.8,1.6l3.9,0.8l2,0.5c0.2,0,0.2,0,0.2,0s0,0-0.2,0l-1.8-0.7l-3.8-1.3
										l-7.5-2.4l-15-4.9L341.2-9L196.6-56.8v34.1L335.5,7L459.8,33.6z"/>
									<path fill="#009AD8" d="M460.8,30.5l15,4.9l7.5,2.4l3.8,1.3l1.8,0.7c0.2,0,0.2,0,0.2,0c0.2,0,0,0,0.2,0l0,0
										c-0.2,0-0.2-0.2-0.3-0.2l-1.8-0.8l-3.6-1.6l-7-3.3l-14.2-6.5L349.2-24.4L196.6-94.2v37.4L341.2-9L460.8,30.5z"/>
									<path fill="#FCF29B" d="M458.9,40.2h27.9c0.2,0,0.7,0,0.8,0h2h0.3c0,0,0,0,0.2,0c0,0,0-0.2-0.2-0.2l0,0
										c-9.8-1-20.6-2.1-30.8-3.3L331.9,23.6L196.5,9.4v30.8h134.3H458.9z"/>
									<path fill="#FCF29B" d="M490.5,40.2h0.3h2h0.8c-1.3,0-2.1,0-2.9-0.2l0,0C490.8,40.1,490.7,40.1,490.5,40.2
										C490.7,40.1,490.7,40.1,490.5,40.2C490.5,40.1,490.5,40.1,490.5,40.2L490.5,40.2z"/>
									<path fill="#009AD8" d="M459.2,36.8c10.3,1.1,21.1,2.3,30.8,3.3l0,0l0,0c-0.2,0-0.2,0-0.3,0s-0.2,0-0.3,0l0,0
										c-0.2,0,0.2,0-0.2,0h-0.2l-2-0.5l-3.9-0.8l-7.8-1.6l-15.5-3.3L335.5,7L196.6-22.7v32l135.4,14.2L459.2,36.8z"/>
									<path fill="#FCF29B" d="M459.8,46.8l15.5-3.3l7.8-1.6l3.9-0.8l2-0.5h0.2l0,0l0,0l0,0h0.2c-9.6,1-20.2,2.1-30.2,3.1
										L332.1,56.9L196.6,71.1v32l138.9-29.7L459.8,46.8z"/>
									<path fill="#FCF29B" d="M489.2,40.6L489.2,40.6L489.2,40.6L489.2,40.6z"/>
									<path fill="#009AD8" d="M459.2,43.7c10-1,20.6-2.1,30.2-3.1c0.2,0,0.2-0.2,0.3-0.2c-0.7,0-1.6-0.2-2.9-0.2h-27.9H330.9
										H196.6v30.8l135.4-14.2L459.2,43.7z"/>
									<path fill="#FCF29B" d="M462.5,52.8l14.2-6.5l7-3.3l3.6-1.6l1.8-0.8c0.2-0.2,0.5-0.3,0.8-0.3l0,0c-0.2,0-0.3,0.2-0.3,0.2
										h-0.2l0,0l0,0l0,0l0,0h0.2l0,0l0,0c-0.2,0-0.2,0-0.2,0s0,0-0.2,0l-1.8,0.7l-4.1,1.5l-7.5,2.4l-15,4.9L341.2,89.4
										l-144.6,47.8v37.4l152.6-69.8L462.5,52.8z"/>
									<path fill="#009AD8" d="M460.8,49.9l15-4.9l7.5-2.4l3.8-1.3l1.8-0.7h0.2c0,0,0,0,0.2,0l0,0c0,0,0,0-0.2,0l0,0l0,0
										c0,0,0,0-0.2,0l-2,0.5l-3.9,0.8l-7.8,1.6l-15.5,3.3L335.5,73.4l-138.9,29.7v34.1l144.6-47.8L460.8,49.9z"/>
									<path fill="#009AD8" d="M489.2,40.6L489.2,40.6L489.2,40.6z"/>
									<path fill="#009AD8" d="M489.2,40.6L489.2,40.6L489.2,40.6L489.2,40.6z"/>
									<path fill="#009AD8" d="M489.1,40.6C489.2,40.6,489.2,40.6,489.1,40.6C489.2,40.6,489.2,40.6,489.1,40.6
										C489.2,40.6,489.1,40.6,489.1,40.6z"/>
									<path fill="#FCF29B" d="M466.7,58.4l23.2-17.9h-0.2c-8.2,4.9-17,10.3-25.5,15.3l-105.1,63.3L196.6,217v49.9l174.4-134.6
										L466.7,58.4z"/>
									<path fill="#FCF29B" d="M490.4,39.9L490.4,39.9L490.4,39.9l0.3-0.2c0.2-0.2,0.2-0.2,0.2-0.2l0,0l0,0
										C490.8,39.8,490.7,39.8,490.4,39.9C490.5,39.9,490.5,39.9,490.4,39.9C490.5,39.9,490.5,39.9,490.4,39.9
										C490.5,39.9,490.5,39.9,490.4,39.9z"/>
									<path fill="#FCF29B" d="M490,40.2L490,40.2L490,40.2L490,40.2L490,40.2z"/>
									<path fill="#009AD8" d="M464.4,55.6c8.5-5.1,17.3-10.4,25.5-15.3c0,0,0,0-0.2,0c-0.2,0.2-0.5,0.2-0.8,0.3l-1.8,0.8
										l-3.6,1.6l-7,3.3l-14.2,6.5l-113.1,51.9l-152.6,69.8v42.3l162.5-97.9L464.4,55.6z"/>
									<path fill="#009AD8" d="M490.5,39.9L490.5,39.9C490.4,39.9,490.4,39.9,490.5,39.9L490.5,39.9z"/>
									<path fill="#009AD8" d="M490,40.2L490,40.2C490,40.2,490,40.1,490,40.2L490,40.2L490,40.2z"/>
									<path fill="#FCF29B" d="M472.6,62.8c5.7-7.3,11.7-14.8,17.5-21.9c0,0,0-0.2,0-0.3l-20.6,20.1L384.6,144L230.1,295.9h57.4
										L400,154.5L472.6,62.8z"/>
									<path fill="#FCF29B" d="M490.7,39.9l-0.3,0.3l0,0l0,0C490.5,40.1,490.5,40.1,490.7,39.9l0.2-0.2l0,0
										C490.8,39.6,490.8,39.8,490.7,39.9z"/>
									<path fill="#009AD8" d="M384.6,144l84.9-83.4L490,40.6v-0.2l0,0l0,0l-23.2,17.9l-95.8,73.9L196.6,266.9v29h33.5L384.6,144z
										"/>
									<path fill="#009AD8" d="M490.8,39.6C490.8,39.6,491,39.6,490.8,39.6L490.8,39.6z"/>
									<path fill="#009AD8" d="M490.4,40.1C490.5,40.1,490.5,40.1,490.4,40.1l0.3-0.2c0.2-0.2,0.2-0.2,0.2-0.2l0,0l0,0l0,0l0,0
										c0,0,0,0-0.2,0.2L490.4,40.1z"/>
									<path fill="#009AD8" d="M490.8,39.6L490.8,39.6C491,39.6,491,39.6,490.8,39.6z"/>
									<path fill="#FCF29B" d="M479.1,65.9l5.7-13.1l2.8-6.5l1.5-3.3l0.7-1.6v-0.2c0,0,0,0,0-0.2l0,0c0,0.2-0.2,0.2-0.2,0.3
										l-1,1.5l-1.8,3.1l-3.8,6.2l-7.5,12.4l-59.6,98.6l-80.3,132.8h43.2l54.8-126L479.1,65.9z"/>
									<path fill="#009AD8" d="M475.8,64.4l7.5-12.4l3.8-6.2l1.8-3.1l1-1.5c0,0,0.2-0.2,0.2-0.3c0,0,0-0.2,0-0.3
										c-5.7,7-11.6,14.7-17.5,21.9l-72.8,91.7L287.4,295.6H336l80.3-132.8L475.8,64.4z"/>
									<path fill="#009AD8" d="M490.5,40.1L490.5,40.1L490.5,40.1L490.5,40.1L490.5,40.1L490.5,40.1z"/>
									<path fill="#FCF29B" d="M486.3,67.3c1.3-9,2.6-18.4,3.8-26.9l0,0v0.2c0,0.2,0,0.2,0,0.3c0,0.2,0,0.2,0,0.3l0,0l0,0l0,0l0,0
										l0,0l0,0l0,0l0,0l0,0l0,0c0,0,0,0,0,0.2l-0.5,1.6l-1,3.4l-2,6.7l-3.8,13.5l-30.5,108.2l-34.3,121.1h36.7l16.3-118
										L486.3,67.3z"/>
									<path fill="#FCF29B" d="M490,40.2L490,40.2L490,40.2L490,40.2L490,40.2z"/>
									<path fill="#009AD8" d="M482.7,66.7l3.8-13.5l2-6.7l1-3.4l0.5-1.6v-0.2l0,0l0,0l0,0l0,0v0.2c0,0,0,0,0,0.2l-0.7,1.6
										l-1.5,3.3L485,53L479.3,66l-45.4,104.3l-55,125.6h39.2L452.2,175L482.7,66.7z"/>
									<path fill="#009AD8" d="M489.9,41.2C489.9,41.2,489.9,41.1,489.9,41.2L489.9,41.2z"/>
									<path fill="#009AD8" d="M489.9,41.2C489.9,41.2,489.9,41.1,489.9,41.2L489.9,41.2z"/>
									<path fill="#009AD8" d="M489.9,41.2L489.9,41.2L489.9,41.2L489.9,41.2z"/>
									<path fill="#FCF29B" d="M494.3,67.3c-1.1-8.6-2.4-17.9-3.6-26.3c0-0.2-0.2-0.2-0.2-0.3c0,0,0-0.2-0.2-0.2v0.3v1.6
										c0,0.3,0,0.7,0,0.8v24.3v111.5v117h35.4L509.4,178L494.3,67.3z"/>
									<path fill="#FCF29B" d="M490.2,39.8v0.3c0,0,0.2,0,0.2,0.2v-0.2l0,0l0,0c-0.2-0.7-0.2-1.6-0.2-2.8v0.8V39.8z"/>
									<path fill="#009AD8" d="M490.2,67.5V43.2c0-0.2,0-0.5,0-0.8v-1.8v-0.3c0,0,0,0,0-0.2H490c-1.1,8.5-2.4,17.9-3.8,26.9
										l-15.3,110.6l-16.3,118H490v-117V67.5H490.2z"/>
									<path fill="#009AD8" d="M490.2,40.1v-0.3V38v-0.8c0,1.1,0,2-0.2,2.6l0,0c0,0,0,0,0,0.2v0.2
										C490.2,39.9,490.2,40.1,490.2,40.1z"/>
									<path fill="#009AD8" d="M490,40.2L490,40.2L490,40.2z"/>
									<path fill="#FCF29B" d="M501.5,65.9l-5.7-13.1l-2.8-6.5l-1.5-3.3l-0.7-1.6v-0.2c0,0,0,0,0,0.2l0.5,1.6l1,3.4l2,6.7
										l3.8,13.5l30.5,108.2l34.1,120.9h39.2l-54.8-126L501.5,65.9z"/>
									<path fill="#009AD8" d="M497.9,66.7l-3.8-13.5l-2-6.7l-1-3.4l-0.5-1.6v-0.2c0-0.2,0,0,0,0v-0.2c1.1,8.3,2.4,17.6,3.6,26.3
										L509.4,178l16.3,118h36.7L528.4,175L497.9,66.7z"/>
									<path fill="#009AD8" d="M490.5,40.1L490.5,40.1C490.4,39.9,490.4,39.9,490.5,40.1L490.5,40.1L490.5,40.1L490.5,40.1z"/>
									<path fill="#FCF29B" d="M508,62.8c-5.9-7.5-12.1-15.2-17.8-22.4l0,0c0,0,0,0,0,0.2c0,0,0,0.2,0.2,0.2
										c0.2,0.2,0.3,0.5,0.5,0.7l1,1.5l1.8,3.1l3.8,6.2l7.5,12.4l59.6,98.6l80.3,132.8h48.6L580.9,154.5L508,62.8z"/>
									<path fill="#FCF29B" d="M490,40.2L490,40.2L490,40.2L490,40.2L490,40.2c0,0,0-0.2-0.2-0.2C490,40.1,490,40.1,490,40.2
										C490,40.1,490,40.2,490,40.2z"/>
									<path fill="#009AD8" d="M504.7,64.4L497.2,52l-3.8-6.2l-1.8-3.1l-1-1.5c-0.2-0.2-0.3-0.5-0.5-0.7c0.2,0.2,0.2,0.3,0.2,0.3
										v0.2c0,0,0-0.2,0,0c0,0,0,0,0,0.2l0.7,1.6l1.5,3.3l2.8,6.5l5.7,13.1L546.3,170l54.8,126h42.9l-80.3-132.8L504.7,64.4z"/>
									<path fill="#FCF29B" d="M513.9,58.4l-23.2-17.8c0,0-0.2,0-0.3,0l20.7,20.1l84.9,83.4l154.5,151.9h33.5v-29L609.5,132.3
										L513.9,58.4z"/>
									<path fill="#FCF29B" d="M490.2,40.2h0.2l-0.5-0.3c-0.2-0.2-0.2-0.2-0.2-0.2l0,0l0,0c0,0,0,0,0.2,0.2L490.2,40.2z"/>
									<path fill="#FCF29B" d="M489.5,39.6L489.5,39.6C489.7,39.6,489.5,39.6,489.5,39.6z"/>
									<path fill="#FCF29B" d="M489.5,39.6L489.5,39.6L489.5,39.6C489.5,39.6,489.7,39.6,489.5,39.6z"/>
									<path fill="#009AD8" d="M511.1,60.6l-20.7-20.2h-0.2c5.7,7.2,11.9,15,17.8,22.4l72.8,91.7l112.4,141.5h57.4L595.9,144
										L511.1,60.6z"/>
									<path fill="#009AD8" d="M490,40.2L490,40.2l-0.3-0.3c-0.2-0.2-0.2-0.2-0.2-0.2l0,0l0,0c0,0,0.2,0.2,0.3,0.3l0,0l0,0
										C490,40.1,490,40.1,490,40.2z"/>
									<path fill="#FCF29B" d="M518.1,52.8l-14.2-6.5l-7-3.3l-3.6-1.6l-1.8-0.8c-0.2,0-0.2-0.2-0.3-0.2c0,0-0.2,0-0.3,0
										c8.2,4.9,16.8,10.1,25.1,15.2l105.3,63.3l162.5,97.9v-42.3l-152.6-69.8L518.1,52.8z"/>
									<path fill="#FCF29B" d="M490.5,40.2L490.5,40.2L490.5,40.2C490.5,40.1,490.5,40.1,490.5,40.2
										C490.5,40.1,490.5,40.1,490.5,40.2C490.5,40.1,490.5,40.1,490.5,40.2c-0.2-0.2-0.2-0.2-0.2-0.2s-0.2,0-0.2-0.2l0,0l0,0
										C490.2,40.1,490.4,40.1,490.5,40.2z"/>
									<path fill="#009AD8" d="M516.1,55.6c-8.3-5.1-17-10.3-25.1-15.2c-0.2,0-0.2,0-0.3,0l23.2,17.8l95.6,74.1l174.4,134.6V217
										l-162.5-97.9L516.1,55.6z"/>
									<path fill="#009AD8" d="M489.9,39.8l0.5,0.3h0.2c-0.2-0.2-0.3-0.2-0.5-0.3c-0.2-0.2-0.3-0.2-0.5-0.3l0,0
										C489.7,39.6,489.7,39.8,489.9,39.8z"/>
									<path fill="#009AD8" d="M489.5,39.6L489.5,39.6L489.5,39.6L489.5,39.6z"/>
									<path fill="#FCF29B" d="M520.7,46.8l-15.5-3.3l-7.8-1.6l-3.9-0.8l-2-0.5c-0.2,0-0.2,0-0.2,0s0,0,0.2,0l1.8,0.7l3.8,1.3
										l7.5,2.4l15,4.9l119.6,39.5l144.7,47.8v-34.1L645.1,73.4L520.7,46.8z"/>
									<path fill="#009AD8" d="M519.7,49.9l-15-4.9l-7.5-2.4l-3.8-1.3l-1.8-0.7c-0.2,0-0.2,0-0.2,0s0,0-0.2,0l0,0l0,0
										c0.2,0,0.2,0.2,0.3,0.2l1.8,0.8l3.6,1.6l7,3.3l14.2,6.5l113.2,51.9l152.6,69.8v-37.5L639.5,89.4L519.7,49.9z"/>
									<path fill="#FCF29B" d="M521.7,40.2h-27.9H493h-2h-0.3l0,0h-0.2h-0.2h-0.2l0,0l0,0l0,0l0,0l0,0h-0.3h-2c-0.3,0-0.8,0-0.8,0
										c1.3,0,2.1,0,2.9,0.2l0,0c0,0,0,0,0.2,0h0.2l0,0c9.8,1,21.1,2.1,31.3,3.3l127.1,13.2l135.4,14.2V40.2H649.9H521.7z"/>
									<path fill="#009AD8" d="M521.4,43.7c-10.4-1.1-21.5-2.3-31.3-3.3l0,0l0,0h0.2l0,0h0.2c0.2,0,0.2,0,0.3,0s0.2,0,0.3,0
										s0.2,0,0.3,0l0,0l0,0c0,0,0,0,0.2,0c0,0,0,0,0.2,0l2,0.5l3.9,0.8l7.8,1.6l15.5,3.3l124.3,26.6l138.9,29.7V71.1L648.6,56.9
										L521.4,43.7z"/>
								</g>
							</g>
							<g>
								<g id="XMLID_1_" display="inline">
									<g>
										<path fill="#C4E7FB" d="M491.7,39.3c1.5,0.7,2.8,1.5,4.1,2.8c4.7,4.7,13.7,10.3,23.7,8.8c10-1.5,29.9-10.9,41,5.7
											c-2.1,1-4.1,2-5.4,2.6c-6.9,3.6-29,11.3-48.1,13.2s-41.9,0-45.4-0.8c-3.4-0.8-20.9-3.9-21.5-8c-0.2-1,0.3-2,1.1-2.8l0,0
											c2.4-2.3,7.8-3.8,8.8-3.9c1.5-0.3,24.5-12.4,26.6-14.8c2.1-2.4,5.4-4.7,7.2-4.4C484.8,38,488.2,37.6,491.7,39.3z"/>
									</g>
									<g>
										<path fill="#2789CA" d="M518.6,7.6c0,0,4.1-2.1,3.4,3.6l0,0c-12.1,10.6-28.4,26.8-28.6,27.1l0,0c-1,0.5-1.5,1-1.6,1
											c-3.6-1.6-7-1.3-8.2-1.5c0,0,2.3-3.3,6.4-5.1c4.2-1.8,9.8-5.9,11.6-7.7C503.4,23.3,517,10.9,518.6,7.6z"/>
									</g>
									<g>
										<path fill="#009AD8" d="M547.3,10.9c0.7,1.5,1.1,3.1,1.8,5.1c-4.4-3.4-9.3-5.4-15.2-1.8c-7.3,4.6-33.5,20.1-40.3,24.2
											c0.2-0.2,16.6-16.5,28.6-27.1c5.7-5.1,10.3-8.6,11.9-9C538,1.7,543.6,2.7,547.3,10.9L547.3,10.9z"/>
									</g>
									<g>
										<path fill="#4273B8" d="M590.4,3.7c0.3,6.9-7,16.5-14,20.4c-7.2,3.8-15.8,2.9-21.7-2.9c-1.8-1.8-3.6-3.6-5.5-5.2
											c-0.5-2-1.1-3.6-1.8-5.1c0.2-0.2,21.2-9.5,22.4-9.6c0.7-0.2,5.2-1.8,10-2.9l0,0C580.4-1.9,590.1-3,590.4,3.7z"/>
									</g>
									<g>
										<path fill="#3ABFF0" d="M596.7,15.1c0.2,0.2,5.7,13.9,5.9,20.9c0,0-2.4,5.1-12.2,8.6c-7.8,2.9-21.4,8.2-30,11.9
											c-10.9-16.6-31-7-41-5.7c-10,1.5-18.9-4.2-23.7-8.8c-1.3-1.3-2.8-2.3-4.1-2.8c0.2,0,0.7-0.5,1.6-1l0,0
											c6.9-4.1,33-19.6,40.3-24.2c5.9-3.6,10.8-1.6,15.2,1.8c2,1.5,3.8,3.4,5.5,5.2c5.9,5.9,14.5,6.9,21.7,2.9
											c7.2-3.8,14.4-13.5,14-20.4c-0.3-6.7-10-5.5-10.6-5.4c3.6-0.8,7.3-1.3,9.6-0.3c5.1,2.3,7.8,7,7.8,12.9
											C597.1,12.3,596.9,13.8,596.7,15.1L596.7,15.1z"/>
									</g>
									<g>
										<path fill="#EDEDED" d="M534.6,87.1c0,0,0.3,1.1-0.3,2.4c-0.5,1-1.8,2-4.6,2.1c-6.2,0.5-26.8,4.6-31.3,4.9
											c-4.6,0.3-33.3,1-44.4-2.9c-11.1-3.9-19.4-5.4-21.4-9.8c-2-4.4,0.8-15,1.1-16c0.3-1.1,1.3-1.1,2.3-1.8
											c-0.2,0.5-0.3,1.1-0.3,1.8c0,0-1,1.6,2.6,3.8c3.6,2.1,11.1,7.3,47,7.8C521.4,79.7,530.7,74,534.6,87.1z"/>
									</g>
									<g>
										<path fill="#FFFFFF" d="M603.9,39.9c0.2,3.3,0.5,14.5-0.7,17c-1.1,2.4-9.6,7.3-13.7,8.5c-3.9,1-30.5,11.7-35.7,16
											c-5.2,4.2-16.6,8.2-19.3,8.2h-0.3c0.7-1.1,0.3-2.4,0.3-2.4c-3.9-13.1-13.2-7.3-49.1-7.8s-43.4-5.7-47-7.8
											c-3.6-2.1-2.6-3.8-2.6-3.8c0-0.7,0.2-1.1,0.3-1.8c1.1-3.8,4.9-5.1,5.1-5.1c-0.8,0.8-1.3,1.6-1.1,2.8
											c0.7,3.9,18.1,7.2,21.5,8c3.4,0.8,26.3,2.8,45.4,0.8c19.1-2,41.3-9.6,48.1-13.2c1.3-0.8,3.3-1.6,5.4-2.6
											c8.6-3.9,22-9,30-11.9c10-3.6,12.2-8.6,12.2-8.6S603.8,36.7,603.9,39.9z"/>
									</g>
								</g>
								<g display="inline">
									<path fill="#C4E7FB" d="M508.3,48.7l-0.2-0.2l0.7-0.3l0.2,0.2L508.3,48.7z M510.6,47.6l-0.2-0.2l0.7-0.3l0.2,0.2
										L510.6,47.6z M512.7,46.4l-0.2-0.2l0.7-0.3l0.2,0.2L512.7,46.4z M514.8,45.3l-0.2-0.2l0.7-0.3l0.2,0.2L514.8,45.3z
										 M517,44.2l-0.2-0.2l0.7-0.3l0.2,0.2L517,44.2z M519.2,43l-0.2-0.2l0.7-0.3l0.2,0.2L519.2,43z M521.4,42l-0.2-0.2l0.7-0.3
										l0.2,0.2L521.4,42z M523.5,40.9l-0.2-0.2l0.7-0.3l0.2,0.2L523.5,40.9z M525.6,39.8l-0.2-0.2l0.7-0.3l0.2,0.2L525.6,39.8z
										 M527.7,38.6l-0.2-0.2l0.7-0.3l0.2,0.2L527.7,38.6z M569.8,38.1L569.8,38.1l-0.2-0.2h0.2c0.2,0,0.3,0,0.5,0v0.2
										C570.2,38.1,570,38.1,569.8,38.1z M567.9,38.1c-0.2,0-0.5,0-0.7,0V38c0.2,0,0.5,0,0.7,0V38.1z M572.1,38v-0.2
										c0.2,0,0.5,0,0.7,0V38C572.6,38,572.4,38,572.1,38z M565.6,37.8c-0.2,0-0.5,0-0.7-0.2v-0.2c0.2,0,0.5,0,0.7,0.2V37.8z
										 M574.6,37.6v-0.2c0.2,0,0.5-0.2,0.7-0.2v0.2C575,37.5,574.7,37.6,574.6,37.6z M530,37.5l-0.2-0.2l0.7-0.3l0.2,0.2
										L530,37.5z M563.1,37.3c-0.2,0-0.5-0.2-0.7-0.2V37c0.2,0,0.5,0.2,0.7,0.2V37.3z M576.8,36.8l-0.2-0.2
										c0.2-0.2,0.3-0.2,0.7-0.3l0.2,0.2C577.3,36.7,577,36.7,576.8,36.8z M560.7,36.7c-0.2,0-0.5-0.2-0.7-0.2v-0.2
										c0.2,0,0.5,0.2,0.7,0.2V36.7z M532.1,36.3l-0.2-0.2l0.7-0.3l0.2,0.2L532.1,36.3z M558.4,36c-0.2,0-0.5-0.2-0.7-0.2l0.2-0.2
										c0.2,0.2,0.5,0.2,0.7,0.2L558.4,36z M579,35.5l-0.2-0.2c0.2-0.2,0.3-0.3,0.7-0.3l0.2,0.2C579.3,35.3,579.1,35.5,579,35.5z
										 M534.3,35.3l-0.2-0.2l0.7-0.3l0.2,0.2L534.3,35.3z M556.1,35c-0.2-0.2-0.5-0.2-0.7-0.3l0.2-0.2c0.2,0.2,0.5,0.2,0.7,0.3
										L556.1,35z M580.9,34.2l-0.2-0.2c0.2-0.2,0.3-0.3,0.5-0.5l0.2,0.2C581.4,33.9,581.1,34,580.9,34.2z M536.4,34.2l-0.2-0.2
										l0.7-0.3l0.2,0.2L536.4,34.2z M554,34c-0.2-0.2-0.5-0.2-0.7-0.3l0.2-0.2c0.2,0.2,0.5,0.2,0.7,0.3L554,34z M538.7,33.1
										l-0.2-0.2l0.7-0.3l0.2,0.2L538.7,33.1z M551.7,32.9c-0.2-0.2-0.3-0.2-0.7-0.3l0.2-0.2c0.2,0.2,0.3,0.2,0.7,0.3L551.7,32.9z
										 M582.9,32.7l-0.2-0.2c0.2-0.2,0.3-0.3,0.5-0.5l0.2,0.2C583.4,32.4,583,32.6,582.9,32.7z M540.8,31.9l-0.2-0.2l0.7-0.3
										l0.2,0.2L540.8,31.9z M549.8,31.8c-0.2-0.2-0.3-0.2-0.7-0.3l0.2-0.2c0.2,0.2,0.3,0.2,0.7,0.3L549.8,31.8z M584.8,31.3
										l-0.2-0.2c0.2-0.2,0.3-0.3,0.5-0.5l0.2,0.2C585.2,30.9,585,31.1,584.8,31.3z M542.9,30.8l-0.2-0.2l0.7-0.3l0.2,0.2
										L542.9,30.8z M547.6,30.5c-0.2-0.2-0.3-0.3-0.7-0.3l0.2-0.2c0.2,0.2,0.3,0.3,0.7,0.3L547.6,30.5z M545,29.6l-0.2-0.2
										l0.7-0.3l0.2,0.2L545,29.6z M586.8,29.6l-0.2-0.2c0.3-0.3,0.5-0.5,0.5-0.5l0.2,0.2C587.3,29.1,587.1,29.5,586.8,29.6z"/>
								</g>
								<g display="inline">
									<ellipse fill="#4273B8" cx="541.8" cy="21.8" rx="3.3" ry="2.8"/>
									<path fill="#009AD8" d="M541.8,25.4c-2.1,0-3.9-1.6-3.9-3.6s1.8-3.6,3.9-3.6s3.9,1.6,3.9,3.6S544,25.4,541.8,25.4z
										 M541.8,19.7c-1.3,0-2.4,1-2.4,2c0,1.1,1.1,2,2.4,2s2.4-1,2.4-2C544.2,20.7,543.1,19.7,541.8,19.7z"/>
								</g>
								<g display="inline">
									<ellipse fill="#4273B8" cx="532.9" cy="26" rx="3.3" ry="2.8"/>
									<path fill="#009AD8" d="M532.9,29.6c-2.1,0-3.9-1.6-3.9-3.6s1.8-3.6,3.9-3.6s3.9,1.6,3.9,3.6C537,28,535.2,29.6,532.9,29.6
										z M532.9,24.1c-1.3,0-2.4,1-2.4,2c0,1.1,1.1,2,2.4,2c1.3,0,2.4-1,2.4-2C535.4,24.9,534.4,24.1,532.9,24.1z"/>
								</g>
								<g display="inline">
									<ellipse fill="#4273B8" cx="524.1" cy="30.6" rx="3.3" ry="2.8"/>
									<path fill="#009AD8" d="M524.1,34.2c-2.1,0-3.9-1.6-3.9-3.6s1.8-3.6,3.9-3.6c2.1,0,3.9,1.6,3.9,3.6
										C528.2,32.6,526.4,34.2,524.1,34.2z M524.1,28.7c-1.3,0-2.4,1-2.4,2c0,1.1,1.1,2,2.4,2c1.3,0,2.4-1,2.4-2
										C526.6,29.6,525.6,28.7,524.1,28.7z"/>
								</g>
								<g display="inline">
									<ellipse fill="#4273B8" cx="515.3" cy="35" rx="3.3" ry="2.8"/>
									<path fill="#009AD8" d="M515.3,38.4c-2.1,0-3.9-1.6-3.9-3.6c0-2,1.8-3.6,3.9-3.6s3.9,1.6,3.9,3.6
										C519.4,37,517.6,38.4,515.3,38.4z M515.3,32.9c-1.3,0-2.4,1-2.4,2c0,1.1,1.1,2,2.4,2s2.4-1,2.4-2S516.8,32.9,515.3,32.9z"
										/>
								</g>
								<g display="inline">
									<ellipse fill="#4273B8" cx="506.2" cy="38.8" rx="3.3" ry="2.8"/>
									<path fill="#009AD8" d="M506.2,42.4c-2.1,0-3.9-1.6-3.9-3.6c0-2,1.8-3.6,3.9-3.6c2.1,0,3.9,1.6,3.9,3.6
										C510.3,40.7,508.5,42.4,506.2,42.4z M506.2,36.8c-1.3,0-2.4,1-2.4,2c0,1.1,1.1,2,2.4,2s2.4-1,2.4-2
										C508.6,37.6,507.7,36.8,506.2,36.8z"/>
								</g>
								<g display="inline">
									<path fill="#FFFFFF" d="M541.8,23.4c-0.5,0-0.8-0.2-1.1-0.3c-3.9-2.6-8.8-5.7-10-6.2c-1-0.2-4.6,0.5-7.3,1
										c-1.1,0.2-2.3-0.5-2.4-1.6c-0.2-1.1,0.5-2.3,1.6-2.4c2.1-0.5,7.2-1.3,9.1-1c0.7,0.2,1.8,0.5,6.7,3.6
										c2.4,1.6,4.7,3.1,4.7,3.1c1,0.7,1.3,2,0.5,2.9C543.1,23.1,542.4,23.4,541.8,23.4z"/>
								</g>
								<g display="inline">
									<path fill="#FFFFFF" d="M532.9,27.8c-0.3,0-0.8-0.2-1.1-0.3c-3.4-2.1-7.5-4.7-8.6-5.2c-1,0-4.2,0.5-7,1.1
										c-1.1,0.2-2.3-0.5-2.4-1.6c-0.2-1.1,0.5-2.3,1.6-2.4c7.3-1.5,8.3-1.1,8.8-1.1c0.3,0.2,1.3,0.3,10,5.9c1,0.7,1.3,2,0.7,2.9
										C534.4,27.5,533.8,27.8,532.9,27.8z"/>
								</g>
								<g display="inline">
									<path fill="#FFFFFF" d="M524.1,32.1c-0.5,0-0.8-0.2-1.1-0.3c-2.9-2-6.9-4.4-8.2-4.9c-1.6,0.5-5.2,1.6-5.4,1.6
										c-1.1,0.3-2.3-0.3-2.6-1.5c-0.3-1.1,0.3-2.3,1.5-2.6c0,0,4.7-1.5,5.7-1.8c1.1-0.3,2.4-0.2,7,2.8c2.3,1.3,4.2,2.8,4.4,2.8
										c1,0.7,1.3,2,0.7,2.9C525.6,31.8,525,32.1,524.1,32.1z"/>
								</g>
								<g display="inline">
									<path fill="#FFFFFF" d="M521.2,19.4c-0.8,0-1.6-0.5-2-1.3c-0.7-1.5-3.4-4.6-5.1-6.2c-0.8-0.8-0.8-2.1,0-3.1
										c0.8-0.8,2.1-0.8,3.1,0c0.5,0.5,4.7,4.9,5.9,7.5c0.5,1.1,0,2.3-1.1,2.8C521.8,19.4,521.5,19.4,521.2,19.4z"/>
								</g>
								<g display="inline">
									<path fill="#FFFFFF" d="M514.2,23.9c-0.8,0-1.6-0.5-2-1.3c-0.8-1.8-2.8-4.2-3.4-5.1c-0.8-1-0.7-2.3,0.3-2.9
										c1-0.8,2.3-0.7,2.9,0.3c0.2,0.2,2.8,3.3,3.9,6c0.5,1.1,0,2.3-1,2.8C514.7,23.9,514.3,23.9,514.2,23.9z"/>
								</g>
								<g display="inline">
									<path fill="#FFFFFF" d="M506.8,30c-0.8,0-1.6-0.5-2-1.3l-2.6-6.2c-0.5-1.1,0-2.3,1.1-2.8c1.1-0.5,2.3,0,2.8,1.1l2.6,6.2
										c0.5,1.1,0,2.3-1.1,2.8C507.3,30,507,30,506.8,30z"/>
								</g>
								<g display="inline">
									<path fill="#FFFFFF" d="M515.3,36.8c-0.5,0-1-0.2-1.3-0.5c0,0-4.2-3.4-5.5-4.4c-0.5-0.2-2.1-0.2-3.6,0
										c-1.1,0.2-2.3-0.7-2.4-1.8c-0.2-1.1,0.7-2.3,1.8-2.4c0,0,1.1-0.2,2.3-0.2c2.1,0,3.4,0.2,4.2,1c1.1,0.8,5.4,4.4,5.5,4.6
										c1,0.8,1.1,2.1,0.3,2.9C516.6,36.5,516,36.8,515.3,36.8z"/>
								</g>
								<g display="inline">
									<path fill="#FFFFFF" d="M505.9,40.9c-0.5,0-1-0.2-1.3-0.5c-0.5-0.3-2.6-1.6-4.4-2.9c-2.3-1.5-4.7-3.1-5.9-3.9
										c-0.2-0.2-0.2-0.2-0.3-0.2c0,0-0.2,0.2-0.2,0.3l0,0l-3.9-1.8c0.2-0.3,1-2,2.9-2.6c0.8-0.2,2.3-0.3,3.8,0.8
										c1.1,0.8,3.6,2.4,5.9,3.9c1.1,0.8,2.4,1.6,3.3,2.1c1.6,1.1,1.8,1.1,2,1.5c0.7,1,0.5,2.3-0.5,2.9
										C506.7,40.7,506.3,40.9,505.9,40.9z"/>
								</g>
								<g display="inline">
									<path fill="#FFFFFF" d="M501,34.4c-0.7,0-1.1-0.3-1.6-0.8c-1.5-1.8-2.8-6-2.9-6.9c-0.3-1.1,0.3-2.3,1.5-2.6
										s2.3,0.3,2.6,1.5l0,0c0.5,2,1.5,4.6,2.1,5.2c0.8,1,0.7,2.3-0.2,3.1C501.9,34.2,501.5,34.4,501,34.4z"/>
								</g>
							</g>
						</g>
						<g>
							<defs>
								<rect id="SVGID_7_" x="246.7" y="-14.6" width="326.4" height="114.2"/>
							</defs>
							<clipPath id="SVGID_8_">
								<use xlink:href="#SVGID_7_"  overflow="visible"/>
							</clipPath>
							<g clip-path="url(#SVGID_8_)">
								<g>
									<g>
										<path fill="#009AD8" d="M404.4,86.7c-0.8,0-1.5,0-2.3-0.2c-3.8-0.5-7-2.3-9.5-4.9c-2.6-2.9-3.8-6.5-3.3-10.3
											c0.3-2.6,1.5-4.7,3.1-6.7l3.8-54.2l32.3,4.4l-11.1,53.2c1.1,2.3,1.5,4.7,1.1,7.2c-0.5,3.8-2.6,6.9-6,9.1
											C410.1,86.1,407.3,86.7,404.4,86.7z M402.1,73.2L402.1,73.2c0.3,0.5,0.8,0.8,1.8,1c0.8,0.2,1.3,0,2-0.3c0,0,0,0,0.2,0l0,0
											c-0.3-0.3-0.8-0.7-1.8-0.8C403.2,72.7,402.7,72.7,402.1,73.2C402.1,73,402.1,73,402.1,73.2z M405.7,58.2l0.8,0.2l6.9-32.5
											l-5.4-0.8L405.7,58.2z"/>
									</g>
								</g>
								<g>
									<g>
										<path fill="#FFFFFF" d="M412.4,74.5c-0.3,2-1.3,3.4-3.1,4.6s-3.9,1.6-6,1.3c-2.3-0.3-4.1-1.3-5.5-2.9
											c-1.5-1.6-2-3.3-1.8-5.2c0.3-2,1.3-3.4,3.1-4.6c1.8-1.1,3.9-1.6,6.2-1.3c2.3,0.3,4.1,1.3,5.5,2.9
											C411.9,70.9,412.5,72.7,412.4,74.5z M421,20.3l-9.5,45L399,63.6l3.1-45.9L421,20.3z"/>
									</g>
								</g>
							</g>
						</g>
						<g>
							<defs>
								<rect id="SVGID_9_" x="246.7" y="-14.6" width="326.4" height="114.2"/>
							</defs>
							<clipPath id="SVGID_10_">
								<use xlink:href="#SVGID_9_"  overflow="visible"/>
							</clipPath>
							<g clip-path="url(#SVGID_10_)">
								<g>
									<g>
										<path fill="#009AD8" d="M280.7,83.8c-5.1,0-9.5-1.8-13.1-5.4c-3.6-3.6-5.4-8-5.4-12.9s2-9.5,5.4-12.9
											c3.6-3.6,8-5.4,13.1-5.4c5.1,0,9.5,1.8,13.1,5.4c3.6,3.6,5.4,8,5.4,12.9s-2,9.5-5.4,12.9C290.1,82,285.6,83.8,280.7,83.8z
											"/>
									</g>
									<g>
										<polygon fill="#009AD8" points="313.5,83.3 291.6,83.3 291.6,47.1 318.7,47.1 322.4,63.1 318.5,63.1 321.1,74.2 
											313.5,74.2 										"/>
									</g>
									<g>
										<polygon fill="#009AD8" points="335.3,83.3 313.5,83.3 313.5,47.1 340.4,47.1 344.3,63.1 340.4,63.1 343,74.2 335.3,74.2 
																					"/>
									</g>
									<g>
										<polygon fill="#009AD8" points="362.3,83.3 335.2,83.3 335.2,47.1 362.3,47.1 366,63.1 362.1,63.1 363.1,67.2 366,67.2 
											364.5,73.5 364.7,74.2 364.4,74.2 										"/>
									</g>
									<g>
										<path fill="#009AD8" d="M401.3,83.3h-43.6V47.1h20.1c3.4,0,6.5,1.3,8.8,3.6c2.4,2.4,3.6,5.5,3.6,8.8
											c0,2.1-0.5,4.2-1.6,6.2l0,0L401.3,83.3z"/>
									</g>
								</g>
								<g>
									<g>
										<path fill="#FFFFFF" d="M293.4,65.5c0,3.4-1.3,6.5-3.8,9c-2.4,2.4-5.5,3.8-9,3.8c-3.6,0-6.5-1.3-9-3.8
											c-2.4-2.4-3.8-5.4-3.8-9c0-3.4,1.3-6.5,3.8-9s5.5-3.8,9-3.8c3.6,0,6.5,1.3,9,3.8C292.1,59,293.4,61.9,293.4,65.5z
											 M282.5,72.9V57.4h-3.8v15.5H282.5z"/>
									</g>
									<g>
										<path fill="#FFFFFF" d="M315.3,57.5h-7.3v6.2h4.9l1.1,4.7h-6v9.1h-10.6V52.8h16.8L315.3,57.5z"/>
									</g>
									<g>
										<path fill="#FFFFFF" d="M337.1,57.5h-7.3v6.2h4.9l1.1,4.7h-6v9.1h-10.6V52.8H336L337.1,57.5z"/>
									</g>
									<g>
										<path fill="#FFFFFF" d="M358.8,72.9l-1.1,4.7h-16.8V52.8h16.8l1.1,4.7h-7.3v6.2h4.9l1.1,4.7h-6V73h7.3V72.9z"/>
									</g>
									<g>
										<path fill="#FFFFFF" d="M390.2,77.6h-10.8l-5.4-9v9h-10.6V52.8h14.4c2,0,3.4,0.7,4.9,2c1.3,1.3,2,2.9,2,4.9
											c0,1.1-0.3,2.3-0.8,3.3c-0.7,1-1.3,1.8-2.3,2.4L390.2,77.6z M376.8,64.4v-7H374v7H376.8z"/>
									</g>
								</g>
							</g>
						</g>
						<g>
							<g>
								<g>
									<g>
										<path fill="#009AD8" d="M277.2,50.4h-10.9l-8-15.3h5.4c-1.1-1.8-1.6-3.8-1.6-5.9c0-3.1,1.1-5.9,3.4-8.2
											c2.3-2.1,5.1-3.4,8.2-3.4h12.2l5.1,15.3h-3.8c1.1,1.8,1.6,3.8,1.6,5.9c0,3.1-1.1,5.9-3.4,8.2
											C283.1,49.1,280.3,50.4,277.2,50.4z"/>
									</g>
									<g>
										<path fill="#009AD8" d="M299.1,50.4h-20.4V17.6h17.1c3.4,0,6.5,1.3,9,3.8c2.4,2.4,3.8,5.5,3.8,9s-1.3,6.5-3.8,9
											c-1.6,1.6-3.4,2.8-5.5,3.3v7.8H299.1z"/>
									</g>
									<g>
										<polygon fill="#009AD8" points="323.1,50.4 298.3,50.4 298.3,17.6 323.1,17.6 326.7,32.9 323.3,32.9 323.7,34.9 
											326.7,34.9 325.2,41.1 325.5,42.4 324.9,42.4 										"/>
									</g>
									<g>
										<path fill="#009AD8" d="M343.7,50.4h-11.4c-4.4,0-8.5-1.6-11.6-4.7c-3.1-3.1-4.7-7.2-4.7-11.6s1.6-8.5,4.7-11.6
											c3.1-3.1,7.2-4.9,11.6-4.9h11.4l3.4,15.3h-10.3v2h10.3L343.7,50.4z"/>
									</g>
									<g>
										<rect x="335.3" y="17.6" fill="#009AD8" width="20.6" height="32.8"/>
									</g>
									<g>
										<polygon fill="#009AD8" points="382.2,50.2 344.3,50.2 355.9,17.6 360.8,17.6 360.8,17.4 360.8,17.6 370.6,17.6 
																					"/>
									</g>
									<g>
										<polygon fill="#009AD8" points="394.1,50.4 369.4,50.4 369.4,17.6 389.8,17.6 389.8,34.9 397.8,34.9 										"/>
									</g>
								</g>
								<g>
									<g>
										<path fill="#FFFFFF" d="M283,38.8c0,1.6-0.5,2.9-1.6,4.1c-1.1,1.1-2.4,1.6-4.1,1.6h-7.5l-2.1-4.1h6.4l-5.4-8.5
											c-0.7-1-0.8-2-0.8-3.1c0-1.6,0.7-2.9,1.8-4.1c1.1-1.1,2.4-1.6,4.1-1.6h8.2l1.3,4.1h-6.4l5.5,8.5
											C282.8,36.5,283,37.6,283,38.8z"/>
									</g>
									<g>
										<path fill="#FFFFFF" d="M302.7,30.1c0,2-0.7,3.6-2.1,4.9c-1.3,1.3-2.9,2.1-4.9,2.1h-2.3v7.5h-9.1V23.1h11.4
											c2,0,3.6,0.7,4.9,2.1C302,26.5,302.7,28.2,302.7,30.1z M296,33.2v-6h-2.4v6H296z"/>
									</g>
									<g>
										<path fill="#FFFFFF" d="M319.5,40.6l-1,4.1H304V23.1h14.5l1,4.1h-6.4v5.4h4.2l1,4.1h-5.2v3.9H319.5z"/>
									</g>
									<g>
										<path fill="#FFFFFF" d="M339.9,40.6l-0.8,4.1h-6.9c-2.9,0-5.4-1-7.5-3.1c-2.1-2.1-3.1-4.6-3.1-7.5c0-2.9,1-5.4,3.1-7.5
											s4.6-3.1,7.5-3.1h6.9l0.8,4.1h-8.8v13.4h8.8V40.6z"/>
									</g>
									<g>
										<path fill="#FFFFFF" d="M350.2,44.6H341V23.1h9.1V44.6z"/>
									</g>
									<g>
										<path fill="#FFFFFF" d="M374.2,44.6h-9.6c0-0.2-0.5-1.1-1.1-3.3h-4.9l-1.1,3.3h-4.9l7.7-21.4h6.5L374.2,44.6z M361.9,37.3
											l-1-2.9l-1,2.9H361.9z"/>
									</g>
									<g>
										<path fill="#FFFFFF" d="M390.7,40.6l-1,4.1h-14.5V23.1h9.1v17.5H390.7z"/>
									</g>
								</g>
							</g>
						</g>
					</g>
				</g>
			</g>
		</g>
		<g clip-path="url(#SVGID_2_)">
			<g id="XMLID_2_">
				<g>
					<path fill="#C4E7FB" d="M99.5,38.8c1.3,0.7,2.4,1.6,3.4,2.9c3.8,4.7,11.4,10.6,20.5,10.2c9.1-0.4,27.9-7,36.4,9
						c-2,0.7-3.9,1.4-5.1,1.8c-6.5,2.6-27.2,7.4-44.6,7.4c-17.4,0-37.8-4-40.8-5s-18.5-5.5-18.7-9.2c-0.1-0.9,0.5-1.7,1.3-2.4l0,0
						c2.4-1.8,7.4-2.6,8.3-2.7c1.4-0.2,23.2-8.9,25.4-10.9c2.1-2,5.3-3.8,6.9-3.3C93.4,37,96.5,37,99.5,38.8z"/>
				</g>
				<g>
					<path fill="#2789CA" d="M126.7,12.8c0,0,3.9-1.5,2.7,3.6l0,0c-11.9,8.4-28.1,21.4-28.3,21.7l0,0c-0.9,0.3-1.4,0.7-1.6,0.7
						c-3.1-1.8-6.2-1.8-7.2-2.1c0,0,2.4-2.7,6.2-4c4-1.2,9.4-4.4,11.2-5.8C111.6,25.5,124.9,15.6,126.7,12.8z"/>
				</g>
				<g>
					<path fill="#009AD8" d="M152.3,18.5c0.4,1.4,0.7,2.9,1.1,4.7c-3.6-3.5-7.9-5.7-13.5-3c-7,3.4-32,14.9-38.6,18
						c0.2-0.1,16.6-13.3,28.3-21.7c5.6-4,10.1-6.8,11.6-7C144.8,9.4,149.7,10.8,152.3,18.5L152.3,18.5z"/>
				</g>
				<g>
					<path fill="#4273B8" d="M191.8,16.1c-0.4,6.2-7.9,14.2-14.6,17.1c-6.8,2.7-14.5,1.2-19.3-4.7c-1.4-1.8-2.9-3.6-4.5-5.2
						c-0.3-1.8-0.7-3.3-1.1-4.7c0.2-0.1,20-6.5,21.1-6.6c0.6-0.1,4.9-1.1,9.2-1.7l0,0C183.3,10.1,192.1,10,191.8,16.1z"/>
				</g>
				<g>
					<path fill="#3ABFF0" d="M196.4,27c0.1,0.2,3.8,13,3.3,19.4c0,0-2.7,4.3-11.8,6.6c-7.3,1.9-20,5.3-28.2,7.9
						c-8.3-16-27.3-9.2-36.4-9c-9.1,0.4-16.7-5.6-20.5-10.2c-1.1-1.3-2.3-2.3-3.4-2.9c0.1,0,0.6-0.4,1.6-0.7l0,0
						c6.6-3,31.5-14.5,38.6-18c5.6-2.7,9.9-0.5,13.5,3c1.6,1.5,3.1,3.4,4.5,5.2c4.7,5.8,12.4,7.5,19.3,4.7
						c6.8-2.7,14.2-10.9,14.6-17.1c0.3-6.1-8.4-5.9-9-5.9c3.3-0.4,6.7-0.5,8.7,0.6c4.3,2.5,6.4,7.1,5.8,12.4
						C197,24.5,196.7,25.8,196.4,27L196.4,27z"/>
				</g>
				<g>
					<path fill="#EDEDED" d="M133.6,86c0,0,0.2,1.1-0.5,2.2c-0.5,0.8-1.8,1.6-4.3,1.5c-5.6-0.1-24.5,1.6-28.7,1.5
						C96,90.9,70,88.8,60.4,84.2c-9.6-4.6-17-6.7-18.3-10.8s2.2-13.5,2.5-14.3c0.4-1,1.3-0.9,2.2-1.4c-0.2,0.4-0.4,1-0.5,1.6
						c0,0-1,1.4,2,3.6c3,2.2,9.3,7.7,41.6,11.5C122.4,78.1,131.3,73.8,133.6,86z"/>
				</g>
				<g>
					<path fill="#FFFFFF" d="M200.6,50c-0.2,3-0.9,13.1-2.2,15.2c-1.3,2.1-9.4,5.7-13.2,6.4c-3.6,0.5-28.6,7.7-33.7,11
						c-5.1,3.3-15.8,5.8-18.1,5.5l-0.3,0c0.7-1,0.5-2.2,0.5-2.2c-2.3-12.1-11.2-7.9-43.5-11.7S51.5,65,48.5,62.8c-3-2.2-2-3.6-2-3.6
						c0.1-0.6,0.3-1,0.5-1.6c1.4-3.3,4.9-4.1,5-4.1c-0.8,0.7-1.3,1.3-1.3,2.4c0.2,3.6,15.6,8.2,18.7,9.2c3,1.1,23.4,5,40.8,5
						s38.1-4.8,44.6-7.4c1.3-0.6,3.1-1.2,5.1-1.8c8.2-2.7,20.7-6,28.2-7.9c9.3-2.3,11.8-6.6,11.8-6.6S200.7,47,200.6,50z"/>
				</g>
			</g>
			<g>
				<path fill="#C4E7FB" d="M113.6,48.9l-0.1-0.2l0.6-0.2l0.1,0.2L113.6,48.9z M115.7,48.1l-0.1-0.2l0.6-0.2l0.1,0.2L115.7,48.1z
					 M117.8,47.3l-0.1-0.2l0.6-0.2l0.1,0.2L117.8,47.3z M119.8,46.5l-0.1-0.2l0.6-0.2l0.1,0.2L119.8,46.5z M121.8,45.6l-0.1-0.2
					l0.6-0.2l0.1,0.2L121.8,45.6z M124,44.8l-0.1-0.2l0.6-0.2l0.1,0.2L124,44.8z M126,44.1l-0.1-0.2l0.6-0.2l0.1,0.2L126,44.1z
					 M128,43.3l-0.1-0.2l0.6-0.2l0.1,0.2L128,43.3z M130,42.5l-0.1-0.2l0.6-0.2l0.1,0.2L130,42.5z M132,41.6l-0.1-0.2l0.6-0.2
					l0.1,0.2L132,41.6z M170,45.2L170,45.2l-0.1-0.2l0.1,0c0.1,0,0.3,0,0.4,0l0,0.1C170.3,45.2,170.2,45.2,170,45.2z M168.2,45
					c-0.1,0-0.4,0-0.6-0.1l0-0.1c0.1,0,0.4,0,0.6,0.1L168.2,45z M172.1,45.2l0-0.1c0.1,0,0.4,0,0.6,0.1l0,0.1
					C172.5,45.3,172.4,45.3,172.1,45.2z M166.2,44.5c-0.1,0-0.4,0-0.6-0.2l0-0.1c0.1,0,0.4,0,0.6,0.2L166.2,44.5z M174.3,45.2l0-0.1
					c0.1,0,0.5-0.1,0.6-0.1l0,0.1C174.8,45.1,174.5,45.2,174.3,45.2z M134.2,40.8l-0.1-0.2l0.6-0.2l0.1,0.2L134.2,40.8z M164.1,43.8
					c-0.1,0-0.4-0.2-0.6-0.2l0-0.1c0.1,0,0.4,0.2,0.6,0.2L164.1,43.8z M176.5,44.7l-0.1-0.2c0.2-0.1,0.3-0.1,0.6-0.2l0.1,0.2
					C176.9,44.6,176.6,44.5,176.5,44.7z M161.9,43c-0.1,0-0.4-0.2-0.6-0.2l0-0.1c0.1,0,0.4,0.2,0.6,0.2L161.9,43z M136.2,40
					l-0.1-0.2l0.6-0.2l0.1,0.2L136.2,40z M159.9,42.2c-0.1,0-0.4-0.2-0.6-0.2l0.2-0.1c0.1,0.2,0.4,0.2,0.6,0.2L159.9,42.2z
					 M178.5,43.7l-0.1-0.2c0.2-0.1,0.3-0.3,0.6-0.2l0.1,0.2C178.8,43.6,178.6,43.7,178.5,43.7z M138.2,39.3l-0.1-0.2l0.6-0.2
					l0.1,0.2L138.2,39.3z M158,41.1c-0.1-0.2-0.4-0.2-0.6-0.4l0.2-0.1c0.1,0.2,0.4,0.2,0.6,0.4L158,41.1z M180.4,42.7l-0.1-0.2
					c0.2-0.1,0.3-0.3,0.5-0.4l0.1,0.2C180.8,42.4,180.5,42.6,180.4,42.7z M140.2,38.5l-0.1-0.2l0.6-0.2l0.1,0.2L140.2,38.5z
					 M156.1,40c-0.1-0.2-0.4-0.2-0.6-0.4l0.2-0.1c0.1,0.2,0.4,0.2,0.6,0.4L156.1,40z M142.4,37.7l-0.1-0.2l0.6-0.2l0.1,0.2
					L142.4,37.7z M154.2,38.8c-0.1-0.2-0.3-0.2-0.6-0.4l0.2-0.1c0.1,0.2,0.3,0.2,0.6,0.4L154.2,38.8z M182.3,41.5l-0.1-0.2
					c0.2-0.1,0.3-0.3,0.5-0.4l0.1,0.2C182.8,41.3,182.4,41.4,182.3,41.5z M144.4,36.8l-0.1-0.2l0.6-0.2l0.1,0.2L144.4,36.8z
					 M152.5,37.5c-0.1-0.2-0.3-0.2-0.6-0.4l0.2-0.1c0.1,0.2,0.3,0.2,0.6,0.4L152.5,37.5z M184.2,40.4l-0.1-0.2
					c0.2-0.1,0.3-0.3,0.5-0.4l0.1,0.2C184.5,40.1,184.3,40.3,184.2,40.4z M146.4,36l-0.1-0.2l0.6-0.2l0.1,0.2L146.4,36z M150.7,36.2
					c-0.1-0.2-0.3-0.3-0.6-0.4l0.2-0.1c0.1,0.2,0.3,0.3,0.6,0.4L150.7,36.2z M148.5,35.2l-0.1-0.2l0.6-0.2l0.1,0.2L148.5,35.2z
					 M186.1,39.1L186,39c0.3-0.3,0.5-0.4,0.5-0.4l0.1,0.2C186.6,38.7,186.4,39,186.1,39.1z"/>
			</g>
			<g>
				
					<ellipse transform="matrix(0.104 -0.9946 0.9946 0.104 103.3758 170.3887)" fill="#4273B8" cx="146.3" cy="27.8" rx="2.5" ry="3"/>
				<path fill="#009AD8" d="M145.9,31.1c-1.9-0.2-3.4-1.8-3.2-3.6s2-3.1,3.9-2.9s3.4,1.8,3.2,3.6S148,31.3,145.9,31.1z M146.5,25.9
					c-1.2-0.1-2.3,0.7-2.4,1.5c-0.1,1,0.8,1.9,2,2c1.2,0.1,2.3-0.7,2.4-1.5C148.6,27,147.6,26,146.5,25.9z"/>
			</g>
			<g>
				
					<ellipse transform="matrix(0.104 -0.9946 0.9946 0.104 92.9273 164.7753)" fill="#4273B8" cx="137.9" cy="30.8" rx="2.5" ry="3"/>
				<path fill="#009AD8" d="M137.6,34c-1.9-0.2-3.4-1.8-3.2-3.6s2-3.1,3.9-2.9c1.9,0.2,3.4,1.8,3.2,3.6
					C141.4,33,139.6,34.3,137.6,34z M138.1,29c-1.2-0.1-2.3,0.7-2.4,1.5c-0.1,1,0.8,1.9,2,2c1.2,0.1,2.3-0.7,2.4-1.5
					C140.2,30,139.4,29.2,138.1,29z"/>
			</g>
			<g>
				
					<ellipse transform="matrix(0.104 -0.9946 0.9946 0.104 82.1589 159.3948)" fill="#4273B8" cx="129.5" cy="34.1" rx="2.5" ry="3"/>
				<path fill="#009AD8" d="M129.2,37.3c-1.9-0.2-3.4-1.8-3.2-3.6c0.2-1.8,2-3.1,3.9-2.9s3.4,1.8,3.2,3.6
					C133,36.2,131.3,37.5,129.2,37.3z M129.7,32.3c-1.2-0.1-2.3,0.7-2.4,1.5c-0.1,1,0.8,1.9,2,2c1.2,0.1,2.3-0.7,2.4-1.5
					C131.8,33.4,131.1,32.5,129.7,32.3z"/>
			</g>
			<g>
				
					<ellipse transform="matrix(0.104 -0.9946 0.9946 0.104 71.5504 153.8978)" fill="#4273B8" cx="121.2" cy="37.2" rx="2.5" ry="3"/>
				<path fill="#009AD8" d="M120.9,40.3c-1.9-0.2-3.4-1.8-3.2-3.6s2-3.1,3.9-2.9c1.9,0.2,3.4,1.8,3.2,3.6
					C124.7,39.4,122.9,40.5,120.9,40.3z M121.4,35.3c-1.2-0.1-2.3,0.7-2.4,1.5c-0.1,1,0.8,1.9,2,2s2.3-0.7,2.4-1.5
					S122.7,35.5,121.4,35.3z"/>
			</g>
			<g>
				
					<ellipse transform="matrix(0.104 -0.9946 0.9946 0.104 61.3491 147.615)" fill="#4273B8" cx="112.6" cy="39.8" rx="2.5" ry="3"/>
				<path fill="#009AD8" d="M112.3,43c-1.9-0.2-3.4-1.8-3.2-3.6s2-3.1,3.9-2.9s3.4,1.8,3.2,3.6C116.1,41.9,114.3,43.2,112.3,43z
					 M112.8,38c-1.2-0.1-2.3,0.7-2.4,1.5c-0.1,1,0.8,1.9,2,2c1.2,0.1,2.3-0.7,2.4-1.5C114.9,39,114.1,38.1,112.8,38z"/>
			</g>
			<g>
				<path fill="#FFFFFF" d="M146.1,29.3c-0.4,0-0.7-0.2-1-0.4c-3.3-2.7-7.4-6-8.4-6.5c-0.9-0.2-4.2,0-6.7,0.2c-1,0-2-0.7-2.1-1.7
					c0-1,0.7-2,1.7-2.1c2-0.2,6.6-0.5,8.3,0c0.6,0.2,1.6,0.6,5.7,3.9c2.1,1.7,4,3.2,4,3.2c0.8,0.7,1,1.9,0.2,2.7
					C147.3,29.1,146.7,29.3,146.1,29.3z"/>
			</g>
			<g>
				<path fill="#FFFFFF" d="M137.7,32.4c-0.3,0-0.7-0.2-1-0.4c-2.9-2.2-6.3-5-7.3-5.5c-0.9-0.1-3.9,0-6.4,0.4c-1,0-2-0.7-2.1-1.7
					c0-1,0.7-2,1.7-2.1c6.8-0.6,7.6-0.2,8-0.2c0.3,0.2,1.1,0.4,8.4,6.2c0.8,0.7,1,1.9,0.3,2.7C139.1,32.3,138.5,32.5,137.7,32.4z"/>
			</g>
			<g>
				<path fill="#FFFFFF" d="M129.4,35.4c-0.4,0-0.7-0.2-1-0.4c-2.5-2-5.8-4.6-6.9-5.2c-1.5,0.3-4.9,1-5,1c-1.1,0.2-2-0.5-2.2-1.6
					c-0.2-1.1,0.5-2,1.6-2.2c0,0,4.4-0.9,5.3-1.1c1.1-0.2,2.2,0.1,6.1,3.2c1.9,1.4,3.6,2.9,3.7,2.9c0.8,0.7,1,1.9,0.3,2.7
					C130.8,35.3,130.1,35.5,129.4,35.4z"/>
			</g>
			<g>
				<path fill="#FFFFFF" d="M128,23.7c-0.7-0.1-1.4-0.6-1.6-1.4c-0.4-1.4-2.7-4.4-4-6.1c-0.7-0.8-0.5-2,0.3-2.8
					c0.8-0.7,2-0.5,2.8,0.3c0.4,0.5,3.8,4.9,4.6,7.3c0.3,1.1-0.2,2.1-1.3,2.4C128.6,23.7,128.3,23.7,128,23.7z"/>
			</g>
			<g>
				<path fill="#FFFFFF" d="M121.2,27.1c-0.7-0.1-1.4-0.6-1.6-1.4c-0.6-1.7-2.1-4.1-2.6-4.9c-0.6-1-0.4-2.1,0.6-2.6
					c1-0.6,2.1-0.4,2.6,0.6c0.1,0.2,2.2,3.2,3,5.8c0.3,1.1-0.2,2.1-1.1,2.4C121.7,27.2,121.4,27.1,121.2,27.1z"/>
			</g>
			<g>
				<path fill="#FFFFFF" d="M114,31.9c-0.7-0.1-1.4-0.6-1.6-1.4l-1.8-5.8c-0.3-1.1,0.2-2.1,1.3-2.4c1.1-0.3,2.1,0.2,2.4,1.3l1.8,5.8
					c0.3,1.1-0.2,2.1-1.3,2.4C114.5,31.9,114.2,31.9,114,31.9z"/>
			</g>
			<g>
				<path fill="#FFFFFF" d="M121,38.9c-0.4,0-0.9-0.2-1.1-0.6c0,0-3.5-3.5-4.6-4.5c-0.4-0.2-1.9-0.3-3.2-0.3c-1,0-2-0.8-2-1.8
					c0-1,0.8-2,1.8-2c0,0,1,0,2.1,0.1c1.9,0.2,3.1,0.5,3.7,1.3c1,0.8,4.4,4.5,4.6,4.6c0.8,0.8,0.8,2,0,2.7
					C122.2,38.7,121.6,38.9,121,38.9z"/>
			</g>
			<g>
				<path fill="#FFFFFF" d="M112.1,41.6c-0.4,0-0.9-0.2-1.1-0.6c-0.4-0.3-2.2-1.7-3.7-3.1c-1.9-1.5-4-3.2-4.9-4.1
					c-0.1-0.2-0.1-0.2-0.3-0.2c0,0-0.2,0.1-0.2,0.3l0,0l-3.4-2c0.2-0.3,1.1-1.7,2.9-2.1c0.8-0.1,2.1-0.1,3.3,1.1
					c1,0.8,3,2.5,4.9,4.1c1,0.8,2.1,1.7,2.7,2.2c1.4,1.2,1.5,1.2,1.6,1.5c0.5,0.9,0.2,2.1-0.7,2.6C112.9,41.6,112.6,41.7,112.1,41.6
					z"/>
			</g>
			<g>
				<path fill="#FFFFFF" d="M108.3,35.3c-0.6-0.1-1-0.4-1.4-0.9c-1.2-1.8-1.9-5.7-2-6.5c-0.2-1.1,0.5-2,1.6-2.2
					c1.1-0.2,2,0.5,2.2,1.6l0,0c0.3,1.8,0.9,4.3,1.4,4.9c0.6,1,0.4,2.1-0.4,2.8C109.2,35.2,108.8,35.3,108.3,35.3z"/>
			</g>
		</g>
	</g>
</g>
</svg>
