<svg xmlns="http://www.w3.org/2000/svg" viewBox="0 0 200 70"><style>.a{clip-path:url(#SVGID_2_);}.b{opacity:0.3;}.c{fill:#FCF29B;}.d{fill:#009AD8;}.e{fill:#C4E7FB;}.f{fill:#4273B8;}.g{fill:#FFF;}</style><defs><rect width="200" height="70"/></defs><clipPath><use xlink:href="#SVGID_1_"/></clipPath><g class="a"><g class="b"><image width="292" height="136" xlink:href="C5ADABFB.png" transform="matrix(1 0 0 1 -35 -7)"/></g><g class="b"><image width="286" height="141" xlink:href="C5ADABF9.png" transform="matrix(1 0 0 1 -34 -19)"/></g><defs><rect x="-31" width="258" height="70"/></defs><clipPath><use xlink:href="#SVGID_3_"/></clipPath><g clip-path="url(#SVGID_4_)"><path d="M167.9 29.5l-9.5 2 -4.8 1 -2.4 0.5 -1.2 0.3c-0.1 0-0.1 0-0.1 0 0 0 0 0-0.1 0 0 0-0.1 0-0.1 0 5.9-0.6 12.4-1.3 18.5-1.9l77.9-8.1 83-8.7V-5l-85.1 18.2L167.9 29.5z" class="c"/><path d="M168.3 31.5c-6.1 0.6-12.6 1.3-18.5 1.9 -0.1 0-0.1 0.1-0.2 0.1 0.4 0 1 0.1 1.8 0.1h17.1 78.4 82.3V14.6l-83 8.7L168.3 31.5z" class="d"/><path d="M166.3 25.8l-8.7 4 -4.3 2 -2.2 1 -1.1 0.5c-0.2 0.1-0.3 0.2-0.5 0.2 0 0 0 0 0 0 0.1 0 0.2-0.1 0.2-0.1 0 0 0.1 0 0.1 0 0.1 0-0.1 0 0 0 -0.1 0 0 0-0.1 0 0.1 0 0.1 0 0.1 0 0 0 0 0 0.1 0l1.1-0.4 2.3-0.8 4.6-1.5 9.2-3 73.3-24.2 88.6-29.3v-22.9L235.7-6 166.3 25.8z" class="c"/><path d="M167.3 27.6l-9.2 3 -4.6 1.5 -2.3 0.8 -1.1 0.4c0 0-0.1 0-0.1 0 0 0 0 0-0.1 0 0.1 0-0.1 0 0.1 0 -0.1 0 0 0 0 0 0 0 0 0 0.1 0 0 0 0 0 0.1 0l1.2-0.3 2.4-0.5 4.8-1 9.5-2 76.2-16.3L329.2-5v-20.9L240.6 3.4 167.3 27.6z" class="d"/><path d="M163.7 22.5l-14.2 11c0 0 0 0 0 0 0 0 0.1 0 0.1 0 5-3 10.4-6.3 15.6-9.4l64.5-38.8 99.6-60v-30.6L222.3-22.8 163.7 22.5z" class="c"/><path d="M165.1 24.1c-5.2 3.1-10.6 6.4-15.6 9.4 0 0 0 0 0.1 0 0.1-0.1 0.3-0.1 0.5-0.2l1.1-0.5 2.2-1 4.3-2 8.7-4L235.7-6l93.5-42.8v-25.9l-99.6 60L165.1 24.1z" class="d"/><path d="M160.1 19.8c-3.5 4.5-7.2 9.1-10.7 13.4 0 0 0 0.1 0 0.2L162 21l52-51.1 94.7-93.1h-35.2l-68.9 86.7L160.1 19.8z" class="c"/><path d="M162 21l-12.6 12.3c0 0 0 0 0 0 0.1-0.1 0.2-0.1 0.2-0.2 0 0 0 0 0 0 0 0 0 0 0 0 0 0 0 0 0 0 0 0 0 0 0 0 0 0 0 0 0 0 0 0-0.1 0.1-0.2 0.2 0 0 0 0 0 0l14.2-11 58.7-45.3 106.9-82.5v-17.8h-20.5L214-30.1 162 21z" class="d"/><polygon points="149.5 33 149.5 33 149.5 33 " class="c"/><path d="M156.1 17.9l-3.5 8 -1.7 4 -0.9 2 -0.4 1c0 0 0 0.1 0 0.1 0 0 0 0 0 0.1 0 0 0 0 0 0 0 0 0 0 0 0 0-0.1 0.1-0.1 0.1-0.2l0.6-0.9 1.1-1.9 2.3-3.8 4.6-7.6 36.5-60.4 49.2-81.4h-26.3L183.9-46 156.1 17.9z" class="c"/><path d="M158.1 18.7l-4.6 7.6 -2.3 3.8 -1.1 1.9 -0.6 0.9c0 0-0.1 0.1-0.1 0.2 0 0 0 0.1 0 0.2 3.5-4.3 7.1-9 10.7-13.4l44.6-56.2 68.9-86.7h-29.8l-49.2 81.4L158.1 18.7z" class="d"/><path d="M151.7 17c-0.8 5.5-1.6 11.3-2.3 16.4 0 0 0 0 0 0 0 0 0 0 0 0 0-0.1 0-0.1 0-0.2 0-0.1 0-0.1 0-0.2 0 0 0 0 0 0 0 0 0 0 0 0v0c0 0 0 0 0 0 0 0 0 0 0 0 0 0 0 0 0 0 0 0 0 0 0 0 0 0 0 0 0 0 0 0 0 0 0 0 0 0 0 0 0-0.1l0.3-1 0.6-2.1 1.2-4.1 2.3-8.3L172.6-49l20.9-74.1H171l-10 72.3L151.7 17z" class="c"/><path d="M153.9 17.3l-2.3 8.3 -1.2 4.1 -0.6 2.1 -0.3 1c0 0 0 0.1 0 0.1 0 0 0 0 0 0 0 0 0 0 0 0 0 0 0 0 0 0 0 0 0 0 0 0 0 0 0 0 0 0 0 0 0 0 0 0 0 0 0 0 0 0 0 0 0 0 0 0 0 0 0 0 0 0 0 0 0-0.1 0-0.1 0 0 0 0 0-0.1l0.4-1 0.9-2 1.7-4 3.5-8L183.9-46l33.6-77.2h-24L172.6-49 153.9 17.3z" class="d"/><path d="M149.5 33C149.5 33 149.5 33 149.5 33L149.5 33z" class="d"/><path d="M146.8 17c0.7 5.3 1.5 11 2.2 16.1 0 0.1 0.1 0.1 0.1 0.2 0-0.4 0.1-0.9 0.1-1.6V16.8v-68.3 -71.7h-21.7l10 72.3L146.8 17z" class="c"/><path d="M149.2 16.8v14.9c0 0.8 0 1.3 0.1 1.7 0 0 0 0 0 0 0 0 0 0 0 0 0.7-5.2 1.5-11 2.3-16.4l9.4-67.8 10-72.3h-21.7v71.7V16.8z" class="d"/><path d="M142.4 17.9l3.5 8 1.7 4 0.9 2 0.4 1c0 0 0 0.1 0 0.1 0 0 0 0 0-0.1l-0.3-1 -0.6-2.1 -1.2-4.1 -2.3-8.3L125.9-49 105-123.1H81L114.6-46 142.4 17.9z" class="c"/><path d="M144.6 17.3l2.3 8.3 1.2 4.1 0.6 2.1 0.3 1c0 0 0 0.1 0 0.1 0 0 0 0 0 0 0 0 0 0 0 0 0 0 0 0.1 0 0.1 -0.7-5.1-1.5-10.8-2.2-16.1l-9.4-67.8 -10-72.3H105L125.9-49 144.6 17.3z" class="d"/><path d="M149 33L149 33C149 33 149 33 149 33z" class="d"/><path d="M149 33C149 33 149 33 149 33L149 33C149 33 149 33 149 33z" class="d"/><path d="M138.4 19.8c3.6 4.5 7.3 9.2 10.8 13.6 0 0 0 0 0-0.1 -0.1-0.1-0.2-0.3-0.2-0.4l-0.6-0.9 -1.1-1.9 -2.3-3.8 -4.6-7.6 -36.5-60.4 -49.2-81.4H24.9l68.9 86.7L138.4 19.8z" class="c"/><path d="M140.4 18.7l4.6 7.6 2.3 3.8 1.1 1.9 0.6 0.9c0.1 0.1 0.2 0.3 0.2 0.4 0 0 0 0 0 0 0-0.1-0.1-0.1-0.1-0.2 0 0 0-0.1 0-0.1 0 0 0 0 0 0l0 0c0 0 0 0 0 0 0 0 0 0 0 0 0 0 0 0 0-0.1l-0.4-1 -0.9-2 -1.7-4 -3.5-8L114.6-46 81-123.1H54.7l49.2 81.4L140.4 18.7z" class="d"/><path d="M149 33C149 33 149 33 149 33L149 33C149 33 149 33 149 33z" class="d"/><path d="M134.8 22.5L149 33.4c0 0 0 0 0 0 -0.1-0.1-0.2-0.2-0.2-0.2 0 0 0 0 0 0 0 0 0 0 0 0 0 0 0 0 0 0 0 0 0 0 0 0 0 0 0 0 0 0 0 0 0.1 0.1 0.3 0.2 0 0 0 0 0 0L136.5 21l-52-51.1 -94.7-93.1h-20.5v17.8L76.2-22.8 134.8 22.5z" class="c"/><path d="M136.5 21l12.6 12.4c0 0 0 0 0 0 0 0 0-0.1 0-0.1 -3.5-4.4-7.2-9.1-10.8-13.6L93.8-36.4l-68.9-86.7h-35.2l94.7 93.1L136.5 21z" class="d"/><path d="M132.2 25.8l8.7 4 4.3 2 2.2 1 1.1 0.5c0.1 0 0.1 0.1 0.2 0.1 0 0 0.1 0 0.2 0 -5-3-10.3-6.2-15.4-9.3L68.9-14.7l-99.6-60v25.9L62.8-6 132.2 25.8z" class="c"/><path d="M133.4 24.1c5.1 3.1 10.5 6.3 15.4 9.3 0 0 0.1 0 0.2 0l-14.2-10.9L76.2-22.8l-106.9-82.5v30.6l99.6 60L133.4 24.1z" class="d"/><path d="M130.6 29.5l9.5 2 4.8 1 2.4 0.5 1.2 0.3c0.1 0 0.1 0 0.1 0 0 0 0 0-0.1 0l-1.1-0.4 -2.3-0.8 -4.6-1.5 -9.2-3L57.9 3.4l-88.6-29.3V-5l85.1 18.2L130.6 29.5z" class="c"/><path d="M131.2 27.6l9.2 3 4.6 1.5 2.3 0.8 1.1 0.4c0.1 0 0.1 0 0.1 0 0.1 0 0 0 0.1 0 0 0 0 0 0 0 -0.1 0-0.1-0.1-0.2-0.1l-1.1-0.5 -2.2-1 -4.3-2 -8.7-4L62.8-6l-93.5-42.8v22.9L57.9 3.4 131.2 27.6z" class="d"/><path d="M130 33.6h17.1c0.1 0 0.4 0 0.5 0h1.2 0.2c0 0 0 0 0.1 0 0 0 0-0.1-0.1-0.1 0 0 0 0 0 0 -6-0.6-12.6-1.3-18.9-2l-77.9-8.1 -83-8.7v18.9h82.3H130z" class="c"/><path d="M149.4 33.6h0.2 1.2 0.5c-0.8 0-1.3 0-1.8-0.1 0 0 0 0 0 0C149.6 33.5 149.5 33.5 149.4 33.6 149.5 33.5 149.5 33.5 149.4 33.6 149.4 33.5 149.4 33.5 149.4 33.6 149.4 33.6 149.4 33.6 149.4 33.6z" class="c"/><path d="M130.2 31.5c6.3 0.7 12.9 1.4 18.9 2 0 0 0 0 0 0 0 0 0 0 0 0 -0.1 0-0.1 0-0.2 0 -0.1 0-0.1 0-0.2 0 0 0 0 0 0 0 -0.1 0 0.1 0-0.1 0 0 0-0.1 0-0.1 0l-1.2-0.3 -2.4-0.5 -4.8-1 -9.5-2L54.4 13.2 -30.7-5v19.6l83 8.7L130.2 31.5z" class="d"/><path d="M130.6 37.6l9.5-2 4.8-1 2.4-0.5 1.2-0.3c0 0 0.1 0 0.1 0 0 0 0 0 0 0 0 0 0 0 0 0 0 0 0 0 0 0 0 0 0.1 0 0.1 0 -5.9 0.6-12.4 1.3-18.5 1.9l-77.9 8.1 -83 8.7v19.6l85.1-18.2L130.6 37.6z" class="c"/><path d="M148.6 33.8C148.6 33.8 148.6 33.8 148.6 33.8 148.6 33.8 148.6 33.8 148.6 33.8 148.6 33.8 148.6 33.8 148.6 33.8z" class="c"/><path d="M130.2 35.7c6.1-0.6 12.6-1.3 18.5-1.9 0.1 0 0.1-0.1 0.2-0.1 -0.4 0-1-0.1-1.8-0.1H130 51.6h-82.3v18.9l83-8.7L130.2 35.7z" class="d"/><path d="M132.2 41.3l8.7-4 4.3-2 2.2-1 1.1-0.5c0.1-0.1 0.3-0.2 0.5-0.2 0 0 0 0 0 0 -0.1 0-0.2 0.1-0.2 0.1 0 0-0.1 0-0.1 0l0 0c0 0 0 0 0 0 0 0 0 0 0 0 0 0 0 0 0 0 0 0 0.1 0 0.1 0 0 0 0 0 0 0 0 0 0 0 0 0 -0.1 0-0.1 0-0.1 0 0 0 0 0-0.1 0l-1.1 0.4L145 35l-4.6 1.5 -9.2 3L57.9 63.7 -30.7 93v22.9l93.5-42.8L132.2 41.3z" class="c"/><path d="M131.2 39.5l9.2-3L145 35l2.3-0.8 1.1-0.4c0 0 0.1 0 0.1 0 0 0 0 0 0.1 0 0 0 0 0 0 0 0 0 0 0-0.1 0 0 0 0 0 0 0 0 0 0 0 0 0 0 0 0 0-0.1 0l-1.2 0.3 -2.4 0.5 -4.8 1 -9.5 2L54.4 53.9l-85.1 18.2V93l88.6-29.3L131.2 39.5z" class="d"/><path d="M148.6 33.8C148.6 33.8 148.6 33.8 148.6 33.8L148.6 33.8z" class="d"/><path d="M148.6 33.8C148.6 33.8 148.6 33.8 148.6 33.8L148.6 33.8C148.6 33.8 148.6 33.8 148.6 33.8z" class="d"/><path d="M148.5 33.8C148.6 33.8 148.6 33.8 148.5 33.8 148.6 33.8 148.6 33.8 148.5 33.8 148.6 33.8 148.5 33.8 148.5 33.8z" class="d"/><path d="M134.8 44.7l14.2-11c0 0-0.1 0-0.1 0 -5 3-10.4 6.3-15.6 9.4L68.9 81.9l-99.6 60v30.6L76.2 90 134.8 44.7z" class="c"/><path d="M149.3 33.4C149.3 33.4 149.3 33.4 149.3 33.4 149.3 33.4 149.3 33.4 149.3 33.4l0.2-0.1c0.1-0.1 0.1-0.1 0.1-0.1 0 0 0 0 0 0 0 0 0 0 0 0C149.6 33.3 149.5 33.3 149.3 33.4 149.4 33.4 149.4 33.4 149.3 33.4 149.4 33.4 149.4 33.4 149.3 33.4 149.4 33.4 149.4 33.4 149.3 33.4z" class="c"/><path d="M149.1 33.6C149.1 33.6 149.1 33.6 149.1 33.6L149.1 33.6C149.1 33.6 149.1 33.6 149.1 33.6 149.1 33.6 149.1 33.6 149.1 33.6z" class="c"/><path d="M133.4 43c5.2-3.1 10.6-6.4 15.6-9.4 0 0 0 0-0.1 0 -0.1 0.1-0.3 0.1-0.5 0.2l-1.1 0.5 -2.2 1 -4.3 2 -8.7 4L62.8 73.1l-93.5 42.8v25.9l99.6-60L133.4 43z" class="d"/><path d="M149.4 33.4C149.4 33.4 149.4 33.4 149.4 33.4 149.3 33.4 149.3 33.4 149.4 33.4 149.4 33.4 149.4 33.4 149.4 33.4z" class="d"/><path d="M149.1 33.6C149.1 33.6 149.1 33.6 149.1 33.6 149.1 33.6 149.1 33.5 149.1 33.6 149.1 33.6 149.1 33.6 149.1 33.6L149.1 33.6z" class="d"/><path d="M138.4 47.4c3.5-4.5 7.2-9.1 10.7-13.4 0 0 0-0.1 0-0.2l-12.6 12.3 -52 51.1 -94.7 93.1h35.2l68.9-86.7L138.4 47.4z" class="c"/><path d="M149.5 33.4l-0.2 0.2c0 0 0 0 0 0 0 0 0 0 0 0C149.4 33.5 149.4 33.5 149.5 33.4c0 0 0.1-0.1 0.1-0.1 0 0 0 0 0 0C149.6 33.2 149.6 33.3 149.5 33.4z" class="c"/><path d="M84.5 97.2l52-51.1 12.6-12.3c0 0 0-0.1 0-0.1 0 0 0 0 0 0 0 0 0 0 0 0l-14.2 11L76.2 90l-106.9 82.5v17.8h20.5L84.5 97.2z" class="d"/><path d="M149.6 33.2C149.6 33.2 149.7 33.2 149.6 33.2 149.6 33.2 149.6 33.2 149.6 33.2z" class="d"/><path d="M149.3 33.5C149.4 33.5 149.4 33.5 149.3 33.5l0.2-0.1c0.1-0.1 0.1-0.1 0.1-0.1 0 0 0 0 0 0 0 0 0 0 0 0 0 0 0 0 0 0 0 0 0 0 0 0 0 0 0 0-0.1 0.1L149.3 33.5z" class="d"/><path d="M149.6 33.2C149.6 33.2 149.6 33.2 149.6 33.2 149.7 33.2 149.7 33.2 149.6 33.2z" class="d"/><path d="M142.4 49.3l3.5-8 1.7-4 0.9-2 0.4-1c0 0 0-0.1 0-0.1 0 0 0 0 0-0.1 0 0 0 0 0 0 0 0.1-0.1 0.1-0.1 0.2l-0.6 0.9 -1.1 1.9 -2.3 3.8 -4.6 7.6 -36.5 60.4 -49.2 81.4H81l33.6-77.2L142.4 49.3z" class="c"/><path d="M140.4 48.4l4.6-7.6 2.3-3.8 1.1-1.9 0.6-0.9c0 0 0.1-0.1 0.1-0.2 0 0 0-0.1 0-0.2 -3.5 4.3-7.1 9-10.7 13.4l-44.6 56.2 -68.9 86.7h29.8l49.2-81.4L140.4 48.4z" class="d"/><path d="M149.4 33.5C149.4 33.5 149.4 33.5 149.4 33.5 149.4 33.5 149.4 33.5 149.4 33.5 149.4 33.5 149.4 33.5 149.4 33.5 149.4 33.5 149.4 33.5 149.4 33.5 149.4 33.5 149.4 33.5 149.4 33.5z" class="d"/><path d="M146.8 50.2c0.8-5.5 1.6-11.3 2.3-16.5h0c0 0 0 0.1 0 0.1 0 0.1 0 0.1 0 0.2 0 0.1 0 0.1 0 0.2 0 0 0 0 0 0 0 0 0 0 0 0 0 0 0 0 0 0 0 0 0 0 0 0 0 0 0 0 0 0 0 0 0 0 0 0 0 0 0 0 0 0 0 0 0 0 0 0l0 0c0 0 0 0 0 0 0 0 0 0 0 0.1l-0.3 1 -0.6 2.1 -1.2 4.1 -2.3 8.3 -18.7 66.3L105 190.3h22.5l10-72.3L146.8 50.2z" class="c"/><path d="M149.1 33.6C149.1 33.6 149.1 33.6 149.1 33.6L149.1 33.6 149.1 33.6C149.1 33.6 149.1 33.6 149.1 33.6z" class="c"/><path d="M144.6 49.8l2.3-8.3 1.2-4.1 0.6-2.1 0.3-1c0 0 0-0.1 0-0.1 0 0 0 0 0 0 0 0 0 0 0 0 0 0 0 0 0 0 0 0 0 0 0 0 0 0 0 0.1 0 0.1 0 0 0 0 0 0.1l-0.4 1 -0.9 2 -1.7 4 -3.5 8 -27.8 63.9L81 190.3h24l20.9-74.1L144.6 49.8z" class="d"/><path d="M149 34.2C149 34.2 149 34.1 149 34.2L149 34.2z" class="d"/><path d="M149 34.2C149 34.2 149 34.1 149 34.2L149 34.2z" class="d"/><path d="M149 34.2C149 34.2 149 34.2 149 34.2L149 34.2C149 34.2 149 34.2 149 34.2z" class="d"/><path d="M151.7 50.2c-0.7-5.3-1.5-11-2.2-16.1 0-0.1-0.1-0.1-0.1-0.2 0 0 0-0.1-0.1-0.1v0.2V35c0 0.2 0 0.4 0 0.5v14.9 68.3 71.7H171L161 118 151.7 50.2z" class="c"/><path d="M149.2 33.3v0.2c0 0 0.1 0 0.1 0.1 0 0 0-0.1 0-0.1 0 0 0 0 0 0 0 0 0 0 0 0 -0.1-0.4-0.1-1-0.1-1.7v0.5V33.3z" class="c"/><path d="M149.2 50.3V35.4c0-0.1 0-0.3 0-0.5v-1.1 -0.2c0 0 0 0 0-0.1 0 0-0.1 0-0.1 0 -0.7 5.2-1.5 11-2.3 16.5l-9.4 67.8 -10 72.3h21.7v-71.7V50.3z" class="d"/><path d="M149.2 33.5v-0.2 -1.1 -0.5c0 0.7 0 1.2-0.1 1.6 0 0 0 0 0 0 0 0 0 0 0 0.1 0 0 0 0.1 0 0.1C149.2 33.4 149.2 33.5 149.2 33.5z" class="d"/><polygon points="149.1 33.6 149.1 33.6 149.1 33.6 " class="d"/><path d="M156.1 49.3l-3.5-8 -1.7-4 -0.9-2 -0.4-1c0 0 0-0.1 0-0.1 0 0 0 0 0 0.1l0.3 1 0.6 2.1 1.2 4.1 2.3 8.3 18.7 66.3 20.9 74.1h24l-33.6-77.2L156.1 49.3z" class="c"/><path d="M153.9 49.8l-2.3-8.3 -1.2-4.1 -0.6-2.1 -0.3-1c0 0 0-0.1 0-0.1 0-0.1 0 0 0 0 0 0 0-0.1 0-0.1 0.7 5.1 1.5 10.8 2.2 16.1L161 118l10 72.3h22.5l-20.9-74.1L153.9 49.8z" class="d"/><path d="M149.4 33.5C149.4 33.5 149.4 33.5 149.4 33.5 149.3 33.4 149.3 33.4 149.4 33.5 149.4 33.5 149.4 33.5 149.4 33.5 149.4 33.5 149.4 33.5 149.4 33.5 149.4 33.5 149.4 33.5 149.4 33.5z" class="d"/><path d="M160.1 47.4c-3.6-4.6-7.4-9.3-10.9-13.7 0 0 0 0 0 0 0 0 0 0 0 0.1 0 0 0 0.1 0.1 0.1 0.1 0.1 0.2 0.3 0.3 0.4l0.6 0.9 1.1 1.9 2.3 3.8 4.6 7.6 36.5 60.4 49.2 81.4h29.8l-68.9-86.7L160.1 47.4z" class="c"/><path d="M149.1 33.6C149.1 33.6 149.1 33.6 149.1 33.6 149.1 33.6 149.1 33.6 149.1 33.6 149.1 33.6 149.1 33.6 149.1 33.6L149.1 33.6c0 0 0-0.1-0.1-0.1C149.1 33.5 149.1 33.5 149.1 33.6 149.1 33.5 149.1 33.6 149.1 33.6z" class="c"/><path d="M158.1 48.4l-4.6-7.6 -2.3-3.8 -1.1-1.9 -0.6-0.9c-0.1-0.1-0.2-0.3-0.3-0.4 0.1 0.1 0.1 0.2 0.1 0.2 0 0 0 0.1 0 0.1 0 0 0-0.1 0 0 0 0 0 0 0 0.1l0.4 1 0.9 2 1.7 4 3.5 8 27.8 63.9 33.6 77.2h26.3l-49.2-81.4L158.1 48.4z" class="d"/><path d="M163.7 44.7l-14.2-10.9c0 0-0.1 0-0.2 0L162 46.1l52 51.1 94.7 93.1h20.5v-17.8L222.3 90 163.7 44.7z" class="c"/><path d="M149.2 33.6h0.1l-0.3-0.2c-0.1-0.1-0.1-0.1-0.1-0.1 0 0 0 0 0 0 0 0 0 0 0 0 0 0 0 0 0.1 0.1L149.2 33.6z" class="c"/><path d="M148.8 33.2C148.8 33.2 148.8 33.2 148.8 33.2 148.9 33.2 148.8 33.2 148.8 33.2z" class="c"/><path d="M148.8 33.2C148.8 33.2 148.8 33.2 148.8 33.2 148.8 33.2 148.8 33.2 148.8 33.2 148.8 33.2 148.9 33.2 148.8 33.2z" class="c"/><path d="M162 46.1l-12.7-12.4c0 0-0.1 0-0.1 0 3.5 4.4 7.3 9.2 10.9 13.7l44.6 56.2 68.9 86.7h35.2L214 97.2 162 46.1z" class="d"/><path d="M149.1 33.6L149.1 33.6l-0.2-0.2c-0.1-0.1-0.1-0.1-0.1-0.1 0 0 0 0 0 0 0 0 0 0 0 0 0 0 0.1 0.1 0.2 0.2 0 0 0 0 0 0 0 0 0 0 0 0C149.1 33.5 149.1 33.5 149.1 33.6z" class="d"/><path d="M166.3 41.3l-8.7-4 -4.3-2 -2.2-1 -1.1-0.5c-0.1 0-0.1-0.1-0.2-0.1 0 0-0.1 0-0.2 0 5 3 10.3 6.2 15.4 9.3l64.5 38.8 99.6 60v-25.9l-93.5-42.8L166.3 41.3z" class="c"/><path d="M149.4 33.6L149.4 33.6C149.4 33.6 149.4 33.6 149.4 33.6 149.4 33.5 149.4 33.5 149.4 33.6 149.4 33.5 149.4 33.5 149.4 33.6 149.4 33.5 149.4 33.5 149.4 33.6c-0.1-0.1-0.1-0.1-0.1-0.1 0 0-0.1 0-0.1-0.1 0 0 0 0 0 0 0 0 0 0 0 0C149.2 33.5 149.3 33.5 149.4 33.6z" class="c"/><path d="M165.1 43c-5.1-3.1-10.4-6.3-15.4-9.3 -0.1 0-0.1 0-0.2 0l14.2 10.9L222.3 90l106.9 82.5v-30.6l-99.6-60L165.1 43z" class="d"/><path d="M149 33.3l0.3 0.2h0.1c-0.1-0.1-0.2-0.1-0.3-0.2 -0.1-0.1-0.2-0.1-0.3-0.2 0 0 0 0 0 0C148.9 33.2 148.9 33.3 149 33.3z" class="d"/><path d="M148.8 33.2C148.8 33.2 148.8 33.2 148.8 33.2 148.8 33.2 148.8 33.2 148.8 33.2 148.8 33.2 148.8 33.2 148.8 33.2z" class="d"/><path d="M167.9 37.6l-9.5-2 -4.8-1 -2.4-0.5 -1.2-0.3c-0.1 0-0.1 0-0.1 0 0 0 0 0 0.1 0l1.1 0.4 2.3 0.8 4.6 1.5 9.2 3 73.3 24.2L329.2 93V72.1l-85.1-18.2L167.9 37.6z" class="c"/><path d="M167.3 39.5l-9.2-3 -4.6-1.5 -2.3-0.8 -1.1-0.4c-0.1 0-0.1 0-0.1 0 0 0 0 0-0.1 0 0 0 0 0 0 0 0 0 0 0 0 0 0.1 0 0.1 0.1 0.2 0.1l1.1 0.5 2.2 1 4.3 2 8.7 4 69.4 31.8 93.5 42.8V93l-88.6-29.3L167.3 39.5z" class="d"/><path d="M168.5 33.6h-17.1 -0.5 -1.2 -0.2 0 -0.1 -0.1 -0.1 0 0 0 0 0 -0.2 -1.2c-0.2 0-0.5 0-0.5 0 0.8 0 1.3 0 1.8 0.1 0 0 0 0 0 0 0 0 0 0 0.1 0 0 0 0.1 0 0.1 0 0 0 0 0 0 0 6 0.6 12.9 1.3 19.2 2l77.9 8.1 83 8.7V33.6h-82.3H168.5z" class="c"/><path d="M168.3 35.7c-6.4-0.7-13.2-1.4-19.2-2 0 0 0 0 0 0h0c0 0 0.1 0 0.1 0 0 0 0 0 0 0 0 0 0.1 0 0.1 0 0.1 0 0.1 0 0.2 0 0.1 0 0.1 0 0.2 0 0.1 0 0.1 0 0.2 0 0 0 0 0 0 0 0 0 0 0 0 0 0 0 0 0 0.1 0 0 0 0 0 0.1 0l1.2 0.3 2.4 0.5 4.8 1 9.5 2 76.2 16.3 85.1 18.2V52.5l-83-8.7L168.3 35.7z" class="d"/></g><path d="M150.1 33c0.9 0.4 1.7 0.9 2.5 1.7 2.9 2.9 8.4 6.3 14.5 5.4 6.1-0.9 18.3-6.7 25.1 3.5 -1.3 0.6-2.5 1.2-3.3 1.6 -4.2 2.2-17.8 6.9-29.5 8.1 -11.7 1.2-25.7 0-27.8-0.5 -2.1-0.5-12.8-2.4-13.2-4.9 -0.1-0.6 0.2-1.2 0.7-1.7 0 0 0 0 0 0 1.5-1.4 4.8-2.3 5.4-2.4 0.9-0.2 15-7.6 16.3-9.1 1.3-1.5 3.3-2.9 4.4-2.7C145.9 32.2 148 32 150.1 33z" class="e"/><path d="M166.6 13.6c0 0 2.5-1.3 2.1 2.2l0 0c-7.4 6.5-17.4 16.4-17.5 16.6 0 0 0 0 0 0 -0.6 0.3-0.9 0.6-1 0.6 -2.2-1-4.3-0.8-5-0.9 0 0 1.4-2 3.9-3.1 2.6-1.1 6-3.6 7.1-4.7C157.3 23.2 165.6 15.6 166.6 13.6z" fill="#2789CA"/><path d="M184.2 15.6c0.4 0.9 0.7 1.9 1.1 3.1 -2.7-2.1-5.7-3.3-9.3-1.1 -4.5 2.8-20.5 12.3-24.7 14.8 0.1-0.1 10.2-10.1 17.5-16.6 3.5-3.1 6.3-5.3 7.3-5.5C178.5 10 181.9 10.6 184.2 15.6L184.2 15.6z" class="d"/><path d="M210.6 11.2c0.2 4.2-4.3 10.1-8.6 12.5 -4.4 2.3-9.7 1.8-13.3-1.8 -1.1-1.1-2.2-2.2-3.4-3.2 -0.3-1.2-0.7-2.2-1.1-3.1 0.1-0.1 13-5.8 13.7-5.9 0.4-0.1 3.2-1.1 6.1-1.8 0 0 0 0 0 0C204.5 7.8 210.4 7.1 210.6 11.2z" class="f"/><path d="M214.5 18.2c0.1 0.1 3.5 8.5 3.6 12.8 0 0-1.5 3.1-7.5 5.3 -4.8 1.8-13.1 5-18.4 7.3 -6.7-10.2-19-4.3-25.1-3.5 -6.1 0.9-11.6-2.6-14.5-5.4 -0.8-0.8-1.7-1.4-2.5-1.7 0.1 0 0.4-0.3 1-0.6 0 0 0 0 0 0 4.2-2.5 20.2-12 24.7-14.8 3.6-2.2 6.6-1 9.3 1.1 1.2 0.9 2.3 2.1 3.4 3.2 3.6 3.6 8.9 4.2 13.3 1.8 4.4-2.3 8.8-8.3 8.6-12.5 -0.2-4.1-6.1-3.4-6.5-3.3 2.2-0.5 4.5-0.8 5.9-0.2 3.1 1.4 4.8 4.3 4.8 7.9C214.7 16.5 214.6 17.4 214.5 18.2L214.5 18.2z" fill="#3ABFF0"/><path d="M176.4 62.3c0 0 0.2 0.7-0.2 1.5 -0.3 0.6-1.1 1.2-2.8 1.3 -3.8 0.3-16.4 2.8-19.2 3 -2.8 0.2-20.4 0.6-27.2-1.8 -6.8-2.4-11.9-3.3-13.1-6 -1.2-2.7 0.5-9.2 0.7-9.8 0.2-0.7 0.8-0.7 1.4-1.1 -0.1 0.3-0.2 0.7-0.2 1.1 0 0-0.6 1 1.6 2.3 2.2 1.3 6.8 4.5 28.8 4.8C168.3 57.8 174 54.3 176.4 62.3z" fill="#EDEDED"/><path d="M218.9 33.4c0.1 2 0.3 8.9-0.4 10.4 -0.7 1.5-5.9 4.5-8.4 5.2 -2.4 0.6-18.7 7.2-21.9 9.8 -3.2 2.6-10.2 5-11.8 5l-0.2 0c0.4-0.7 0.2-1.5 0.2-1.5 -2.4-8-8.1-4.5-30.1-4.8 -22-0.3-26.6-3.5-28.8-4.8 -2.2-1.3-1.6-2.3-1.6-2.3 0-0.4 0.1-0.7 0.2-1.1 0.7-2.3 3-3.1 3.1-3.1 -0.5 0.5-0.8 1-0.7 1.7 0.4 2.4 11.1 4.4 13.2 4.9 2.1 0.5 16.1 1.7 27.8 0.5 11.7-1.2 25.3-5.9 29.5-8.1 0.8-0.5 2-1 3.3-1.6 5.3-2.4 13.5-5.5 18.4-7.3 6.1-2.2 7.5-5.3 7.5-5.3S218.8 31.4 218.9 33.4z" class="g"/><path d="M160.3 38.8l-0.1-0.1 0.4-0.2 0.1 0.1L160.3 38.8zM161.7 38.1l-0.1-0.1 0.4-0.2 0.1 0.1L161.7 38.1zM163 37.4l-0.1-0.1 0.4-0.2 0.1 0.1L163 37.4zM164.3 36.7l-0.1-0.1 0.4-0.2 0.1 0.1L164.3 36.7zM165.6 36l-0.1-0.1 0.4-0.2 0.1 0.1L165.6 36zM167 35.3l-0.1-0.1 0.4-0.2 0.1 0.1L167 35.3zM168.3 34.7l-0.1-0.1 0.4-0.2 0.1 0.1L168.3 34.7zM169.6 34l-0.1-0.1 0.4-0.2 0.1 0.1L169.6 34zM170.9 33.3l-0.1-0.1 0.4-0.2 0.1 0.1L170.9 33.3zM172.2 32.6l-0.1-0.1 0.4-0.2 0.1 0.1L172.2 32.6zM198 32.3L198 32.3l-0.1-0.1 0.1 0c0.1 0 0.2 0 0.3 0l0 0.1C198.2 32.3 198.1 32.3 198 32.3zM196.8 32.3c-0.1 0-0.3 0-0.4 0l0-0.1c0.1 0 0.3 0 0.4 0L196.8 32.3zM199.4 32.2l0-0.1c0.1 0 0.3 0 0.4 0l0 0.1C199.7 32.2 199.6 32.2 199.4 32.2zM195.4 32.1c-0.1 0-0.3 0-0.4-0.1l0-0.1c0.1 0 0.3 0 0.4 0.1L195.4 32.1zM200.9 32l0-0.1c0.1 0 0.3-0.1 0.4-0.1l0 0.1C201.2 31.9 201 32 200.9 32zM173.6 31.9l-0.1-0.1 0.4-0.2 0.1 0.1L173.6 31.9zM193.9 31.8c-0.1 0-0.3-0.1-0.4-0.1l0-0.1c0.1 0 0.3 0.1 0.4 0.1L193.9 31.8zM202.3 31.5l-0.1-0.1c0.1-0.1 0.2-0.1 0.4-0.2l0.1 0.1C202.6 31.4 202.4 31.4 202.3 31.5zM192.4 31.4c-0.1 0-0.3-0.1-0.4-0.1l0-0.1c0.1 0 0.3 0.1 0.4 0.1L192.4 31.4zM174.9 31.2l-0.1-0.1 0.4-0.2 0.1 0.1L174.9 31.2zM191 31c-0.1 0-0.3-0.1-0.4-0.1l0.1-0.1c0.1 0.1 0.3 0.1 0.4 0.1L191 31zM203.6 30.7l-0.1-0.1c0.1-0.1 0.2-0.2 0.4-0.2l0.1 0.1C203.8 30.6 203.7 30.7 203.6 30.7zM176.2 30.6l-0.1-0.1 0.4-0.2 0.1 0.1L176.2 30.6zM189.6 30.4c-0.1-0.1-0.3-0.1-0.4-0.2l0.1-0.1c0.1 0.1 0.3 0.1 0.4 0.2L189.6 30.4zM204.8 29.9l-0.1-0.1c0.1-0.1 0.2-0.2 0.3-0.3l0.1 0.1C205.1 29.7 204.9 29.8 204.8 29.9zM177.5 29.9l-0.1-0.1 0.4-0.2 0.1 0.1L177.5 29.9zM188.3 29.8c-0.1-0.1-0.3-0.1-0.4-0.2l0.1-0.1c0.1 0.1 0.3 0.1 0.4 0.2L188.3 29.8zM178.9 29.2l-0.1-0.1 0.4-0.2 0.1 0.1L178.9 29.2zM186.9 29.1c-0.1-0.1-0.2-0.1-0.4-0.2l0.1-0.1c0.1 0.1 0.2 0.1 0.4 0.2L186.9 29.1zM206 29l-0.1-0.1c0.1-0.1 0.2-0.2 0.3-0.3l0.1 0.1C206.3 28.8 206.1 28.9 206 29zM180.2 28.5l-0.1-0.1 0.4-0.2 0.1 0.1L180.2 28.5zM185.7 28.4c-0.1-0.1-0.2-0.1-0.4-0.2l0.1-0.1c0.1 0.1 0.2 0.1 0.4 0.2L185.7 28.4zM207.2 28.1l-0.1-0.1c0.1-0.1 0.2-0.2 0.3-0.3l0.1 0.1C207.4 27.9 207.3 28 207.2 28.1zM181.5 27.8l-0.1-0.1 0.4-0.2 0.1 0.1L181.5 27.8zM184.4 27.6c-0.1-0.1-0.2-0.2-0.4-0.2l0.1-0.1c0.1 0.1 0.2 0.2 0.4 0.2L184.4 27.6zM182.8 27.1l-0.1-0.1 0.4-0.2 0.1 0.1L182.8 27.1zM208.4 27.1l-0.1-0.1c0.2-0.2 0.3-0.3 0.3-0.3l0.1 0.1C208.7 26.8 208.6 27 208.4 27.1z" class="e"/><path d="M180.8 24.5c-1.3 0-2.4-1-2.4-2.2 0-1.2 1.1-2.2 2.4-2.2s2.4 1 2.4 2.2C183.2 23.5 182.2 24.5 180.8 24.5zM180.8 21c-0.8 0-1.5 0.6-1.5 1.2 0 0.7 0.7 1.2 1.5 1.2 0.8 0 1.5-0.6 1.5-1.2C182.3 21.6 181.6 21 180.8 21z" class="d"/><path d="M175.4 27.1c-1.3 0-2.4-1-2.4-2.2 0-1.2 1.1-2.2 2.4-2.2 1.3 0 2.4 1 2.4 2.2C177.9 26.1 176.8 27.1 175.4 27.1zM175.4 23.7c-0.8 0-1.5 0.6-1.5 1.2 0 0.7 0.7 1.2 1.5 1.2 0.8 0 1.5-0.6 1.5-1.2C176.9 24.2 176.3 23.7 175.4 23.7z" class="d"/><path d="M170 29.9c-1.3 0-2.4-1-2.4-2.2 0-1.2 1.1-2.2 2.4-2.2s2.4 1 2.4 2.2C172.5 28.9 171.4 29.9 170 29.9zM170 26.5c-0.8 0-1.5 0.6-1.5 1.2 0 0.7 0.7 1.2 1.5 1.2 0.8 0 1.5-0.6 1.5-1.2C171.5 27.1 170.9 26.5 170 26.5z" class="d"/><path d="M164.6 32.5c-1.3 0-2.4-1-2.4-2.2 0-1.2 1.1-2.2 2.4-2.2 1.3 0 2.4 1 2.4 2.2C167.1 31.6 166 32.5 164.6 32.5zM164.6 29.1c-0.8 0-1.5 0.6-1.5 1.2 0 0.7 0.7 1.2 1.5 1.2 0.8 0 1.5-0.6 1.5-1.2C166.1 29.7 165.5 29.1 164.6 29.1z" class="d"/><path d="M159 34.9c-1.3 0-2.4-1-2.4-2.2 0-1.2 1.1-2.2 2.4-2.2s2.4 1 2.4 2.2C161.5 33.9 160.4 34.9 159 34.9zM159 31.5c-0.8 0-1.5 0.6-1.5 1.2 0 0.7 0.7 1.2 1.5 1.2 0.8 0 1.5-0.6 1.5-1.2C160.5 32 159.9 31.5 159 31.5z" class="d"/><path d="M180.8 23.3c-0.3 0-0.5-0.1-0.7-0.2 -2.4-1.6-5.4-3.5-6.1-3.8 -0.6-0.1-2.8 0.3-4.5 0.6 -0.7 0.1-1.4-0.3-1.5-1 -0.1-0.7 0.3-1.4 1-1.5 1.3-0.3 4.4-0.8 5.6-0.6 0.4 0.1 1.1 0.3 4.1 2.2 1.5 1 2.9 1.9 2.9 1.9 0.6 0.4 0.8 1.2 0.3 1.8C181.6 23.1 181.2 23.3 180.8 23.3z" class="g"/><path d="M175.4 26c-0.2 0-0.5-0.1-0.7-0.2 -2.1-1.3-4.6-2.9-5.3-3.2 -0.6 0-2.6 0.3-4.3 0.7 -0.7 0.1-1.4-0.3-1.5-1 -0.1-0.7 0.3-1.4 1-1.5 4.5-0.9 5.1-0.7 5.4-0.7 0.2 0.1 0.8 0.2 6.1 3.6 0.6 0.4 0.8 1.2 0.4 1.8C176.3 25.8 175.9 26 175.4 26z" class="g"/><path d="M170 28.6c-0.3 0-0.5-0.1-0.7-0.2 -1.8-1.2-4.2-2.7-5-3 -1 0.3-3.2 1-3.3 1 -0.7 0.2-1.4-0.2-1.6-0.9 -0.2-0.7 0.2-1.4 0.9-1.6 0 0 2.9-0.9 3.5-1.1 0.7-0.2 1.5-0.1 4.3 1.7 1.4 0.8 2.6 1.7 2.7 1.7 0.6 0.4 0.8 1.2 0.4 1.8C170.9 28.4 170.5 28.6 170 28.6z" class="g"/><path d="M168.2 20.8c-0.5 0-1-0.3-1.2-0.8 -0.4-0.9-2.1-2.8-3.1-3.8 -0.5-0.5-0.5-1.3 0-1.9 0.5-0.5 1.3-0.5 1.9 0 0.3 0.3 2.9 3 3.6 4.6 0.3 0.7 0 1.4-0.7 1.7C168.6 20.8 168.4 20.8 168.2 20.8z" class="g"/><path d="M163.9 23.6c-0.5 0-1-0.3-1.2-0.8 -0.5-1.1-1.7-2.6-2.1-3.1 -0.5-0.6-0.4-1.4 0.2-1.8 0.6-0.5 1.4-0.4 1.8 0.2 0.1 0.1 1.7 2 2.4 3.7 0.3 0.7 0 1.4-0.6 1.7C164.2 23.6 164 23.6 163.9 23.6z" class="g"/><path d="M159.4 27.3c-0.5 0-1-0.3-1.2-0.8l-1.6-3.8c-0.3-0.7 0-1.4 0.7-1.7 0.7-0.3 1.4 0 1.7 0.7l1.6 3.8c0.3 0.7 0 1.4-0.7 1.7C159.7 27.3 159.5 27.3 159.4 27.3z" class="g"/><path d="M164.6 31.5c-0.3 0-0.6-0.1-0.8-0.3 0 0-2.6-2.1-3.4-2.7 -0.3-0.1-1.3-0.1-2.2 0 -0.7 0.1-1.4-0.4-1.5-1.1 -0.1-0.7 0.4-1.4 1.1-1.5 0 0 0.7-0.1 1.4-0.1 1.3 0 2.1 0.1 2.6 0.6 0.7 0.5 3.3 2.7 3.4 2.8 0.6 0.5 0.7 1.3 0.2 1.8C165.4 31.3 165 31.5 164.6 31.5z" class="g"/><path d="M158.8 34c-0.3 0-0.6-0.1-0.8-0.3 -0.3-0.2-1.6-1-2.7-1.8 -1.4-0.9-2.9-1.9-3.6-2.4 -0.1-0.1-0.1-0.1-0.2-0.1 0 0-0.1 0.1-0.1 0.2 0 0 0 0 0 0l-2.4-1.1c0.1-0.2 0.6-1.2 1.8-1.6 0.5-0.1 1.4-0.2 2.3 0.5 0.7 0.5 2.2 1.5 3.6 2.4 0.7 0.5 1.5 1 2 1.3 1 0.7 1.1 0.7 1.2 0.9 0.4 0.6 0.3 1.4-0.3 1.8C159.3 33.9 159.1 34 158.8 34z" class="g"/><path d="M155.8 30c-0.4 0-0.7-0.2-1-0.5 -0.9-1.1-1.7-3.7-1.8-4.2 -0.2-0.7 0.2-1.4 0.9-1.6 0.7-0.2 1.4 0.2 1.6 0.9l0 0c0.3 1.2 0.9 2.8 1.3 3.2 0.5 0.6 0.4 1.4-0.1 1.9C156.4 29.9 156.1 30 155.8 30z" class="g"/></g><g class="a"><path d="M96.6 62.1c-0.5 0-0.9 0-1.4-0.1 -2.3-0.3-4.3-1.4-5.8-3 -1.6-1.8-2.3-4-2-6.3 0.2-1.6 0.9-2.9 1.9-4.1l2.3-33.2 19.8 2.7 -6.8 32.6c0.7 1.4 0.9 2.9 0.7 4.4 -0.3 2.3-1.6 4.2-3.7 5.6C100.1 61.7 98.4 62.1 96.6 62.1zM95.2 53.8C95.2 53.8 95.2 53.8 95.2 53.8c0.2 0.3 0.5 0.5 1.1 0.6 0.5 0.1 0.8 0 1.2-0.2 0 0 0 0 0.1 0 0 0 0 0 0 0 -0.2-0.2-0.5-0.4-1.1-0.5C95.9 53.5 95.6 53.5 95.2 53.8 95.2 53.7 95.2 53.7 95.2 53.8zM97.4 44.6l0.5 0.1 4.2-19.9 -3.3-0.5L97.4 44.6z" class="d"/><path d="M101.5 54.6c-0.2 1.2-0.8 2.1-1.9 2.8 -1.1 0.7-2.4 1-3.7 0.8 -1.4-0.2-2.5-0.8-3.4-1.8 -0.9-1-1.2-2-1.1-3.2 0.2-1.2 0.8-2.1 1.9-2.8 1.1-0.7 2.4-1 3.8-0.8 1.4 0.2 2.5 0.8 3.4 1.8C101.2 52.4 101.6 53.5 101.5 54.6zM106.8 21.4L101 49l-7.7-1.1 1.9-28.1L106.8 21.4z" class="g"/></g><g class="a"><path d="M20.8 60.3c-3.1 0-5.8-1.1-8-3.3 -2.2-2.2-3.3-4.9-3.3-7.9 0-3 1.2-5.8 3.3-7.9 2.2-2.2 4.9-3.3 8-3.3 3.1 0 5.8 1.1 8 3.3 2.2 2.2 3.3 4.9 3.3 7.9 0 3-1.2 5.8-3.3 7.9C26.6 59.2 23.8 60.3 20.8 60.3z" class="d"/><polygon points="40.9 60 27.5 60 27.5 37.8 44.1 37.8 46.4 47.6 44 47.6 45.6 54.4 40.9 54.4 " class="d"/><polygon points="54.3 60 40.9 60 40.9 37.8 57.4 37.8 59.8 47.6 57.4 47.6 59 54.4 54.3 54.4 " class="d"/><polygon points="70.8 60 54.2 60 54.2 37.8 70.8 37.8 73.1 47.6 70.7 47.6 71.3 50.1 73.1 50.1 72.2 54 72.3 54.4 72.1 54.4 " class="d"/><path d="M94.7 60H68V37.8h12.3c2.1 0 4 0.8 5.4 2.2 1.5 1.5 2.2 3.4 2.2 5.4 0 1.3-0.3 2.6-1 3.8 0 0 0 0 0 0L94.7 60z" class="d"/><path d="M28.6 49.1c0 2.1-0.8 4-2.3 5.5 -1.5 1.5-3.4 2.3-5.5 2.3 -2.2 0-4-0.8-5.5-2.3 -1.5-1.5-2.3-3.3-2.3-5.5 0-2.1 0.8-4 2.3-5.5 1.5-1.5 3.4-2.3 5.5-2.3 2.2 0 4 0.8 5.5 2.3C27.8 45.1 28.6 46.9 28.6 49.1zM21.9 53.6v-9.5h-2.3v9.5H21.9z" class="g"/><path d="M42 44.2h-4.5V48h3l0.7 2.9h-3.7v5.6H31V41.3h10.3L42 44.2z" class="g"/><path d="M55.4 44.2h-4.5V48h3l0.7 2.9h-3.7v5.6h-6.5V41.3h10.3L55.4 44.2z" class="g"/><path d="M68.7 53.6L68 56.5H57.7V41.3H68l0.7 2.9h-4.5V48h3l0.7 2.9h-3.7v2.8H68.7z" class="g"/><path d="M87.9 56.5h-6.6L78 51v5.5h-6.5V41.3h8.8c1.2 0 2.1 0.4 3 1.2 0.8 0.8 1.2 1.8 1.2 3 0 0.7-0.2 1.4-0.5 2 -0.4 0.6-0.8 1.1-1.4 1.5L87.9 56.5zM79.7 48.4v-4.3H78v4.3H79.7z" class="g"/></g><g class="a"><path d="M18.7 39.8H12l-4.9-9.4h3.3c-0.7-1.1-1-2.3-1-3.6 0-1.9 0.7-3.6 2.1-5 1.4-1.3 3.1-2.1 5-2.1h7.5l3.1 9.4h-2.3c0.7 1.1 1 2.3 1 3.6 0 1.9-0.7 3.6-2.1 5C22.3 39 20.6 39.8 18.7 39.8z" class="d"/><path d="M32.1 39.8H19.6V19.7h10.5c2.1 0 4 0.8 5.5 2.3 1.5 1.5 2.3 3.4 2.3 5.5 0 2.1-0.8 4-2.3 5.5 -1 1-2.1 1.7-3.4 2V39.8z" class="d"/><polygon points="46.8 39.8 31.6 39.8 31.6 19.7 46.8 19.7 49 29.1 46.9 29.1 47.2 30.3 49 30.3 48.1 34.1 48.3 34.9 47.9 34.9 " class="d"/><path d="M59.4 39.8h-7c-2.7 0-5.2-1-7.1-2.9 -1.9-1.9-2.9-4.4-2.9-7.1 0-2.7 1-5.2 2.9-7.1 1.9-1.9 4.4-3 7.1-3h7l2.1 9.4h-6.3v1.2h6.3L59.4 39.8z" class="d"/><rect x="54.3" y="19.7" width="12.6" height="20.1" class="d"/><polygon points="83 39.7 59.8 39.7 66.9 19.7 69.9 19.7 69.9 19.6 69.9 19.7 75.9 19.7 " class="d"/><polygon points="90.3 39.8 75.2 39.8 75.2 19.7 87.7 19.7 87.7 30.3 92.6 30.3 " class="d"/><path d="M22.2 32.7c0 1-0.3 1.8-1 2.5 -0.7 0.7-1.5 1-2.5 1h-4.6l-1.3-2.5h3.9l-3.3-5.2c-0.4-0.6-0.5-1.2-0.5-1.9 0-1 0.4-1.8 1.1-2.5 0.7-0.7 1.5-1 2.5-1h5l0.8 2.5h-3.9l3.4 5.2C22.1 31.3 22.2 32 22.2 32.7z" class="g"/><path d="M34.3 27.4c0 1.2-0.4 2.2-1.3 3 -0.8 0.8-1.8 1.3-3 1.3h-1.4v4.6h-5.6V23.1h7c1.2 0 2.2 0.4 3 1.3C33.9 25.2 34.3 26.2 34.3 27.4zM30.2 29.3v-3.7h-1.5v3.7H30.2z" class="g"/><path d="M44.6 33.8L44 36.3h-8.9V23.1H44l0.6 2.5h-3.9v3.3h2.6l0.6 2.5h-3.2v2.4H44.6z" class="g"/><path d="M57.1 33.8l-0.5 2.5h-4.2c-1.8 0-3.3-0.6-4.6-1.9 -1.3-1.3-1.9-2.8-1.9-4.6 0-1.8 0.6-3.3 1.9-4.6 1.3-1.3 2.8-1.9 4.6-1.9h4.2l0.5 2.5h-5.4v8.2H57.1z" class="g"/><path d="M63.4 36.3h-5.6V23.1h5.6V36.3z" class="g"/><path d="M78.1 36.3h-5.9c0-0.1-0.3-0.7-0.7-2h-3l-0.7 2h-3l4.7-13.1h4L78.1 36.3zM70.6 31.8L70 30l-0.6 1.8H70.6z" class="g"/><path d="M88.2 33.8l-0.6 2.5h-8.9V23.1h5.6v10.7H88.2z" class="g"/></g></svg>