<?xml version="1.0" encoding="utf-8"?>
<!-- Generator: Adobe Illustrator 18.0.0, SVG Export Plug-In . SVG Version: 6.00 Build 0)  -->
<!DOCTYPE svg PUBLIC "-//W3C//DTD SVG 1.1//EN" "http://www.w3.org/Graphics/SVG/1.1/DTD/svg11.dtd">
<svg version="1.1" id="Layer_1" xmlns="http://www.w3.org/2000/svg" xmlns:xlink="http://www.w3.org/1999/xlink" x="0px" y="0px"
	 viewBox="0 0 150 50" enable-background="new 0 0 150 50" xml:space="preserve">
<polygon fill="#FFEE00" stroke="#948600" stroke-miterlimit="10" points="15.739,11.112 18.465,19.5 27.284,19.5 20.149,24.939 
	22.874,33.454 15.739,28.334 8.604,33.55 11.33,24.923 4.195,19.5 13.014,19.5 "/>
<polygon fill="#FFEE00" stroke="#948600" stroke-miterlimit="10" points="44.362,11.112 47.087,19.5 55.906,19.5 48.771,24.939 
	51.497,33.454 44.362,28.334 37.227,33.55 39.952,24.923 32.817,19.5 41.637,19.5 "/>
<polygon fill="#FFEE00" stroke="#948600" stroke-miterlimit="10" points="72.984,11.112 75.71,19.5 84.529,19.5 77.394,24.939 
	80.119,33.454 72.984,28.334 65.849,33.55 68.575,24.923 61.44,19.5 70.259,19.5 "/>
<polygon fill="#FFFFFF" stroke="#2D363A" stroke-miterlimit="10" points="101.607,11.112 104.332,19.5 113.152,19.5 106.017,24.939 
	108.742,33.454 101.607,28.334 94.472,33.55 97.197,24.923 90.062,19.5 98.882,19.5 "/>
<polygon fill="#FFFFFF" stroke="#2D363A" stroke-miterlimit="10" points="131.143,11.112 133.868,19.5 142.687,19.5 135.552,24.939 
	138.278,33.454 131.143,28.334 124.008,33.55 126.733,24.923 119.598,19.5 128.417,19.5 "/>
</svg>
